<?xml version="1.0" encoding="utf-8"?>
<!-- Generator: Adobe Illustrator 27.5.0, SVG Export Plug-In . SVG Version: 6.00 Build 0)  -->
<svg version="1.1" xmlns="http://www.w3.org/2000/svg" xmlns:xlink="http://www.w3.org/1999/xlink" x="0px" y="0px"
	 viewBox="0 0 750 500" style="enable-background:new 0 0 750 500;" xml:space="preserve">
<g id="BACKGROUND">
	<rect style="fill:#FFFFFF;" width="750" height="500"/>
</g>
<g id="OBJECT">
	<g>
		<path style="opacity:0.68;fill:#65A8DF;" d="M716.466,138.214v180.552c0,22.521-18.249,40.77-40.77,40.77H76.77
			c-22.52,0-40.77-18.249-40.77-40.77V138.214c0-19.123,13.153-35.159,30.907-39.566c3.155-0.786,6.465-1.204,9.862-1.204h598.927
			C698.217,97.444,716.466,115.693,716.466,138.214z"/>
		<path style="fill:#77BBE8;" d="M165.871,97.444C126.557,174.344,62.19,186.176,36,187.681v-49.467
			c0-22.521,18.249-40.77,40.77-40.77H165.871z"/>
		<path style="opacity:0.56;fill:#6697D1;" d="M249.76,97.444c-5.786,28.209-42.517,67.241-99.216,60.504
			c-49.341-5.863-74.337-41.964-83.636-59.3c3.155-0.786,6.465-1.204,9.862-1.204H249.76z"/>
		<path style="fill:#77BBE8;" d="M716.466,138.214v79.365c-62.32-13.328-129.328-68.26-164.05-80.336
			c-44.652-15.531-88.334,0.971-166.962,9.707c-50.118,5.572-92.741-25.928-117.058-49.506h407.3
			C698.217,97.444,716.466,115.693,716.466,138.214z"/>
		<path style="opacity:0.56;fill:#6697D1;" d="M716.466,271.696v47.07c0,22.521-18.249,40.77-40.77,40.77H76.77
			c-22.52,0-40.77-18.249-40.77-40.77v-78.559c25.394,4.533,74.279,15.745,166.962,40.702
			C407.713,336.034,617.988,274.424,716.466,271.696z"/>
	</g>
	<g>
		<g>
			<path style="opacity:0.56;fill:#6697D1;" d="M664.117,268.993h-42.63v-71.765l10.727-0.063l-6.332-23.242h-0.224v-5.96h-4.172
				v-26.745l0.091,0.059v-6.663l8.418,5.641c10.581,7.096,24.695,1.456,33.703-7.543l-132.9-86.335L398.792,136.47l-0.835,0.544
				c5.154,5.154,11.978,7.804,18.851,7.804c5.145,0,10.319-1.485,14.842-4.514l7.476-5.009v32.669h-3.576v5.96l-0.284,3.007
				l-6.271,21.426l10.131-0.059v0.024l-0.063,0l0.063,9.948v61.019h-20.688c2.747-1.241,5.298-2.788,7.591-4.598
				c7.562-5.979,12.347-14.784,12.347-24.598c0-10.94-5.96-20.598-15.075-26.51c0.563-1.98,0.883-4.067,0.883-6.232
				c0-12.483-10.124-22.608-22.617-22.608c-4.281,0-8.28,1.194-11.697,3.252c-6.543,3.97-10.921,11.154-10.921,19.356
				c0,2.534,0.437,4.951,1.204,7.222c-8.29,5.97-13.619,15.172-13.619,25.52c0,12.796,8.127,23.861,19.949,29.196h-8.711
				l-54.934,106.48l403.413-0.296L664.117,268.993z M530.863,73.831l-0.226,0.149l0.152-0.102l0.058-0.039V73.82L530.863,73.831z"/>
			<g>
				<polygon style="fill:#FFA45E;" points="711.45,367.307 652.915,264.428 492.806,264.428 492.806,264.723 366.571,264.723 
					308.037,367.603 526.681,367.603 526.681,367.307 				"/>
				<polygon style="fill:#FFDEC8;" points="683.462,350.314 643.725,273.297 482.091,273.297 482.091,273.538 376.327,273.538 
					334.978,351.77 				"/>
				<g>
					<polygon style="fill:#FFB397;" points="610.285,296.891 427.925,296.891 427.925,130.025 519.701,69.239 610.285,130.025 					
						"/>
					<polygon style="fill:#EFA189;" points="427.954,208.226 610.012,197.265 610.012,192.735 427.863,193.757 					"/>
					<path style="fill:#FF6E61;" d="M652.497,132.399c-9.008,8.999-23.122,10.387-33.703,3.291l-99.148-66.435v0.019l-0.058,0.039
						l-99.139,66.426c-4.523,3.029-9.697,4.514-14.842,4.514c-6.873,0-13.697-2.65-18.851-7.804l0.835-0.544l132.007-85.84
						L652.497,132.399z"/>
					<polygon style="fill:#FF6E61;" points="424.946,169.358 614.68,169.358 621.013,192.6 417.794,193.792 					"/>
					<path style="fill:#FFFFFF;" d="M494.671,296.891h-46.931v-66.639c0-2.693,2.183-4.875,4.875-4.875h37.181
						c2.693,0,4.875,2.183,4.875,4.875V296.891z"/>
					<rect x="512.55" y="221.503" style="fill:#FFFFFF;" width="85.221" height="33.075"/>
					<path style="fill:#C48D7C;" d="M593.152,215.842h-77.175c-2.057,0-3.725-1.668-3.725-3.725l0,0
						c0-2.057,1.668-3.725,3.725-3.725h77.175c2.057,0,3.725,1.668,3.725,3.725l0,0
						C596.877,214.174,595.209,215.842,593.152,215.842z"/>
					<path style="fill:#C48D7C;" d="M494.895,219.939H446.4l0,0c0-8.269,6.704-14.973,14.973-14.973h18.549
						C488.191,204.966,494.895,211.67,494.895,219.939L494.895,219.939z"/>
					<rect x="503.164" y="112.445" style="fill:#FFFFFF;" width="31.734" height="39.333"/>
					<rect x="505.552" y="114.779" style="fill:#A7DBFF;" width="27.036" height="34.401"/>
					<path style="fill:#C48D7C;" d="M534.786,107.975h-31.622l0,0c0-7.406,6.003-13.409,13.409-13.409h4.805
						C528.783,94.566,534.786,100.57,534.786,107.975L534.786,107.975z"/>
					<rect x="424.35" y="163.398" style="fill:#ED9174;" width="190.107" height="5.959"/>
					<path style="fill:#FFDDD4;" d="M489.855,246.212h-37.403v-12.739c0-2.046,1.658-3.704,3.704-3.704h29.995
						c2.046,0,3.704,1.658,3.704,3.704V246.212z"/>
					<rect x="452.903" y="249.826" style="fill:#FFDDD4;" width="15.991" height="46.799"/>
					<rect x="473.728" y="249.826" style="fill:#FFDDD4;" width="15.991" height="46.799"/>
					<rect x="517.139" y="225.071" style="fill:#A7DBFF;" width="76.252" height="26.02"/>
					<polygon style="fill:#FFFFFF;" points="532.521,130.321 520.595,130.321 520.595,114.759 517.591,114.759 517.591,130.321 
						505.518,130.321 505.518,133.223 517.591,133.223 517.591,149.158 520.595,149.158 520.595,133.223 532.521,133.223 					"/>
					<rect x="424.354" y="291.927" style="fill:#C48D7C;" width="188.732" height="8.131"/>
					<rect x="517.466" y="270.893" style="fill:#FFFFFF;" width="89.392" height="8.716"/>
					<rect x="522.681" y="266.199" style="fill:#FFFFFF;" width="11.025" height="37.843"/>
					<rect x="546.072" y="266.199" style="fill:#FFFFFF;" width="11.025" height="37.843"/>
					<rect x="569.016" y="266.199" style="fill:#FFFFFF;" width="11.025" height="37.843"/>
					<rect x="591.066" y="266.199" style="fill:#FFFFFF;" width="11.025" height="37.843"/>
					<path style="fill:#C15E59;" d="M519.646,69.255c0,0-0.019,0.019-0.058,0.058l-99.139,66.426
						c-4.523,3.029-9.697,4.514-14.842,4.514c-6.873,0-13.697-2.65-18.851-7.804l0.835-0.544c0.146-0.058,9.034,0.696,9.189,0.647
						l112.44-68.92l10.377-17.567L519.646,69.255z"/>
					<path style="fill:#C15E59;" d="M423.96,173.483c0,0,159.843-1.618,194.465,10.031l-3.968-14.156H424.35L423.96,173.483z"/>
				</g>
				<rect x="388.448" y="215.944" style="fill:#948478;" width="5.913" height="80.411"/>
				<path style="fill:#D8DE3F;" d="M427.176,235.527c0,9.814-4.786,18.618-12.347,24.598c-6.31,4.98-14.541,7.999-23.569,7.999
					c-19.841,0-35.926-14.59-35.926-32.596c0-10.348,5.329-19.55,13.619-25.52c-0.767-2.271-1.204-4.688-1.204-7.222
					c0-8.202,4.378-15.386,10.921-19.356c3.417-2.058,7.416-3.252,11.697-3.252c12.493,0,22.617,10.124,22.617,22.608
					c0,2.165-0.32,4.252-0.883,6.232C421.216,214.929,427.176,224.587,427.176,235.527z"/>
				<polygon style="fill:#FFA45E;" points="345.877,325.69 672.66,325.652 665.232,311.13 354.155,310.908 				"/>
				<polygon style="fill:#EFA189;" points="427.934,146.775 525.27,81.15 610.376,136.713 610.376,130.025 519.701,69.239 
					427.925,130.025 				"/>
			</g>
			<g>
				<path style="opacity:0.56;fill:#6697D1;" d="M640.077,160.274l0.766,35.732c0,0,25.608-5.472,42.681-5.034
					c17.072,0.438,34.364,9.412,48.372,5.034v-38.358c0,0-23.639,2.9-40.93-1.258C673.468,152.18,655.836,148.673,640.077,160.274z"
					/>
				<path style="fill:#A3A028;" d="M636.841,155.097l0.766,35.731c0,0,25.609-5.472,42.681-5.034
					c17.072,0.438,34.364,9.412,48.372,5.034V152.47c0,0-23.639,2.9-40.93-1.258C670.232,147.003,652.6,143.496,636.841,155.097z"/>
				<path style="fill:#D8DE3F;" d="M633.23,150.172l0.766,34.09c0,0,25.608-5.472,42.681-5.034
					c17.072,0.438,34.364,9.412,48.372,5.034v-38.358c0,0-23.639,4.542-40.93,0.383C666.62,142.078,648.989,138.572,633.23,150.172z
					"/>
				<path style="fill:#C4C42D;" d="M637.112,152.177l0.67,27.607c0,0,22.405-4.431,37.342-4.077
					c14.937,0.355,34.057,9.254,46.313,5.709l-0.328-31.628c0,0-24.345,2.61-39.473-0.758
					C666.326,145.623,650.9,142.783,637.112,152.177z"/>
				<ellipse style="fill:#A3A028;" cx="679.632" cy="162.374" rx="10.67" ry="10.506"/>
				
					<text transform="matrix(1 0 0 1 647.8949 168.938)" style="fill:#FFFFFF; font-family:'FredokaOne-Regular'; font-size:23.341px;">$</text>
				
					<text transform="matrix(1 0 0 1 700.4613 172.75)" style="fill:#FFFFFF; font-family:'FredokaOne-Regular'; font-size:22.6889px;">$</text>
			</g>
			<g>
				<path style="fill:#C4C42D;" d="M631.242,415.997h-85.303c-6.956,0-12.595-5.639-12.595-12.595v-49.808
					c0-6.956,5.639-12.595,12.595-12.595h85.303c6.956,0,12.595,5.639,12.595,12.595v49.808
					C643.837,410.358,638.198,415.997,631.242,415.997z"/>
				<text transform="matrix(1 0 0 1 548.8021 371.9126)"><tspan x="0" y="0" style="fill:#FFFFFF; font-family:'FredokaOne-Regular'; font-size:20.6102px;">A GOOD </tspan><tspan x="0" y="24.732" style="fill:#FFFFFF; font-family:'FredokaOne-Regular'; font-size:20.6102px;">DEAL</tspan></text>
			</g>
			<g>
				<path style="opacity:0.56;fill:#6697D1;" d="M442.737,89.897h-58.172c-4.744,0-8.589-3.846-8.589-8.589V47.341
					c0-4.744,3.845-8.589,8.589-8.589h58.172c4.744,0,8.589,3.846,8.589,8.589v33.966C451.327,86.052,447.481,89.897,442.737,89.897
					z"/>
				
					<text transform="matrix(1 0 0 1 385.6918 69.5)" style="fill:#FFFFFF; font-family:'FredokaOne-Regular'; font-size:21.3951px;">SALE</text>
			</g>
			<g>
				<polygon style="fill:#FF9D41;" points="314.835,229.974 304.442,256.798 307.331,264.282 311.368,266.085 312.948,262.323 
					310.207,259.001 313.826,259.61 315.914,255.319 313.057,252.476 316.95,252.313 324.604,233.421 				"/>
				<path style="fill:#FF9D41;" d="M317.424,208.72c-7.134,3.752-9.905,12.521-6.189,19.587c3.716,7.066,12.512,9.753,19.646,6.001
					c7.134-3.752,9.905-12.521,6.189-19.587C333.354,207.655,324.559,204.968,317.424,208.72z M327.676,219.354
					c-2.061,1.084-4.602,0.307-5.675-1.734c-1.073-2.041-0.273-4.575,1.788-5.659c2.061-1.084,4.602-0.308,5.675,1.734
					C330.537,215.737,329.737,218.27,327.676,219.354z"/>
				<polygon style="fill:#FFEFAD;" points="309.915,221.878 288.232,240.781 287.305,248.75 290.039,252.225 293.189,249.631 
					292.309,245.414 295.228,247.638 299.074,244.812 297.869,240.967 301.39,242.635 316.958,229.476 				"/>
				<path style="fill:#FFEFAD;" d="M336.666,217.909c-0.535,0.085-1.079,0.128-1.64,0.128c-1.946,0-3.764-0.518-5.31-1.419
					c-0.765,1.113-2.039,1.835-3.492,1.835c-2.328,0-4.214-1.869-4.214-4.172c0-1.911,1.291-3.517,3.05-4.018
					c0.272-0.076,0.544-0.127,0.832-0.145c0.111-0.008,0.221-0.017,0.331-0.017c2.328,0,4.214,1.869,4.214,4.18
					c0,0.561-0.111,1.105-0.314,1.589c1.427,0.833,3.11,1.317,4.902,1.317c0.535,0,1.054-0.042,1.563-0.128
					c-0.654-5.718-4.69-10.424-10.084-12.115c-0.272-0.085-0.552-0.17-0.833-0.238c-1.138-0.28-2.336-0.433-3.568-0.433
					c-8.063,0-14.596,6.474-14.596,14.451c0,7.986,6.533,14.46,14.596,14.46c8.054,0,14.587-6.474,14.587-14.46
					C336.692,218.453,336.683,218.181,336.666,217.909z"/>
				<g>
					<path style="fill:#FFFFFF;" d="M335.027,198.845c-4.197,0-7.808,2.421-9.354,5.862c-0.51,1.147-0.799,2.413-0.799,3.738
						c0,0.62,0.06,1.232,0.187,1.818c0.544,2.685,2.277,4.97,4.656,6.355c0.161-0.229,0.297-0.484,0.408-0.748
						c-2.158-1.257-3.73-3.33-4.231-5.752c-0.11-0.544-0.17-1.104-0.17-1.674c0-1.249,0.28-2.43,0.782-3.5
						c1.436-3.092,4.715-5.25,8.521-5.25c5.132,0,9.303,3.925,9.303,8.751c0,4.316-3.356,7.918-7.74,8.615
						c0.043,0.28,0.06,0.561,0.077,0.85c4.826-0.739,8.513-4.698,8.513-9.464C345.179,203.152,340.625,198.845,335.027,198.845z"/>
					<path style="fill:#FFEFAD;" d="M336.666,217.909c-0.535,0.085-1.079,0.128-1.64,0.128c-1.946,0-3.764-0.518-5.31-1.419
						c0.161-0.229,0.297-0.484,0.408-0.748c1.427,0.833,3.11,1.317,4.902,1.317c0.535,0,1.054-0.042,1.563-0.128
						C336.632,217.34,336.649,217.621,336.666,217.909z"/>
				</g>
			</g>
			<g>
				<path style="fill:#FF6E61;" d="M702.11,220.836c-2.605-16.848-14.803-18.148-20.333-18.148c-5.53,0-17.728,1.3-20.333,18.148
					c-2.797,18.088,18.793,49.518,20.333,47.862C683.317,270.354,704.907,238.924,702.11,220.836z"/>
				<circle style="fill:#FFFFFF;" cx="682.14" cy="222.109" r="10.857"/>
				<ellipse style="fill:#FFFFFF;" cx="681.97" cy="276.308" rx="15.098" ry="4.58"/>
			</g>
			<g>
				<rect x="290.415" y="85.254" style="fill:#FFE4CE;" width="76.883" height="96.669"/>
				<polygon style="fill:#FF6E61;" points="311.709,103.156 303.229,98.445 294.749,103.156 294.749,82.427 311.709,82.427 				"/>
				<rect x="346.24" y="166.471" style="fill:#FFFFFF;" width="14.557" height="9.422"/>
				<path style="fill:#FFCA9D;" d="M357.782,109.939h-58.228c-0.572,0-1.036-0.464-1.036-1.036l0,0c0-0.572,0.464-1.036,1.036-1.036
					h58.228c0.572,0,1.036,0.464,1.036,1.036l0,0C358.819,109.475,358.355,109.939,357.782,109.939z"/>
				<path style="fill:#FFCA9D;" d="M357.782,115.31h-58.228c-0.572,0-1.036-0.464-1.036-1.036l0,0c0-0.572,0.464-1.036,1.036-1.036
					h58.228c0.572,0,1.036,0.464,1.036,1.036l0,0C358.819,114.846,358.355,115.31,357.782,115.31z"/>
				<path style="fill:#FFCA9D;" d="M357.782,120.68h-58.228c-0.572,0-1.036-0.464-1.036-1.036l0,0c0-0.572,0.464-1.036,1.036-1.036
					h58.228c0.572,0,1.036,0.464,1.036,1.036l0,0C358.819,120.216,358.355,120.68,357.782,120.68z"/>
				<path style="fill:#FFCA9D;" d="M357.782,126.051h-58.228c-0.572,0-1.036-0.464-1.036-1.036l0,0c0-0.572,0.464-1.036,1.036-1.036
					h58.228c0.572,0,1.036,0.464,1.036,1.036l0,0C358.819,125.587,358.355,126.051,357.782,126.051z"/>
				<path style="fill:#FFCA9D;" d="M357.782,131.421h-58.228c-0.572,0-1.036-0.464-1.036-1.036l0,0c0-0.572,0.464-1.036,1.036-1.036
					h58.228c0.572,0,1.036,0.464,1.036,1.036l0,0C358.819,130.957,358.355,131.421,357.782,131.421z"/>
				<path style="fill:#FFCA9D;" d="M357.782,136.792h-58.228c-0.572,0-1.036-0.464-1.036-1.036l0,0c0-0.572,0.464-1.036,1.036-1.036
					h58.228c0.572,0,1.036,0.464,1.036,1.036l0,0C358.819,136.328,358.355,136.792,357.782,136.792z"/>
				<path style="fill:#FFCA9D;" d="M357.782,142.162h-58.228c-0.572,0-1.036-0.464-1.036-1.036l0,0c0-0.572,0.464-1.036,1.036-1.036
					h58.228c0.572,0,1.036,0.464,1.036,1.036l0,0C358.819,141.698,358.355,142.162,357.782,142.162z"/>
				<path style="fill:#FFCA9D;" d="M357.782,147.533h-58.228c-0.572,0-1.036-0.464-1.036-1.036l0,0c0-0.572,0.464-1.036,1.036-1.036
					h58.228c0.572,0,1.036,0.464,1.036,1.036l0,0C358.819,147.069,358.355,147.533,357.782,147.533z"/>
			</g>
			<path style="fill:#C4C42D;" d="M414.828,260.125c-6.31,4.98-14.541,7.999-23.569,7.999c-19.841,0-35.926-14.59-35.926-32.596
				c0-10.348,5.329-19.55,13.619-25.52c-0.767-2.271-1.204-4.688-1.204-7.222c0-8.202,4.378-15.386,10.921-19.356
				c-0.185,8.639,1.883,22.763,16.25,28.316c0,0-17.715,3.155-17.958,19.657C376.757,245.38,395.181,263.358,414.828,260.125z"/>
		</g>
		<g>
			<g>
				<path style="fill:#E97700;" d="M419.035,371.212c0.003-0.054,0.022-0.106,0.022-0.161c0-0.054-0.019-0.107-0.022-0.161v-7.046
					H406.72c-2.708-0.469-5.714-0.738-8.895-0.738c-3.18,0-6.186,0.269-8.895,0.738h-12.336v7.381h0.023
					c0.249,4.307,9.639,7.772,21.207,7.772c11.569,0,20.958-3.465,21.207-7.772h0.002V371.212z"/>
				<ellipse style="fill:#FF9D41;" cx="397.826" cy="364.235" rx="21.231" ry="7.945"/>
				<ellipse style="fill:#FFEFAD;" cx="397.695" cy="363.714" rx="14.618" ry="5.47"/>
			</g>
			<g>
				<path style="fill:#E97700;" d="M429.455,358.534c0.003-0.054,0.022-0.106,0.022-0.161c0-0.054-0.019-0.107-0.022-0.161v-7.046
					H417.14c-2.708-0.469-5.714-0.738-8.895-0.738c-3.18,0-6.186,0.269-8.895,0.738h-12.336v7.381h0.023
					c0.249,4.307,9.639,7.772,21.207,7.772c11.569,0,20.958-3.465,21.208-7.772h0.002V358.534z"/>
				<ellipse style="fill:#FF9D41;" cx="408.246" cy="351.557" rx="21.231" ry="7.945"/>
				<ellipse style="fill:#FFEFAD;" cx="408.115" cy="351.036" rx="14.618" ry="5.47"/>
			</g>
			<g>
				<ellipse style="fill:#E97700;" cx="441.611" cy="362.064" rx="18.908" ry="18.713"/>
				<ellipse style="fill:#FF9D41;" cx="444.868" cy="362.086" rx="17.215" ry="18.3"/>
				<ellipse style="fill:#FFEFAD;" cx="445.693" cy="362.043" rx="11.497" ry="12.222"/>
			</g>
			<g>
				<path style="fill:#E97700;" d="M451.945,389.187c0.003-0.054,0.022-0.107,0.022-0.161c0-0.054-0.019-0.107-0.022-0.161v-7.046
					H439.63c-2.708-0.469-5.714-0.738-8.895-0.738c-3.18,0-6.186,0.269-8.895,0.738h-12.336v7.381h0.023
					c0.249,4.307,9.639,7.772,21.207,7.772c11.569,0,20.958-3.465,21.208-7.772h0.002V389.187z"/>
				<ellipse style="fill:#FF9D41;" cx="430.735" cy="382.21" rx="21.231" ry="7.945"/>
				<ellipse style="fill:#FFEFAD;" cx="430.605" cy="381.689" rx="14.618" ry="5.47"/>
			</g>
		</g>
	</g>
	<g>
		<path style="fill:#C7ECFF;" d="M328.013,262.392l-51.222,41.84c-6.007-22.49-31.083-109.652-58.461-107.773
			c-21.843,1.499-1.57,85.614-1.57,85.614l30.183,46.54l-1.347,1.1c0,0,16.175,25.264,32.967,22.183
			c20.446-3.752,72.249-67.32,72.249-67.32L328.013,262.392z"/>
		<path style="fill:#A7DBFF;" d="M147.594,175.466l-54.468,27.771c0,0,1.953,84.879,22.288,120.927l4.439,65.781l120.353-0.616
			c0,0,5.702-164.291-11.708-190.406c-0.616-0.924-35.74-22.799-35.74-22.799L147.594,175.466z"/>
		<path style="fill:#FFC197;" d="M193.528,193.544c0,0-35.374-9.202-39.888-19.589l0.204-33.169l0.029-5.358
			c1,0.146,38.052,30.995,38.052,30.995c-0.301,2.456-0.369,5.213-0.291,7.989C191.867,183.497,193.528,193.544,193.528,193.544z"/>
		<path style="fill:#FF966F;" d="M191.634,174.411c-3.961,0.087-8.358-0.437-12.289-1.903c-13.93-5.174-24.394-17.783-25.501-31.723
			c-0.155-1.767-0.146-3.563,0.029-5.358c0,0,11.979,28.141,38.052,30.995C191.624,168.878,191.556,171.635,191.634,174.411z"/>
		<path style="fill:#FFC197;" d="M144.454,109.763c3.193-0.677,5.578-0.143,7.31,0.78c-0.05-9.81,0.602-17.37,0.602-17.37
			s47.218-26.289,67.892,1.787c0,0,0.51,28.331-2.297,41.603c-2.808,13.272-6.891,24.502-16.59,28.586
			c-9.699,4.084-32.159-1.021-42.368-15.824c-2.39-3.466-4.025-8.388-5.127-13.893c-0.65,0.333-1.398,0.555-2.274,0.621
			C141.391,136.818,136.032,111.55,144.454,109.763z"/>
		<path style="fill:#00334F;" d="M170.36,88.133c0,0,0.191,15.697-8.806,23.928v10.911c0,0-9.627,1.177-9.791-12.428
			c0,0-6.097-2.311-10.117,1.326c0,0-8.997-18.951-2.297-28.905c0,0-4.403-17.037,21.631-22.205
			c26.034-5.168,51.11,6.125,62.596,2.489c0,0-0.191,4.977-3.446,6.508c0,0,4.211,1.149,7.466,0.574c0,0,2.488,6.7-2.489,10.72
			c0,0,5.169,12.634-4.786,26.799c0,0-0.574-13.974-2.68-15.697C217.642,92.152,185.674,97.895,170.36,88.133z"/>
		<path style="fill:#00334F;" d="M190.342,108.85c0,0-3.012-2.039-8.024-2.709c-5.012-0.669-7.957,2.017-7.957,2.017
			s0.612-3.434,5.316-5.139C183.295,101.709,189.387,103.25,190.342,108.85z"/>
		<path style="fill:#00334F;" d="M178.4,115.825c0,2.361,1.545,4.275,3.451,4.275c1.906,0,3.451-1.914,3.451-4.275
			s-1.545-4.275-3.451-4.275C179.945,111.55,178.4,113.464,178.4,115.825z"/>
		<path style="fill:#00334F;" d="M204.367,115.825c0,2.361,1.451,4.275,3.241,4.275c1.79,0,3.241-1.914,3.241-4.275
			s-1.451-4.275-3.241-4.275C205.818,111.55,204.367,113.464,204.367,115.825z"/>
		<path style="fill:#00334F;" d="M216.399,108.011c0,0-1.914-1.914-6.126-1.914c-4.211,0-6.381,3.063-6.381,3.063
			s1.013-5.972,5.864-5.972C214.61,103.187,216.399,108.011,216.399,108.011z"/>
		<path style="fill:#FF966F;" d="M200.478,121.377c0,0,0.128,6.891,3.573,8.423c3.446,1.531,0.51,6.381-2.425,6.891
			c0,0,1.255-3.249,0.769-4.705c-0.485-1.456-2.103-1.213-2.508-4.53C199.483,124.138,200.478,121.377,200.478,121.377z"/>
		<path style="fill:#0079BB;" d="M179.102,199.653l9.67,13.633c0,0,4.597-2.219,9.512-1.585c0,0,1.902-9.353,0.317-14.584
			l-7.49-5.063L179.102,199.653z"/>
		<path style="fill:#C7ECFF;" d="M144.027,241.017c0,0,17.359,0.713,31.626-1.427c0,0,5.945,40.662-11.889,45.893
			c0,0-14.03,2.14-17.834-11.652C141.27,256.942,144.027,241.017,144.027,241.017z"/>
		<path style="fill:#0079BB;" d="M188.32,213.098c0,0-2.378,89.884-2.378,91.787c0,1.902,12.999,17.596,16.804,18.389
			s8.085-17.279,8.719-20.133c0.634-2.853-10.146-82.592-12.999-91.47C198.465,211.671,189.746,211.354,188.32,213.098z"/>
		<path style="fill:#FFFFFF;" d="M202.392,141.54c0,0-9.987-0.353-18.76-0.893c0,0,3.573,6.636,9.061,7.657
			S202.392,141.54,202.392,141.54z"/>
		<path style="fill:#FF966F;" d="M144.965,112.699c0,0,5.36,4.466,4.977,9.188c0,0-1.659,1.021-1.276,3.956
			c0.383,2.935,1.914,4.339,1.914,4.339s-7.832-0.686-6.126-5.232c0.255-0.68,2.024-2.085,2.024-2.085
			S144.118,114.727,144.965,112.699z"/>
		<path style="fill:#C7ECFF;" d="M153.898,166.234c4.307,6.987,36.562,26.416,36.562,26.416s-8.104,4.148-19.972,13.591
			c-7.318,5.823-22.971-31.138-22.971-31.138S153.885,166.213,153.898,166.234z"/>
		<path style="fill:#C7ECFF;" d="M190.312,192.695c0,0,16.443,10.777,17.5,8.946c0.831-1.439-3.866-16.721-10.51-23.365
			c-0.151-0.151-5.746-4.839-5.746-4.839S192.992,187.909,190.312,192.695z"/>
		<polygon style="fill:#FFA45E;" points="238.076,268.718 242.361,379.772 163.802,386.556 157.018,273.717 		"/>
		<polygon style="fill:#FFDEC8;" points="188.29,277.951 166.107,279.337 172.577,381.01 237.278,374.309 232.887,275.178 		"/>
		<path style="fill:#C7ECFF;" d="M197.995,328.325l-77.035,6.597l7.712-100.259c0,0-8.935-33.275-35.894-31.426
			c0,0-8.473,0-10.938,33.275c0,0-20.486,115.71,8.683,136.635c17.595,12.622,114.557-10.622,114.557-10.622L197.995,328.325z"/>
		<path style="fill:#929496;" d="M182.166,271.828c0,0,1.04,7.741,2.311,8.781c1.271,1.04,35.123-1.617,36.163-1.964
			c0.682-0.227,1.066-4.78,1.249-7.885c0.09-1.533-1.158-2.806-2.692-2.742c-9.079,0.38-36.967,1.576-38.417,1.962
			c-1.733,0.462-1.733,2.426-1.733,2.426L182.166,271.828z"/>
		<path style="fill:#929496;" d="M188.521,269.401c0,0,0.347-3.466,3.466-5.777c3.119-2.311,17.446-2.888,19.988-1.271
			c2.542,1.618,2.773,6.124,2.773,6.124h-2.311c0,0-1.386-3.697-3.119-3.928c-1.733-0.231-11.669-0.578-14.904,1.387
			c-3.235,1.964-2.773,3.697-2.773,3.697L188.521,269.401z"/>
		<path style="fill:#FFC197;" d="M247.907,329.25c2.311-3.004,2.311-8.319-0.924-9.705c-3.235-1.386-15.713,2.311-15.713,2.311
			s-0.805-0.255-2.056-0.617c1.286-0.902,3.133-1.79,5.599-2.002c5.392-0.462,6.932-4.621,6.316-5.7
			c-0.616-1.078-1.078-1.232-11.4,0.77c-10.321,2.003-12.377,2.811-14.866,4.66c-6.066,4.506-9.07,10.803-9.07,10.803l-6.958,2.829
			l4.045,30.395l7.13-1.162c0,0,31.426-2.311,33.737-3.928c2.311-1.618,2.773-6.701,2.773-6.701
			c3.928-7.163,1.386-10.629,1.386-10.629C251.373,334.564,247.907,329.25,247.907,329.25z"/>
		<path style="fill:#FFC197;" d="M398.449,252.403c-2.547-1.611-10.555,2.154-14.135,3.988c0.989-0.735,3.291-2.469,4.254-3.405
			c1.243-1.207,15.203-6.351,7.846-7.441c-6.596-0.977-15.744,5.733-17.569,7.134l-0.009-0.007c2.284-1.85,9.003-6.558,10.594-7.193
			c1.671-0.667,8.727-5.5-0.32-4.698c-2.632,0.233-5.136,1.085-7.366,2.174l0.672-0.489c0,0,5.045-3.346-1.147-2.83
			c-6.192,0.516-15.425,8.288-15.425,8.288l0.246,0.064l-14.122,1.856c0,0-2.008-4.602-0.134-9.171
			c1.874-4.569-0.276-9.354-2.38-8.124c-2.104,1.231-6.405,10.918-8.987,14.179c-2.582,3.261-4.825,13.185-4.825,13.185
			l-5.153,4.977l18.14,17.685c0,0,5.764-7.189,15.109-9.07c5.349-1.077,16.549-8.093,20.086-10.324l0.012,0.055
			c0.077-0.072,0.162-0.145,0.244-0.217c1.545-0.986,2.767-1.874,3.559-2.478C393.27,257.197,401.068,254.059,398.449,252.403z"/>
		<polygon style="fill:#7F5E40;" points="120.051,389.945 119.594,405.322 242.602,405.322 240.726,389.316 		"/>
		<polygon style="fill:#0079BB;" points="127.797,389.386 127.203,405.484 136.079,405.484 136.714,389.629 		"/>
		<polygon style="fill:#BBBCBF;" points="192.155,389.386 192.274,405.524 218.785,405.281 218.429,389.508 		"/>
		<polygon style="fill:#0079BB;" points="161.878,389.508 161.046,405.646 170.913,405.524 171.865,389.629 		"/>
		<polygon style="fill:#0079BB;" points="229.723,389.75 230.674,405.646 238.045,405.524 236.975,389.265 		"/>
		<path style="fill:#0079BB;" d="M119.643,404.997c0,0-7.748,60.543-10.352,95.003h141.238l-8.681-94.678L119.643,404.997z"/>
		<path style="fill:#056793;" d="M185.678,500c0,0,6.041-47.924,7.626-51.159c1.585-3.236,21.241-10.678,21.241-10.678l-3.487,6.148
			c0,0-11.413,4.206-12.681,7.118C197.108,454.341,190.75,500,190.75,500H185.678z"/>
		<path style="fill:none;stroke:#056793;stroke-linejoin:round;stroke-miterlimit:10;" d="M121.635,434.442
			c0,0,18.071-8.413,21.875-11.325c3.804-2.912,3.804-12.943,3.804-12.943"/>
		<path style="fill:none;stroke:#9FDDFF;stroke-linejoin:round;stroke-miterlimit:10;" d="M120.211,337.694
			c0,0-5.339,10.678-16.017,16.745"/>
		<path style="fill:none;stroke:#9FDDFF;stroke-linejoin:round;stroke-miterlimit:10;" d="M117.056,336.966
			c0,0-8.008,5.824-15.046,7.523"/>
		<path style="fill:none;stroke:#9FDDFF;stroke-linejoin:round;stroke-miterlimit:10;" d="M276.252,307.441
			c0,0-1.618,12.619,1.294,20.708"/>
		<path style="fill:none;stroke:#9FDDFF;stroke-linejoin:round;stroke-miterlimit:10;" d="M273.987,306.47
			c0,0-4.854,5.177-5.501,17.796"/>
		<path style="fill:none;stroke:#9FDDFF;stroke-linejoin:round;stroke-miterlimit:10;" d="M85.346,233.667
			c0,0,16.178-1.618,28.798,4.53"/>
		<path style="fill:none;stroke:#FFA067;stroke-linecap:round;stroke-linejoin:round;stroke-miterlimit:10;" d="M380.361,244.142
			c0.221-0.195-4.976,1.674-8.344,5.703"/>
		<path style="fill:none;stroke:#FFA067;stroke-linecap:round;stroke-linejoin:round;stroke-miterlimit:10;" d="M367.256,248.51
			c0,0,9.343,1.577,16.502,8.251"/>
		<path style="fill:none;stroke:#FFA067;stroke-linecap:round;stroke-linejoin:round;stroke-miterlimit:10;" d="M350.875,251.665
			c0,0,0.364,6.31-2.548,10.314"/>
		<path style="fill:none;stroke:#FFA067;stroke-linecap:round;stroke-linejoin:round;stroke-miterlimit:10;" d="M361.796,262.465
			c0,0,10.192-3.64,14.318-4.368"/>
		<path style="fill:#FFA777;" d="M179.179,126.444c0,1.072-1.901,1.941-4.247,1.941c-2.345,0-4.247-0.869-4.247-1.941
			c0-1.072,1.901-1.941,4.247-1.941C177.278,124.503,179.179,125.372,179.179,126.444z"/>
		<path style="fill:#FFA777;" d="M217.644,126.444c0,1.072-1.901,1.941-4.247,1.941c-2.345,0-4.247-0.869-4.247-1.941
			c0-1.072,1.901-1.941,4.247-1.941C215.742,124.503,217.644,125.372,217.644,126.444z"/>
		<path style="fill:none;stroke:#9A97FF;stroke-linecap:round;stroke-linejoin:round;stroke-miterlimit:10;" d="M189.048,212.958
			c0,0,4.718-2.029,9.235-1.257"/>
		
			<line style="fill:none;stroke:#9A97FF;stroke-linecap:round;stroke-linejoin:round;stroke-miterlimit:10;" x1="190.828" y1="213.605" x2="190.99" y2="243.859"/>
		
			<line style="fill:none;stroke:#9A97FF;stroke-linecap:round;stroke-linejoin:round;stroke-miterlimit:10;" x1="191.151" y1="247.419" x2="191.151" y2="251.948"/>
		
			<line style="fill:none;stroke:#9FDDFF;stroke-linecap:round;stroke-linejoin:round;stroke-miterlimit:10;" x1="182.253" y1="334.944" x2="187.754" y2="365.683"/>
		<path style="fill:none;stroke:#9FDDFF;stroke-linejoin:round;stroke-miterlimit:10;" d="M192.769,337.452
			c0,1.474-1.195,2.669-2.67,2.669c-1.474,0-2.669-1.195-2.669-2.669s1.195-2.669,2.669-2.669
			C191.574,334.782,192.769,335.977,192.769,337.452z"/>
		
			<line style="fill:none;stroke:#9FDDFF;stroke-linecap:round;stroke-linejoin:round;stroke-miterlimit:10;" x1="322.359" y1="272.05" x2="341.045" y2="291.464"/>
		
			<line style="fill:none;stroke:#056793;stroke-linejoin:round;stroke-miterlimit:10;" x1="124.658" y1="407.909" x2="236.613" y2="407.909"/>
	</g>
</g>
</svg>
