<?xml version="1.0" encoding="utf-8"?>
<!-- Generator: Adobe Illustrator 27.5.0, SVG Export Plug-In . SVG Version: 6.00 Build 0)  -->
<svg version="1.1" xmlns="http://www.w3.org/2000/svg" xmlns:xlink="http://www.w3.org/1999/xlink" x="0px" y="0px"
	 viewBox="0 0 500 500" style="enable-background:new 0 0 500 500;" xml:space="preserve">
<g id="BACKGROUND">
	<rect x="0" y="0" style="fill:#FFFFFF;" width="500" height="500"/>
</g>
<g id="OBJECTS">
	<g>
		<g>
			<path style="fill:#FFF3E9;" d="M14.361,396.693l435.819-0.007c0,0,70.636-55.794,32.32-131.846
				c-30.643-60.823-121.775-21.365-164.49-71.973S285.51,77.258,188.936,78.187S86.791,172.903,92.363,220.261
				S-26.497,262.976,14.361,396.693z"/>
		</g>
		<g>
			<path style="fill:#F1BA82;" d="M246.874,397.024c0,1.467-1.189,2.656-2.656,2.656H110.659c-1.467,0-2.656-1.189-2.656-2.656l0,0
				c0-1.467,1.189-2.656,2.656-2.656h133.559C245.685,394.368,246.874,395.557,246.874,397.024L246.874,397.024z"/>
			<path style="fill:#F1BA82;" d="M432.736,399.68c0,1.467-0.791,2.656-1.764,2.656h-88.745c-0.975,0-1.764-1.189-1.764-2.656l0,0
				c0-1.467,0.79-2.656,1.764-2.656h88.745C431.946,397.024,432.736,398.213,432.736,399.68L432.736,399.68z"/>
			<path style="fill:#F1BA82;" d="M482.953,399.68c0,1.467-0.318,2.656-0.709,2.656h-35.659c-0.392,0-0.709-1.189-0.709-2.656l0,0
				c0-1.467,0.317-2.656,0.709-2.656h35.659C482.635,397.024,482.953,398.213,482.953,399.68L482.953,399.68z"/>
			<path style="fill:#F1BA82;" d="M84.605,397.403c0,1.467-0.579,2.656-1.292,2.656H18.339c-0.714,0-1.292-1.189-1.292-2.656l0,0
				c0-1.467,0.578-2.656,1.292-2.656h64.974C84.026,394.747,84.605,395.937,84.605,397.403L84.605,397.403z"/>
		</g>
	</g>
	<g>
		<g>
			<path style="fill:#F9D5D4;" d="M372.573,285.786H233.918V161.48c0-38.288,31.039-69.327,69.327-69.327h0
				c38.288,0,69.327,31.039,69.327,69.327V285.786z"/>
			<path style="fill:#F9E8E8;" d="M371.611,149.938c-2.516-15.012-9.854-28.389-20.37-38.482L233.918,229.504v56.282h42.084
				L371.611,149.938z"/>
			<g>
				<g>
					<path style="fill:#F1BA82;" d="M375.078,288.292H231.413V161.48c0-19.187,7.472-37.226,21.039-50.793
						c13.567-13.567,31.606-21.039,50.793-21.039c19.187,0,37.226,7.472,50.793,21.039c13.568,13.567,21.039,31.606,21.039,50.793
						V288.292z M236.424,283.281h133.643v-121.8c0-36.845-29.976-66.821-66.821-66.821s-66.822,29.976-66.822,66.821V283.281z"/>
				</g>
			</g>
		</g>
		<rect x="279.015" y="96.052" style="fill:#F1BA82;" width="2.506" height="189.734"/>
		<rect x="325.167" y="96.122" style="fill:#F1BA82;" width="2.506" height="189.664"/>
		<rect x="279.015" y="96.052" style="fill:#F1BA82;" width="2.506" height="189.734"/>
		<rect x="325.167" y="96.122" style="fill:#F1BA82;" width="2.506" height="189.664"/>
		<rect x="233.918" y="160.23" style="fill:#F1BA82;" width="138.654" height="2.506"/>
		<rect x="233.918" y="219.88" style="fill:#F1BA82;" width="138.654" height="2.506"/>
	</g>
	<g>
		<g>
			<g>
				<g>
					<path style="fill:#F1BA82;" d="M124.379,244.372h-53.12v-53.12h53.12V244.372z M74.294,241.337h47.049v-47.049H74.294V241.337z
						"/>
				</g>
			</g>
			<g>
				<path style="fill:#F9D5D4;" d="M121.343,194.932v-0.644H74.294v47.049h2.477C83.609,234.507,121.343,194.932,121.343,194.932z"
					/>
			</g>
			<g>
				<polygon style="fill:#F9E8E8;" points="121.343,194.932 76.772,241.337 121.343,241.337 				"/>
			</g>
		</g>
		<g>
			<g>
				<g>
					<path style="fill:#F1BA82;" d="M186.729,219.131h-53.12v-53.12h53.12V219.131z M136.644,216.095h47.049v-47.049h-47.049
						V216.095z"/>
				</g>
			</g>
			<g>
				<path style="fill:#F9D5D4;" d="M183.693,169.69v-0.644h-47.049v47.049h2.477C145.959,209.265,183.693,169.69,183.693,169.69z"/>
			</g>
			<g>
				<polygon style="fill:#F9E8E8;" points="183.693,169.69 139.121,216.095 183.693,216.095 				"/>
			</g>
		</g>
	</g>
	<g>
		<g>
			<g>
				<g>
					<path style="fill:#87976D;" d="M390.236,312.998c-0.168-0.174-0.371-0.312-0.63-0.254c-0.067,0.015-0.129,0.048-0.19,0.08
						c-0.413,0.224-0.813,0.472-1.171,0.778c-0.466,0.399-0.864,0.878-1.168,1.412c-0.538,0.943-0.862,2.129-1.825,2.631l1.484,4.41
						c1.589-0.504,2.825-1.979,3.044-3.631c0.084-0.639,0.027-1.284,0.056-1.925c0.025-0.548-0.022-1.16,0.277-1.648
						c0.252-0.412,0.577-0.508,0.992-0.698c0.029-0.013,0.061-0.031,0.067-0.062c0.005-0.027-0.012-0.054-0.029-0.076
						c-0.184-0.244-0.386-0.475-0.602-0.692C390.434,313.215,390.337,313.104,390.236,312.998z"/>
					<path style="fill:#C06C66;" d="M368.077,317.224c-0.542-0.38-1.13-0.687-1.745-0.909c-0.307-0.112-0.62-0.201-0.936-0.27
						c-0.168-0.039-0.326-0.076-0.44-0.084c-0.119-0.01-0.18,0.008-0.215,0.03l-0.029,0.022l-0.033,0.026l-0.042,0.036
						c-0.056,0.045-0.112,0.099-0.167,0.149c-0.11,0.106-0.219,0.218-0.323,0.337c-0.209,0.237-0.407,0.494-0.591,0.76
						c-0.185,0.266-0.356,0.543-0.511,0.824c-0.077,0.141-0.151,0.282-0.219,0.424c-0.068,0.141-0.126,0.276-0.182,0.42
						c-0.219,0.57-0.363,1.189-0.381,1.749c-0.01,0.278,0.02,0.541,0.083,0.726c0.03,0.093,0.07,0.161,0.105,0.201l0.025,0.025
						l0.022,0.018l0.019,0.016l0.028,0.023l0.059,0.045c0.081,0.058,0.171,0.109,0.27,0.154c0.05,0.022,0.099,0.042,0.155,0.062
						c0.071,0.025,0.141,0.052,0.213,0.075c0.286,0.095,0.577,0.174,0.871,0.232c0.588,0.117,1.187,0.158,1.774,0.124
						c0.679-0.039,1.26,0.479,1.299,1.157c0.039,0.678-0.479,1.26-1.157,1.299c-0.044,0.002-0.087,0.003-0.129,0.001l-0.018-0.001
						c-0.799-0.038-1.586-0.178-2.339-0.414c-0.377-0.117-0.744-0.26-1.101-0.423c-0.09-0.04-0.177-0.085-0.266-0.127
						c-0.102-0.05-0.209-0.107-0.31-0.169c-0.204-0.124-0.402-0.269-0.583-0.438c-0.045-0.042-0.09-0.086-0.133-0.13l-0.064-0.068
						l-0.031-0.035l-0.038-0.045c-0.05-0.06-0.1-0.121-0.141-0.184c-0.045-0.063-0.083-0.126-0.118-0.191
						c-0.143-0.258-0.227-0.519-0.276-0.763c-0.095-0.491-0.075-0.93-0.019-1.342c0.12-0.82,0.383-1.546,0.733-2.239
						c0.088-0.171,0.186-0.346,0.288-0.507c0.101-0.161,0.206-0.317,0.314-0.469c0.217-0.304,0.446-0.594,0.691-0.872
						c0.245-0.278,0.504-0.545,0.785-0.798c0.14-0.127,0.288-0.248,0.443-0.366c0.08-0.057,0.157-0.116,0.243-0.17l0.063-0.041
						c0.021-0.014,0.039-0.026,0.075-0.047c0.062-0.039,0.13-0.072,0.199-0.101c0.14-0.058,0.29-0.088,0.428-0.096
						c0.139-0.008,0.266,0.003,0.379,0.022c0.229,0.04,0.405,0.099,0.572,0.152c0.352,0.116,0.695,0.254,1.025,0.416
						c0.662,0.32,1.276,0.728,1.824,1.205c0.15,0.131,0.166,0.358,0.036,0.508c-0.122,0.14-0.328,0.164-0.477,0.06L368.077,317.224z
						"/>
					<path style="fill:#C06C66;" d="M387.502,324.44c-0.062,0.222-0.133,0.441-0.211,0.658c-0.447,1.231-1.149,2.38-2.04,3.302
						c-0.215,0.222-0.441,0.431-0.676,0.625c-0.26,0.215-0.532,0.411-0.815,0.585c-2.772,1.709-6.401,2.18-9.592,1.89
						c-3.291-0.298-7.044-1.686-9.122-4.389c-1.213-1.577-1.455-3.72-1.02-5.656c0.066-0.295,0.148-0.585,0.245-0.867
						c0.089-0.262,0.191-0.517,0.305-0.764c0.767-1.664,1.912-2.967,3.293-3.942c4.34-3.064,11.009-2.877,15.595-0.439
						c0.992,0.528,1.896,1.215,2.62,2.046c0.217,0.248,0.418,0.508,0.599,0.78c0.495,0.74,0.853,1.57,1.027,2.48
						c0.021,0.1,0.037,0.202,0.052,0.305c0.032,0.218,0.053,0.438,0.063,0.66C387.871,322.616,387.756,323.543,387.502,324.44z"/>
					<path style="fill:#A34F4D;" d="M387.824,321.714c-0.01-0.222-0.031-0.441-0.063-0.66c-0.015-0.103-0.032-0.204-0.052-0.305
						c-0.174-0.91-0.532-1.74-1.027-2.48c-0.181-0.272-0.382-0.532-0.599-0.78c-0.724-0.83-1.627-1.518-2.62-2.046
						c-4.046-2.151-9.713-2.548-13.972-0.508c2.679,1.694,6.074,2.209,9.172,2.029c0.826-0.048,1.648-0.142,2.45-0.238
						c0.776-0.092,1.556,0.032,2.125,0.611c0.871,0.886,0.82,2.311,0.719,3.462c-0.238,2.712-1.643,5.097-3.974,6.534
						c-2.749,1.695-6.194,1.691-9.245,0.951c-1.395-0.338-2.778-0.824-4.087-1.412c-0.951-0.427-1.925-1.001-2.597-1.82
						c0.195,0.741,0.519,1.443,0.992,2.058c2.078,2.703,5.831,4.091,9.122,4.389c3.191,0.29,6.821-0.181,9.592-1.89
						c0.283-0.174,0.555-0.37,0.815-0.585c0.235-0.194,0.461-0.403,0.676-0.625c0.891-0.922,1.592-2.071,2.04-3.302
						c0.078-0.217,0.15-0.436,0.211-0.658C387.756,323.543,387.871,322.616,387.824,321.714z"/>
					<path style="fill:#87976D;" d="M373.938,316.405c3.188,0.245,6.377,0.087,9.486-0.665c0.12-0.029,0.25-0.066,0.317-0.166
						c0.105-0.155-0.001-0.365-0.13-0.503c-1.778-1.889-4.89-2.748-7.457-2.812c-2.488-0.062-5.099,0.625-7.148,2.014
						c-1.376,0.933-0.529,1.324,0.73,1.556C371.126,316.085,372.529,316.296,373.938,316.405z"/>
					<path style="fill:#87976D;" d="M374.47,311.281c-0.051-0.123-0.099-0.26-0.057-0.386c0.029-0.085,0.096-0.153,0.167-0.207
						c0.352-0.267,0.827-0.287,1.268-0.275c0.273,0.007,0.545,0.022,0.817,0.045c0.149,0.012,0.307,0.031,0.423,0.124
						c0.123,0.098,0.176,0.263,0.173,0.42c-0.003,0.157-0.054,0.308-0.107,0.455c-0.076,0.209-0.158,0.416-0.246,0.621
						c-0.076,0.177-0.167,0.364-0.335,0.459c-0.111,0.063-0.241,0.076-0.368,0.083c-0.357,0.018-0.903,0.057-1.158-0.224
						C374.794,312.115,374.614,311.627,374.47,311.281z"/>
				</g>
				<g>
					<g>
						<path style="fill:#FDBB21;" d="M373.984,320.322c-0.001,0.002,0.002,0.007,0.01,0.013
							C373.988,320.326,373.985,320.321,373.984,320.322z"/>
						<path style="fill:#FDBB21;" d="M380.331,322.606c0,0-0.209,0.048-0.26-0.193s0.452-0.756,0.452-0.756
							s-0.469,0.185-0.804,0.193c-0.335,0.008-0.234-0.225-0.234-0.225s-0.553,0.346-0.72,0.338c-0.167-0.008-0.159-0.29-0.159-0.29
							s-1.231,0.917-1.373,0.627c-0.134-0.273,0.679-1.809,0.777-1.965c-0.051,0.045-0.294,0.175-0.543,0.083
							c-0.285-0.105-0.234-0.82-0.234-0.82s-0.251,0.193-0.444,0.056s-0.126-0.989-0.126-0.989s-0.147,0.163-0.335,0.064
							c-0.26-0.137-0.327-1.134-0.327-1.134s-0.067,0.997-0.327,1.134c-0.188,0.099-0.335-0.064-0.335-0.064
							s0.067,0.853-0.126,0.989s-0.444-0.056-0.444-0.056s0.05,0.716-0.234,0.82c-0.249,0.091-0.492-0.039-0.543-0.083
							c0.098,0.157,0.912,1.692,0.777,1.965c-0.142,0.29-1.373-0.627-1.373-0.627s0.008,0.281-0.159,0.29
							c-0.167,0.008-0.72-0.338-0.72-0.338s0.1,0.233-0.234,0.225c-0.335-0.008-0.804-0.193-0.804-0.193s0.502,0.515,0.452,0.756
							s-0.26,0.193-0.26,0.193s0.586,0.161,0.62,0.515c0.034,0.354-0.251,0.523-0.251,0.523s1.314,0.402,1.465,0.772
							c0.151,0.37-0.117,0.7-0.394,0.861c-0.276,0.161-1.105,0.627-1.105,0.627s1.407-0.048,1.49,0.145
							c0.084,0.193-0.1,0.475-0.1,0.475s0.77-0.354,0.988-0.29c0.218,0.064,0.042,0.434,0.042,0.434
							c0.971-0.193,1.574-0.627,1.574-0.627s0.603,0.434,1.574,0.627c0,0-0.176-0.37,0.042-0.434c0.218-0.064,0.988,0.29,0.988,0.29
							s-0.184-0.281-0.1-0.475c0.084-0.193,1.49-0.145,1.49-0.145s-0.829-0.466-1.105-0.627c-0.276-0.161-0.544-0.491-0.394-0.861
							c0.151-0.37,1.465-0.772,1.465-0.772s-0.285-0.169-0.251-0.523C379.745,322.767,380.331,322.606,380.331,322.606z"/>
						<path style="fill:#FDBB21;" d="M377.951,320.405l0.048-0.076c0.008-0.013,0.012-0.019,0.021-0.019h0.008l0.004,0.007
							c0.006,0.012-0.007,0.024-0.013,0.029L377.951,320.405z"/>
					</g>
					<g>
						<path style="fill:#63704A;" d="M377.921,329.119c-0.007,0-0.015-0.001-0.022-0.003c-1.123-0.352-1.624-1.186-1.846-1.824
							c-0.239-0.688-0.215-1.284-0.214-1.309l0.039-5.348c0-0.041,0.033-0.073,0.074-0.073c0,0,0,0,0.001,0
							c0.041,0,0.074,0.034,0.073,0.074l-0.039,5.351c0,0.009-0.024,0.6,0.207,1.261c0.307,0.879,0.896,1.46,1.749,1.727
							c0.039,0.012,0.061,0.054,0.048,0.093C377.982,329.099,377.952,329.119,377.921,329.119z"/>
					</g>
					<g>
						<path style="fill:#63704A;" d="M375.921,325.018c-0.024,0-0.048-0.012-0.062-0.034c-0.63-0.989-2.49-2.161-2.508-2.173
							c-0.035-0.022-0.045-0.067-0.023-0.102c0.022-0.035,0.067-0.045,0.102-0.023c0.005,0.003,0.48,0.302,1.029,0.721
							c0.74,0.565,1.253,1.069,1.526,1.498c0.022,0.034,0.012,0.08-0.023,0.102C375.948,325.014,375.934,325.018,375.921,325.018z"
							/>
					</g>
					<g>
						<path style="fill:#63704A;" d="M375.921,325.018c-0.014,0-0.027-0.004-0.04-0.012c-0.034-0.022-0.045-0.068-0.023-0.102
							c0.273-0.428,0.783-0.932,1.517-1.497c0.544-0.419,1.016-0.718,1.021-0.721c0.034-0.022,0.08-0.011,0.102,0.023
							s0.012,0.08-0.023,0.102c-0.019,0.012-1.862,1.184-2.492,2.173C375.969,325.006,375.945,325.018,375.921,325.018z"/>
					</g>
					<g>
						<path style="fill:#63704A;" d="M373.555,325.602c-0.03,0-0.058-0.018-0.069-0.048c-0.015-0.038,0.005-0.081,0.043-0.095
							c0.989-0.378,2.324-0.429,2.38-0.431c0.04-0.002,0.075,0.03,0.076,0.071c0.001,0.041-0.03,0.075-0.071,0.076
							c-0.014,0-1.367,0.052-2.333,0.421C373.573,325.6,373.564,325.602,373.555,325.602z"/>
					</g>
					<g>
						<path style="fill:#63704A;" d="M378.277,325.602c-0.009,0-0.018-0.002-0.026-0.005c-0.967-0.369-2.319-0.421-2.333-0.421
							c-0.041-0.001-0.073-0.036-0.071-0.076c0.001-0.041,0.036-0.073,0.076-0.071c0.056,0.002,1.391,0.053,2.38,0.431
							c0.038,0.015,0.057,0.057,0.043,0.095C378.335,325.584,378.307,325.602,378.277,325.602z"/>
					</g>
				</g>
			</g>
			<g>
				<rect x="353.654" y="328.929" style="fill:#87976D;" width="86.075" height="6.572"/>
				<g>
					<polygon style="fill:#F1BA82;" points="363.609,335.502 355.388,397.234 353.172,397.234 361.21,335.502 					"/>
				</g>
				<g>
					<polygon style="fill:#F1BA82;" points="430.639,335.502 438.86,397.234 441.076,397.234 433.038,335.502 					"/>
				</g>
				<g>
					<polygon style="fill:#F1BA82;" points="383.132,335.502 374.912,397.234 372.695,397.234 380.733,335.502 					"/>
				</g>
				<g>
					<polygon style="fill:#F1BA82;" points="411.116,335.502 419.336,397.234 421.553,397.234 413.515,335.502 					"/>
				</g>
			</g>
		</g>
		<path style="fill:#87976D;" d="M402.795,303.631c0,0-3.934-2.861-3.934-4.769s4.173,0.596,4.173,0.596s-2.742-4.292-1.908-5.246
			c0.835-0.954,2.265,0.596,2.265,0.596s0.715-3.934,2.265-4.411s2.504,5.484,2.504,5.484s1.311-2.027,2.146-1.073
			s-0.358,4.65-0.358,4.65s0.954-0.358,1.669,0c0,0-0.119-2.742,1.55-3.577c0,0,2.027,1.431,1.908,4.054c0,0,0.596-1.192,1.55-1.073
			c0,0-1.073-3.934,0.358-5.365c0,0,1.788,0.715,2.265,2.027c0,0,0.238-2.861,1.431-3.577s1.55,2.861,1.55,2.861
			s2.861-2.981,4.531-2.504c0,0,1.431,3.219-0.358,6.08c0,0,2.146-1.55,2.742-0.477c0.596,1.073-2.265,5.246-3.457,5.842
			S402.795,303.631,402.795,303.631z"/>
		<path style="fill:#728254;" d="M400.259,300.161c1.348,0.208,2.671,0.577,3.932,1.097c-0.122-0.283-0.163-0.601-0.118-0.906
			c0.288,0.055,0.576,0.11,0.864,0.166c-0.802-1.201-1.603-2.403-2.405-3.604c0.638-0.171,1.366,0.072,1.773,0.592
			c-0.403-1.343,0.082-2.907,1.174-3.786c1.196,1.306,1.402,3.211,1.55,4.976c0.32-0.862,0.952-1.604,1.751-2.059
			c0.397,1.653,0.306,3.419-0.259,5.022c0.264-0.517,0.919-0.737,1.493-0.653c0.574,0.084,1.081,0.41,1.547,0.755
			c-0.308-0.519,0.403-1.254,0.932-0.962c-0.256-0.563-0.264-1.233-0.021-1.801c0.086-0.202,0.272-0.421,0.482-0.357
			c0.147,0.044,0.219,0.206,0.27,0.351c0.236,0.674,0.4,1.372,0.489,2.081c0.201-0.614,1.284-0.579,1.445,0.047
			c0.718-0.921,2.252-1.042,3.105-0.244c-0.195-0.394-0.336-0.845-0.229-1.271c0.107-0.427,0.537-0.793,0.966-0.696
			c-0.937-0.655-1.557-1.742-1.644-2.881c0.907,0.437,1.724,1.063,2.382,1.825c-0.161-0.8-0.045-1.653,0.325-2.38
			c0.476,0.649,0.793,1.414,0.914,2.209c0.885-1.39,2.144-2.539,3.608-3.294c0.324,1.372-0.012,2.885-0.887,3.991
			c0.334-0.072,0.667-0.143,1.001-0.215c-0.038,0.907-0.346,1.8-0.876,2.537c0.812-0.379,1.657-0.686,2.522-0.917
			c-0.123,2.26-1.711,4.249-3.673,5.378s-4.256,1.525-6.509,1.735c-3.497,0.325-7.065,0.157-10.31-1.296
			C403.695,304.634,400.549,302.705,400.259,300.161z"/>
		<g>
			<g>
				<polygon style="fill:#F1BA82;" points="398.851,301.832 402.063,328.886 425.487,328.886 428.698,301.832 				"/>
				<polygon style="fill:#AB605B;" points="399.676,308.778 427.874,308.778 428.698,301.832 398.851,301.832 				"/>
			</g>
		</g>
	</g>
	<g>
		<g>
			<rect x="181.855" y="307.389" style="fill:#683721;" width="118.892" height="71.667"/>
			<path style="fill:#C06C66;" d="M234.729,301.582h-51.162c-12.458,0-22.558,10.059-22.558,22.467v31.324h79.816v-47.719
				C240.826,304.3,238.096,301.582,234.729,301.582z"/>
			<path style="opacity:0.19;" d="M234.729,301.582h-1.54c3.367,0,6.097,2.719,6.097,6.072v47.719h1.54v-47.719
				C240.826,304.3,238.096,301.582,234.729,301.582z"/>
			<path style="fill:#C06C66;" d="M247.244,301.582h51.162c12.458,0,22.558,10.059,22.558,22.467v31.324h-79.816v-47.719
				C241.147,304.3,243.877,301.582,247.244,301.582z"/>
			<path style="opacity:0.19;" d="M247.244,301.582h1.54c-3.367,0-6.097,2.719-6.097,6.072v47.719h-1.54v-47.719
				C241.147,304.3,243.877,301.582,247.244,301.582z"/>
			<path style="opacity:0.19;" d="M234.729,301.582h-1.54c2.642,0,4.891,1.674,5.737,4.014h1.54
				C239.62,303.255,237.371,301.582,234.729,301.582z"/>
			<path style="opacity:0.19;" d="M248.784,301.582h-1.54c-2.642,0-4.891,1.674-5.737,4.014h1.54
				C243.893,303.255,246.142,301.582,248.784,301.582z"/>
			<path style="fill:#8C3E3E;" d="M310.687,328.61c2.161-4.993,7.342-7.977,12.75-7.381l13.826,2.201l-11.251,35.436l-18.388-5.757
				C306.818,342.028,308.548,333.552,310.687,328.61z"/>
			<path style="fill:#8C3E3E;" d="M171.286,328.61c-2.161-4.993-7.343-7.977-12.75-7.381l-13.826,2.201l11.251,35.436l18.388-5.757
				C175.155,342.028,173.424,333.552,171.286,328.61z"/>
			<polygon style="fill:#C06C66;" points="167.045,373.976 314.999,373.976 314.999,397.234 166.974,397.234 			"/>
			<polygon style="opacity:0.27;" points="314.999,373.976 167.045,373.976 167.03,379.056 314.999,379.056 			"/>
			<rect x="166.975" y="373.976" style="opacity:0.27;" width="5.157" height="23.259"/>
			<rect x="309.842" y="373.976" style="opacity:0.27;" width="5.157" height="23.259"/>
			<g>
				<path style="fill:#A34F4D;" d="M333.899,323.216c-22.345,0-19.727,37.707-19.727,74.018h20.986c2.197,0,3.977-1.781,3.977-3.977
					v-45.95C339.136,347.307,356.244,323.216,333.899,323.216z"/>
				<path style="fill:#A34F4D;" d="M148.074,323.216c-22.345,0-5.237,24.091-5.237,24.091v45.95c0,2.197,1.781,3.977,3.977,3.977
					h20.986C167.801,360.924,170.419,323.216,148.074,323.216z"/>
			</g>
			<g>
				<g>
					<path style="fill:#C06C66;" d="M319.59,354.547c-6.291-1.431-15.567-2.632-28.981-2.632h-45.842
						c-1.91,0-3.458,1.548-3.458,3.458v3.896v12.213c0,1.378,1.117,2.495,2.495,2.495h72.37c3.756,0,7.254-1.91,9.286-5.069h0
						C329.012,363.379,325.996,356.004,319.59,354.547z"/>
					<path style="fill:#8C3E3E;" d="M319.59,354.547c-6.291-1.431-15.567-2.632-28.981-2.632h-45.842
						c-1.91,0-3.458,1.548-3.458,3.458v3.494h84.279C324.324,356.777,322.249,355.152,319.59,354.547z"/>
				</g>
				<g>
					<path style="fill:#C06C66;" d="M162.383,354.547c6.291-1.431,15.567-2.632,28.981-2.632h45.842c1.91,0,3.458,1.548,3.458,3.458
						v3.896v12.213c0,1.378-1.117,2.495-2.495,2.495h-72.37c-3.756,0-7.254-1.91-9.286-5.069h0
						C152.961,363.379,155.976,356.004,162.383,354.547z"/>
					<path style="fill:#8C3E3E;" d="M162.383,354.547c6.291-1.431,15.567-2.632,28.981-2.632h45.842c1.91,0,3.458,1.548,3.458,3.458
						v3.494h-84.279C157.649,356.777,159.724,355.152,162.383,354.547z"/>
				</g>
			</g>
		</g>
		<g>
			<path style="fill:#87976D;" d="M246.135,339.085c0,0,21.749-15.882,31.349-18.197c9.6-2.315,23.708,0.163,23.708,0.163
				s4.79,4.397,7.519,4.95s19.822-5.721,23.186-8.286c3.364-2.565,11.372-10.04,15.794-6.826c4.421,3.214,8.619,23.545,8.837,29.473
				c0.218,5.929-18.317,39.304-18.317,39.304s-5.818,2.676-13.064-0.619s-7.072-10.159-13.343-13.256
				c-6.271-3.098-11.557,4.962-20.952,3.26c-9.395-1.702-14.681-8.658-20.056-11.168c-5.376-2.51-8.211,6.452-16.898,3.27
				C245.211,357.972,246.135,339.085,246.135,339.085z"/>
			<path style="fill:#F1BA82;" d="M277.492,325.856c4.768-1.873,20.902-2.031,27.136-2.02c-1.859-1.338-3.436-2.785-3.436-2.785
				s-14.107-2.478-23.708-0.163s-31.349,18.197-31.349,18.197s-0.204,4.186,0.485,8.949
				C253.751,342.434,272.688,327.743,277.492,325.856z"/>
			<path style="fill:#728254;" d="M308.711,326.001c0,0-13.913,3.62-18.853,5.918s-18.261,18.212-18.261,18.212
				s10.38-18.39,15.594-20.579C292.405,327.363,308.711,326.001,308.711,326.001z"/>
			<path style="fill:#728254;" d="M331.896,317.715c0,0-5.691,7.572-7.934,11.378s-8.13,17.831-8.13,17.831
				s2.015-8.936,3.369-12.613c1.354-3.677,4.726-10.298,4.726-10.298s-6.818,5.763-8.563,8.207c0,0,4.405-6.434,7.701-10.32
				L331.896,317.715z"/>
			<path style="fill:#728254;" d="M311.805,365.791c6.271,3.098,6.097,9.961,13.343,13.256s13.064,0.619,13.064,0.619
				s18.535-33.375,18.317-39.304c-0.218-5.929-4.416-26.259-8.837-29.473c-2.911-2.116-7.375,0.401-11.047,3.1
				c0.002,0,6.65-1.107,8.784-0.949c2.134,0.158,3.902,5.775,3.62,9.167c-0.282,3.392-5.313,22.206-5.313,22.206l6.893-13.984
				c0,0,1.022,10.974,0.114,15.454c-0.908,4.481-13.642,26.253-13.642,26.253s-8.239,3.605-10.35,2.007
				c-2.111-1.598-7.062-10.204-10.652-12.024c-3.589-1.82-13.203,1.053-13.203,1.053s1.45-8.634,2.213-10.914
				s7.24-15.171,7.24-15.171s-7.314,8.054-8.918,9.961c-1.604,1.907-12.1,18.65-16.038,18.054
				c-3.938-0.595-16.085-8.739-16.085-8.739l0.647-3.193c0,0-11.787,8.267-16.334,6.506c-4.547-1.761-9-11.642-9-11.642v0
				c0.775,5.354,2.681,11.435,7.278,13.119c8.687,3.181,11.522-5.781,16.898-3.27c5.376,2.51,10.661,9.466,20.056,11.168
				C300.247,370.752,305.534,362.693,311.805,365.791z"/>
		</g>
		<g>
			<g>
				<g>
					<path style="fill:#F1BA82;" d="M187.059,350.663c0,0-0.129,0.126-0.352,0.313c-0.526,0.439-1.585,1.224-2.728,1.513
						c-0.021,0.006-0.042,0.009-0.063,0.012c-0.123,0.027-0.247,0.045-0.367,0.054c-0.045,0.003-0.09,0.006-0.132,0.006h-0.015
						c-0.069,0-0.135-0.003-0.202-0.012h-0.018c-0.069-0.006-0.135-0.015-0.202-0.03c-0.006,0-0.012,0-0.018-0.003
						c-0.063-0.012-0.126-0.03-0.186-0.048c-0.069-0.018-0.135-0.042-0.199-0.069c-0.051-0.021-0.102-0.045-0.15-0.069
						c-0.036-0.015-0.069-0.033-0.102-0.054c-0.009-0.003-0.015-0.009-0.024-0.012c-0.03-0.018-0.06-0.036-0.09-0.054
						c-0.042-0.027-0.084-0.057-0.126-0.087c-0.003-0.003-0.006-0.003-0.009-0.006c-0.027-0.021-0.054-0.042-0.081-0.066
						c-0.036-0.03-0.072-0.06-0.108-0.093c-0.547-0.505-0.845-1.281-0.689-2.12c0.123-0.65,0.436-1.396,1.101-2.154
						c0.042-0.051,0.087-0.099,0.132-0.147c0.196-0.21,0.424-0.424,0.683-0.635c0.908-0.737,1.633-0.659,2.199-0.199
						c0.382,0.31,0.695,0.794,0.944,1.32c0.054,0.12,0.105,0.241,0.156,0.361c0.132,0.322,0.241,0.65,0.331,0.95
						C186.963,350.076,187.059,350.663,187.059,350.663z"/>
					<path style="fill:#F1BA82;" d="M226.347,352.488c-0.241-0.06-0.478-0.144-0.707-0.241c-0.514-0.217-0.99-0.505-1.375-0.776
						c-0.247-0.174-0.457-0.337-0.623-0.472c-0.241-0.202-0.379-0.337-0.379-0.337s0.189-1.155,0.647-2.271
						c0.559-1.372,1.516-2.683,3.017-1.696c0.093,0.057,0.186,0.126,0.283,0.205c0.292,0.238,0.544,0.478,0.758,0.716
						c0.024,0.024,0.045,0.051,0.066,0.075c0.018,0.021,0.036,0.039,0.051,0.06c0.629,0.734,0.923,1.456,1.041,2.084
						C229.439,351.487,227.977,352.9,226.347,352.488z"/>
				</g>
				<g>
					<path style="fill:#F1BA82;" d="M229.126,315.391c-0.12,0.65-0.43,1.399-1.104,2.157c-0.226,0.259-0.493,0.517-0.812,0.776
						c-0.577,0.472-1.083,0.611-1.519,0.526c-0.517-0.093-0.938-0.496-1.275-1.02c-0.063-0.096-0.12-0.198-0.177-0.301
						c-0.695-1.266-0.975-2.969-0.975-2.969s0.223-0.22,0.596-0.508c0.574-0.448,1.501-1.068,2.487-1.317
						c0.409-0.102,0.806-0.09,1.17,0.012c0.361,0.102,0.686,0.292,0.947,0.544c0.123,0.117,0.235,0.25,0.328,0.394
						C229.105,314.157,229.246,314.759,229.126,315.391z"/>
					<path style="fill:#F1BA82;" d="M187.059,314.56c0,0-0.189,1.164-0.647,2.283c-0.367,0.896-0.908,1.766-1.657,1.979h-0.003
						c-0.12,0.036-0.25,0.054-0.382,0.048c-0.003,0-0.003,0-0.003,0c-0.09,0-0.183-0.012-0.28-0.036
						c-0.298-0.063-0.623-0.226-0.975-0.511c-0.132-0.108-0.259-0.22-0.376-0.328c-0.009-0.006-0.015-0.012-0.021-0.018
						c-0.123-0.117-0.238-0.235-0.343-0.352c-0.012-0.015-0.024-0.027-0.036-0.042h-0.003c-0.692-0.77-1.014-1.534-1.137-2.193
						c-0.31-1.651,1.152-3.065,2.782-2.656c0.496,0.126,0.981,0.346,1.408,0.59c0.439,0.25,0.821,0.523,1.107,0.752
						c0.069,0.054,0.132,0.105,0.189,0.15c0.075,0.063,0.141,0.12,0.196,0.168C186.996,314.497,187.059,314.56,187.059,314.56z"/>
				</g>
				<path style="fill:#F1BA82;" d="M230.191,332.303c0.009,2.38-0.145,4.614-0.406,6.679c-0.016,0.137-0.034,0.271-0.051,0.404
					c-0.055,0.415-0.115,0.823-0.177,1.227c-0.043,0.277-0.087,0.548-0.135,0.817c-0.209,1.218-0.452,2.367-0.711,3.438
					c-0.092,0.381-0.186,0.755-0.282,1.119c-0.151,0.569-0.305,1.11-0.461,1.628c-0.009,0.03-0.018,0.06-0.027,0.09
					c-0.035,0.119-0.073,0.239-0.112,0.356c-0.234,0.759-0.472,1.463-0.697,2.103c-0.232,0.06-0.465,0.121-0.702,0.177
					c-0.606,0.156-1.238,0.307-1.894,0.457c-0.293,0.066-0.59,0.133-0.894,0.199c-1.919,0.418-4.016,0.807-6.273,1.124
					c-0.596,0.085-1.208,0.167-1.826,0.238c-2.154,0.259-4.436,0.452-6.843,0.548c-0.592,0.025-1.192,0.043-1.798,0.055
					c-0.59,0.011-1.188,0.014-1.793,0.014c-0.323,0-0.644-0.004-0.963-0.005c-0.124-0.004-0.246-0.004-0.371-0.007
					c-1.149-0.02-2.273-0.06-3.371-0.119c-0.05-0.004-0.098-0.007-0.145-0.011c-0.527-0.03-1.043-0.066-1.555-0.105
					c-0.429-0.03-0.855-0.066-1.275-0.105c-0.31-0.028-0.614-0.058-0.917-0.087c-0.277-0.028-0.555-0.059-0.828-0.089
					c-0.778-0.087-1.539-0.179-2.286-0.285c-0.186-0.023-0.371-0.051-0.553-0.078c-0.135-0.018-0.271-0.039-0.406-0.06
					c-0.106-0.014-0.207-0.03-0.31-0.044c-0.25-0.037-0.493-0.076-0.739-0.117c-0.184-0.03-0.363-0.06-0.544-0.09
					c-0.108-0.02-0.22-0.037-0.328-0.055c-0.268-0.044-0.532-0.092-0.794-0.142c-0.192-0.035-0.388-0.071-0.58-0.108
					c-0.168-0.03-0.335-0.062-0.5-0.096c-0.665-0.129-1.31-0.262-1.936-0.401c-0.681-0.147-1.335-0.296-1.968-0.454
					c-0.105-0.023-0.209-0.048-0.312-0.074c-0.376-0.094-0.739-0.186-1.098-0.28c-0.021-0.06-0.046-0.117-0.066-0.177
					c-0.257-0.691-0.518-1.452-0.777-2.273c-0.021-0.06-0.039-0.121-0.057-0.181c-0.154-0.493-0.307-1.007-0.454-1.546
					c-0.082-0.289-0.16-0.58-0.238-0.881c-0.037-0.142-0.073-0.282-0.11-0.424c-0.066-0.264-0.128-0.532-0.191-0.803
					c-0.048-0.211-0.096-0.422-0.145-0.638c-0.011-0.05-0.02-0.101-0.032-0.156c-0.016-0.074-0.034-0.151-0.048-0.229
					c-0.034-0.152-0.067-0.309-0.098-0.463c-0.03-0.156-0.06-0.312-0.089-0.472c-0.037-0.184-0.073-0.371-0.103-0.56
					c-0.03-0.161-0.06-0.328-0.087-0.493c-0.016-0.082-0.028-0.165-0.043-0.25c-0.018-0.101-0.034-0.207-0.048-0.31
					c-0.004-0.023-0.009-0.044-0.012-0.069c-0.005-0.039-0.012-0.078-0.018-0.119c-0.037-0.245-0.073-0.488-0.106-0.734
					c-0.023-0.176-0.048-0.349-0.069-0.527c-0.023-0.177-0.048-0.358-0.066-0.539c-0.005-0.043-0.012-0.082-0.014-0.122
					c-0.021-0.176-0.039-0.349-0.059-0.527c-0.018-0.16-0.032-0.319-0.048-0.479c-0.018-0.191-0.035-0.388-0.051-0.587
					c-0.078-0.956-0.131-1.942-0.156-2.959c-0.035-1.606,0.007-3.151,0.106-4.623c0.048-0.683,0.108-1.351,0.179-2.004
					c0.004-0.03,0.007-0.06,0.012-0.09c0.103-0.931,0.229-1.833,0.371-2.701c0.043-0.261,0.087-0.52,0.135-0.773
					c0.216-1.19,0.463-2.307,0.729-3.349c0.027-0.105,0.053-0.207,0.078-0.31c0.101-0.388,0.204-0.766,0.309-1.133
					c0.101-0.356,0.204-0.702,0.307-1.039c0.007-0.018,0.012-0.035,0.016-0.053c0.012-0.03,0.021-0.059,0.027-0.085
					c0.027-0.083,0.053-0.167,0.08-0.25c0.284-0.894,0.566-1.702,0.835-2.429c0.367-0.094,0.739-0.184,1.122-0.275
					c0.613-0.144,1.25-0.287,1.906-0.429h0.004c0.041-0.009,0.087-0.018,0.131-0.027c0.133-0.028,0.266-0.059,0.397-0.082
					c2.224-0.463,4.662-0.881,7.3-1.206c0.83-0.103,1.679-0.197,2.548-0.277c0.943-0.089,1.91-0.167,2.899-0.227
					c1.144-0.069,2.312-0.121,3.511-0.147c0.564-0.012,1.137-0.021,1.713-0.023c0.232,0,0.461,0,0.69,0.002
					c1.984,0.004,3.904,0.076,5.741,0.199c0.566,0.039,1.122,0.082,1.672,0.129c0.151,0.012,0.301,0.027,0.449,0.043
					c1.335,0.121,2.622,0.264,3.867,0.433c0.527,0.069,1.044,0.145,1.553,0.223c0.637,0.096,1.257,0.195,1.867,0.303h0.004
					c1.098,0.19,2.151,0.392,3.154,0.605c0.759,0.16,1.489,0.324,2.193,0.493c0.367,0.087,0.727,0.176,1.08,0.262l0.062,0.181
					c0.051,0.147,0.103,0.294,0.158,0.447c0.19,0.559,0.383,1.16,0.576,1.796c0.032,0.105,0.062,0.209,0.094,0.316
					c0.005,0.018,0.012,0.035,0.014,0.055c0.101,0.344,0.204,0.7,0.303,1.066c0.099,0.367,0.199,0.746,0.296,1.135
					c0.236,0.947,0.457,1.954,0.658,3.018c0.085,0.459,0.168,0.931,0.245,1.417c0.021,0.131,0.041,0.268,0.062,0.402
					c0.128,0.835,0.238,1.702,0.328,2.598c0.06,0.612,0.112,1.238,0.154,1.874C230.152,330.143,230.187,331.206,230.191,332.303z"/>
			</g>
			<g>
				<path style="fill:#C5986A;" d="M186.826,328.678c0.042-0.195,3.771-4.884,3.771-4.884l3.599,4.709l-3.208,4.373L186.826,328.678
					z"/>
				<path style="fill:#C5986A;" d="M182.505,330.159l-0.357,0.556l-2.263,3.528c0-0.008-0.001-0.014,0.001-0.022
					c0.007-0.212,0.014-0.425,0.024-0.64c0.009-0.22,0.02-0.44,0.031-0.663c0-0.008,0.001-0.016,0.002-0.026
					c0.013-0.221,0.027-0.444,0.042-0.667c0.013-0.203,0.029-0.405,0.046-0.609c0.002-0.046,0.006-0.094,0.01-0.142
					c0.014-0.158,0.027-0.316,0.043-0.473c0.008-0.102,0.018-0.204,0.03-0.307c0.029-0.305,0.061-0.612,0.1-0.924
					c0.015-0.133,0.031-0.268,0.048-0.401c0.029-0.23,0.061-0.459,0.092-0.691l1.789,1.234L182.505,330.159z"/>
				<path style="fill:#C5986A;" d="M198.242,328.413c0.042-0.195,3.771-4.884,3.771-4.884l3.599,4.709l-3.208,4.373L198.242,328.413
					z"/>
				<path style="fill:#C5986A;" d="M209.568,328.156c0.042-0.195,3.771-4.884,3.771-4.884l3.599,4.709l-3.208,4.373L209.568,328.156
					z"/>
				<path style="fill:#C5986A;" d="M220.987,327.879c0.042-0.195,3.674-4.436,3.674-4.436l3.435,5.471l-3.127,4L220.987,327.879z"/>
				<path style="fill:#C5986A;" d="M194.198,328.495c0.023-0.107,2.071-2.682,2.071-2.682l1.976,2.586l-1.761,2.401L194.198,328.495
					z"/>
				<path style="fill:#C5986A;" d="M186.841,328.66l-1.53,2.34l-0.325,0.496l-2.494-1.333c0.019-0.09,1.557-2.305,2.041-2.997
					c0.089-0.129,0.142-0.206,0.142-0.206L186.841,328.66z"/>
				<path style="fill:#C5986A;" d="M205.524,328.239c0.023-0.107,2.071-2.682,2.071-2.682l1.976,2.586l-1.761,2.401L205.524,328.239
					z"/>
				<path style="fill:#C5986A;" d="M216.94,327.974c0.023-0.107,2.071-2.682,2.071-2.682l1.976,2.586l-1.761,2.401L216.94,327.974z"
					/>
				<path style="fill:#C5986A;" d="M230.462,331.844l-0.289,0.339l-2.071-3.291c0.015-0.07,0.863-0.989,1.438-1.602
					C229.891,328.614,230.224,330.155,230.462,331.844z"/>
				<path style="fill:#C5986A;" d="M185.311,331l-0.325,0.496l-2.494-1.333c0.019-0.09,1.557-2.305,2.041-2.997
					C184.894,328.368,185.169,329.649,185.311,331z"/>
				<path style="fill:#C5986A;" d="M182.148,330.716l-2.263,3.528c0-0.008-0.001-0.014,0.001-0.022
					c0.007-0.212,0.014-0.425,0.024-0.64c0.009-0.22,0.02-0.44,0.031-0.663c0-0.008,0.001-0.016,0.002-0.026
					c0.013-0.221,0.027-0.444,0.042-0.667c0.013-0.203,0.029-0.405,0.046-0.609c0.002-0.046,0.006-0.094,0.01-0.142
					c0.014-0.158,0.027-0.316,0.043-0.473c0.008-0.102,0.018-0.204,0.03-0.307c0.029-0.305,0.061-0.612,0.1-0.924
					c0.015-0.133,0.031-0.268,0.048-0.401c0.029-0.23,0.061-0.459,0.092-0.691l1.789,1.234
					C182.148,330.172,182.149,330.439,182.148,330.716z"/>
			</g>
		</g>
		<g>
			<path style="fill:#BFB2BB;" d="M291.194,331.347c0.061-0.132-0.045-0.271-0.16-0.322c-1.118-0.484-2.616,0.469-3.568,0.94
				c-1.59,0.786-3.291,1.323-4.885,2.121c-1.372,0.689-2.7,1.47-4.041,2.219c-0.036,0.021-0.072,0.041-0.108,0.061
				c-0.115,0.065-0.232,0.129-0.348,0.193c-0.054,0.031-0.108,0.06-0.162,0.09c-0.277,0.151-0.561,0.3-0.833,0.463
				c-0.001-0.001-0.005-0.001-0.009-0.002c-0.004,0-0.005-0.001-0.009-0.002c-0.079,0.045-0.222,0.042-0.267,0.109l-0.062,0.093
				c-0.068,0.101-0.208,0.155-0.326,0.224c-0.012,0.006-0.023,0.013-0.034,0.02c-0.172,0.112-0.337,0.231-0.506,0.347
				c-0.052,0.034-0.096,0.076-0.149,0.112c0.195-0.166,0.389-0.33,0.573-0.504c0.111-0.105,0.222-0.209,0.332-0.314l0.002,0
				c0.002-0.001,0.002-0.003,0.004-0.006c0.495-0.469,0.982-0.941,1.475-1.411c0.209-0.199,0.42-0.397,0.634-0.593
				c1.558-1.437,3.295-2.716,4.979-3.999c1.736-1.321,3.569-2.14,5.527-3.049c0.419-0.194,2.66-1.389,2.022-2.211
				c-0.255-0.326-0.606-0.294-0.971-0.151c-0.754,0.294-1.488,0.702-2.209,1.067c-1.968,1-3.777,2.181-5.494,3.564
				c-1.736,1.398-3.353,2.939-4.917,4.527c-0.025,0.024-0.05,0.05-0.073,0.075c-0.028,0.026-0.081,0.037-0.107,0.064
				c-0.253,0.257-0.444,0.558-0.786,0.763l-0.001,0.001c-0.01,0.016-0.014,0.036-0.031,0.046l-0.001,0.001
				c-1.145,1.096-2.257,2.269-3.15,3.538c-0.009,0.014-0.013,0.031-0.023,0.046c-0.008,0.013-0.012,0.027-0.019,0.038
				c-0.023,0.034-0.077,0.042-0.1,0.076c-0.001,0.001-0.035-0.02-0.035-0.02c-0.189,0.28,0.302,0.61,0.49,0.33
				c0,0,0.027-0.041,0.061-0.087c0.014,0.019,0.03,0.037,0.049,0.051c0.065,0.054,0.156,0.079,0.257,0.035
				c0.483-0.21,0.841-0.708,1.253-1.042c0.001-0.001,0.003-0.002,0.003-0.002c0.01-0.008,0.019-0.016,0.028-0.024
				c0.004-0.003,0.018,0.004,0.021,0c0.001-0.002,0.001-0.002,0.001-0.002c0.047-0.07,0.135-0.115,0.206-0.167
				c0.091-0.05,0.179-0.099,0.269-0.149c0.007-0.005,0.017-0.011,0.026-0.015c0.003-0.002,0.009-0.004,0.012-0.006
				c0.288-0.15,0.576-0.298,0.839-0.483c0.022-0.014,0.036-0.033,0.05-0.054l0.001-0.001c0.005-0.007,0.008-0.013,0.015-0.019
				c0.01-0.012,0.022-0.021,0.037-0.03c0.002-0.003-0.009-0.014-0.007-0.017c0.001-0.001,0.001-0.001,0.001-0.001
				c0.346-0.211,0.687-0.413,1.026-0.616l0.001-0.002c0.005-0.001,0.008-0.003,0.011-0.005c0.245-0.071,0.377-0.218,0.563-0.325
				c0.001-0.001,0.001-0.005,0.002-0.007c0.001-0.001,0.003-0.002,0.004-0.003c0.031-0.016,0.071-0.023,0.087-0.047l0.001-0.001
				c0.002-0.001,0.002-0.001,0.005-0.001c0.239-0.059,0.356-0.196,0.535-0.293c1.489-0.817,3.041-1.52,4.63-2.122
				c1.471-0.558,3-0.942,4.471-1.492c0.624-0.234,1.209-0.552,1.831-0.787C290.597,332.005,290.979,331.803,291.194,331.347z"/>
			<path style="fill:#BFB2BB;" d="M274.032,342.525c0.061-0.132-0.046-0.271-0.16-0.322c-1.118-0.484-2.616,0.469-3.568,0.94
				c-1.59,0.786-3.292,1.324-4.885,2.121c-1.372,0.689-2.7,1.47-4.041,2.219c-0.036,0.021-0.072,0.041-0.108,0.061
				c-0.115,0.065-0.232,0.129-0.348,0.193c-0.054,0.031-0.108,0.06-0.162,0.09c-0.277,0.151-0.561,0.3-0.833,0.463
				c-0.001-0.001-0.005-0.001-0.009-0.002c-0.004,0,0.018,0.014,0.014,0.014c-0.079,0.045-0.199,0.057-0.244,0.125l-0.062,0.093
				c-0.068,0.101-0.231,0.139-0.349,0.208c-0.012,0.006-0.034,0.005-0.045,0.012c-0.172,0.112-0.343,0.227-0.512,0.343
				c-0.052,0.034-0.099,0.074-0.151,0.109c0.195-0.166,0.388-0.331,0.572-0.504c0.111-0.105,0.221-0.209,0.331-0.315l0.002-0.001
				c0.002-0.001,0.002-0.003,0.004-0.006c0.495-0.469,0.982-0.941,1.475-1.411c0.209-0.199,0.42-0.397,0.634-0.593
				c1.558-1.437,3.295-2.716,4.979-3.999c1.736-1.321,3.569-2.14,5.526-3.049c0.42-0.194,2.66-1.389,2.022-2.211
				c-0.255-0.326-0.606-0.294-0.971-0.151c-0.754,0.295-1.488,0.702-2.209,1.067c-1.968,1-3.778,2.181-5.494,3.564
				c-1.736,1.398-3.353,2.939-4.917,4.527c-0.024,0.024-0.05,0.05-0.073,0.075c-0.028,0.026-0.058,0.053-0.084,0.08
				c-0.253,0.257-0.421,0.574-0.763,0.779l-0.001,0.001c-0.01,0.016-0.021,0.031-0.031,0.046l-0.001,0.002
				c-1.145,1.096-2.28,2.253-3.173,3.523c-0.009,0.014-0.025,0.024-0.034,0.038c-0.009,0.013-0.018,0.023-0.025,0.034
				c-0.023,0.033-0.095,0.062-0.118,0.096c-0.001,0.001-0.053,0.001-0.053,0.001c-0.189,0.28,0.302,0.611,0.49,0.33
				c0,0,0.043-0.063,0.076-0.109c0.014,0.019,0.038,0.025,0.057,0.04c0.065,0.054,0.16,0.073,0.261,0.029
				c0.483-0.21,0.843-0.711,1.255-1.044c0.001-0.002,0.004-0.003,0.004-0.003c0.01-0.008,0.042-0.001,0.052-0.009
				c0.004-0.003,0.041,0.019,0.044,0.015c0.001-0.001,0.001-0.001,0.001-0.001c0.047-0.07,0.111-0.131,0.183-0.182
				c0.091-0.05,0.167-0.107,0.258-0.156c0.007-0.005,0.011-0.015,0.02-0.019c0.003-0.002,0.006-0.006,0.009-0.008
				c0.288-0.15,0.597-0.284,0.86-0.469c0.022-0.014,0.058-0.018,0.072-0.039l0.001-0.001c0.005-0.007-0.015-0.028-0.009-0.034
				c0.01-0.012,0.034-0.014,0.048-0.022c0.002-0.003,0.003-0.006,0.005-0.009c0.001-0.001,0.001-0.001,0.001-0.001
				c0.346-0.211,0.686-0.414,1.026-0.616l0.001-0.001c0.002-0.003-0.015-0.018-0.012-0.02c0.245-0.071,0.365-0.226,0.551-0.333
				c0.001-0.002-0.004-0.009-0.003-0.011c0.001-0.001,0.024,0.012,0.025,0.01c0.031-0.016,0.091-0.01,0.107-0.034l0.001-0.001
				c0.001-0.001-0.021-0.016-0.018-0.017c0.239-0.059,0.344-0.204,0.524-0.301c1.489-0.817,3.035-1.524,4.624-2.126
				c1.471-0.558,2.997-0.944,4.469-1.494c0.623-0.233,1.207-0.553,1.829-0.788C273.435,343.184,273.816,342.981,274.032,342.525z"/>
			<path style="fill:#9E4543;" d="M290.141,350.148c-1.452-0.308-2.783-1.071-4.289-1.108c-1.422-0.034-2.158,0.952-2.993,1.935
				c-0.409,0.482-0.836,0.777-1.276,0.93c-0.65-0.667-0.827-1.61-1.625-2.182c-0.352-0.252-0.841-0.28-1.349-0.218
				c2.052-1.906,3.341-4.739,3.847-7.618v-0.005c0-0.008-0.057-0.034-0.057-0.043c0-0.002-0.032-0.021-0.045-0.021h-0.002
				c-0.01,0-0.02,0.018-0.02,0.018c0.046-0.409,0.046-0.819,0.046-1.227c0-0.412,0.032-0.811-0.068-1.209c0-0.002,0,0.001-0.002,0
				c0.002-0.002,0.02,0.001,0.018-0.001c-0.015-0.066-0.039-0.128-0.039-0.192v-0.002c0-0.042,0-0.083,0-0.125v-0.002
				c-0.169-0.824-0.359-1.616-0.679-2.359c-0.01-0.023-0.03-0.047-0.04-0.071c-0.084-0.196-0.158-0.387-0.256-0.576
				c-0.279-0.537-0.608-1.045-0.978-1.518l-0.003-0.002c-0.103-0.132-0.206-0.258-0.316-0.385c-0.62-0.716-1.343-1.342-2.143-1.856
				c-0.002,0-0.002-0.002-0.004-0.002c-0.002-0.002-0.003-0.002-0.005-0.003c-0.056-0.039-0.115-0.074-0.172-0.11
				c-0.101-0.062-0.204-0.122-0.307-0.179c-0.047-0.029-0.096-0.056-0.145-0.081c-0.147-0.081-0.297-0.157-0.448-0.228
				c-0.25-0.12-0.503-0.228-0.763-0.326c-0.029-0.01-0.056-0.022-0.084-0.032c-0.111-0.041-0.225-0.079-0.338-0.116
				c-0.269-0.088-0.54-0.164-0.819-0.228c-0.159-0.037-0.317-0.071-0.48-0.1c-0.448-0.081-0.907-0.17-1.373-0.186
				c-0.123-0.005-0.246-0.047-0.372-0.047h-0.022c-0.437,0-0.875,0.068-1.307,0.128c-0.127,0.015-0.253,0.054-0.38,0.076
				c-0.468,0.081-0.93,0.203-1.385,0.347c-0.052,0.017-0.105,0.038-0.157,0.055c-0.518,0.174-1.025,0.388-1.515,0.636
				c-0.086,0.042-0.172,0.087-0.257,0.135c-0.135,0.073-0.27,0.147-0.402,0.227c-0.171,0.1-0.336,0.203-0.5,0.313
				c-0.895,0.589-1.707,1.302-2.401,2.106c-0.388,0.454-0.741,0.937-1.049,1.444c-0.692,1.147-1.157,2.416-1.312,3.75
				c-0.035,0.292-0.054,0.586-0.057,0.883c-0.002,0.035-0.002,0.073-0.002,0.108c0,3.477,2.31,6.979,5.397,9.063
				c0.15,0.103,0.302,0.201,0.456,0.294c0.721,0.444,1.478,0.809,2.254,1.079c0.16,0.057,0.321,0.108,0.481,0.155
				c0.086,0.027,0.171,0.05,0.257,0.073c0.179,0.047,0.358,0.091,0.537,0.127c0.478,0.1,0.958,0.16,1.437,0.179
				c0.108,0.007,0.216-0.03,0.324-0.03c0.079,0,0.155-0.04,0.235-0.04h0.003c0.495,0,0.976-0.045,1.443-0.152
				c0.035,0.001,0.072,0.011,0.11-0.008c0.358-0.087,0.708-0.188,1.048-0.324c0.394-0.039,0.804-0.018,1.183-0.03
				c0.803-0.024,1.379,0.678,2.082,0.958c0.788,0.314,1.626,0.474,2.423,0.286c0.203,0.188,0.437,0.345,0.721,0.454
				c0.826,0.317,1.661,0.264,2.52,0.124c1.38-0.225,3.276-0.789,3.811,0.989c0.384,1.276-1.324,2.155-2.269,2.478
				c-1.347,0.46-2.823,0.203-4.182-0.043c-2.695-0.487-5.37-1.046-8.072-1.499c-5.236-0.877-10.539-2.163-15.867-2.231
				c-2.523-0.032-4.915,0.299-7.339,0.988c-1.746,0.496-3.791,1.332-4.105,3.349c-0.339,2.18,2.596,2.945,4.166,3.187
				c2.589,0.398,4.936-0.369,7.414-1.002c0.316-0.081,0.182-0.569-0.135-0.488c-1.164,0.297-2.314,0.646-3.491,0.895
				c-1.407,0.298-2.822,0.263-4.233,0.01c-1.163-0.209-2.432-0.614-3.072-1.681c-0.935-1.56,1.226-2.911,2.375-3.378
				c4.976-2.019,10.607-1.488,15.76-0.592c5.388,0.937,10.776,1.825,16.143,2.869c2.086,0.406,4.277,0.685,6.149-0.551
				c1.339-0.884,1.806-2.533,0.472-3.674c-0.687-0.588-1.798-0.43-2.607-0.299c-1.224,0.198-2.5,0.547-3.57-0.114
				c0.067-0.032,0.133-0.068,0.199-0.106c1.124-0.66,1.568-2.132,2.847-2.546c1.582-0.513,3.37,0.666,4.887,0.988
				C290.325,350.704,290.461,350.216,290.141,350.148z M278.082,351.071c-0.394-0.232-0.787-0.292-1.2-0.295
				c0.298-0.172,0.587-0.364,0.866-0.571c0.395-0.104,0.792-0.169,1.208-0.182c0.766-0.024,1.19,0.48,1.541,1.086
				c0.181,0.312,0.357,0.627,0.563,0.913C280.1,352.128,279.09,351.664,278.082,351.071z"/>
			<path style="fill:#C06C66;" d="M276.363,334.112c0.005,0.544-0.012,1.081-0.051,1.618c0,0-0.002,0.002-0.002,0.003
				c-0.025,0.353-0.061,0.708-0.106,1.064c-0.238,1.851-0.626,3.673-1.113,5.473c-0.505,1.869-0.991,3.725-1.667,5.542
				c-0.522,1.403-1.317,2.675-2.226,3.858c-0.179-0.035-0.358-0.079-0.537-0.127c2.248-2.862,3.124-6.251,4.024-9.713
				c0.378-1.456,0.719-2.928,0.934-4.419c0.061-0.414,0.11-0.829,0.149-1.246c0.086-0.935,0.133-1.864,0.061-2.805
				c-0.022-0.282-0.079-0.552-0.14-0.824c-0.002,0-0.002,0,0-0.002c-0.083-0.361-0.166-0.724-0.166-1.111
				c0-0.086,0.032-0.148,0.081-0.191c0.1-0.088,0.267-0.083,0.356,0.014c0.035,0.034,0.059,0.079,0.066,0.135
				c0.002,0.014,0.003,0.027,0.003,0.042c0,0.338,0.179,0.851,0.241,1.275c0.049,0.334,0.073,0.667,0.083,1.003
				c0,0.003,0.002,0.005,0,0.007c0.003,0.081,0.005,0.164,0.007,0.245C276.362,334.006,276.363,334.06,276.363,334.112z"/>
			<path style="fill:#C06C66;" d="M279.491,343.222c-1.111,1.869-2.393,3.939-4.149,5.277c-0.339,0.804-0.718,1.592-1.148,2.359
				c-0.128,0.232-0.442,0.068-0.469-0.139c-0.169,0.37-0.344,0.723-0.527,1.061h-0.002c-0.079,0-0.155,0.04-0.235,0.04
				c-0.108,0-0.216,0.017-0.324,0.011c1.349-2.643,2.35-5.436,3.063-8.315c0.681-2.752,0.899-5.568,0.875-8.393
				c-0.005-0.496-0.03-0.99-0.03-1.488v-0.015c0-0.118,0.057-0.194,0.141-0.226c0.147-0.056,0.349,0.018,0.356,0.226
				c0.005,0.157,0.01,0.314,0.01,0.471c0,0,0,0,0,0.002c0.169,3.207-0.076,6.447-0.868,9.568c-0.569,2.242-1.292,4.437-2.217,6.55
				c0.331-0.621,0.633-1.258,0.903-1.905c0.007-0.03,0.019-0.059,0.036-0.086c0.596-1.432,1.062-2.914,1.481-4.412
				c-0.074-0.071-0.108-0.181-0.041-0.296c0.081-0.14,0.157-0.282,0.238-0.422c0.128-0.478,0.253-0.956,0.378-1.435
				c0.4-1.543,0.724-3.078,0.925-4.66c0.111-0.88,0.14-1.719-0.029-2.597c-0.083-0.434-0.162-0.947-0.331-1.401
				c-0.083-0.228-0.188-0.443-0.326-0.623c-0.01-0.014-0.019-0.025-0.029-0.037c-0.117-0.142-0.051-0.319,0.064-0.398
				c0.059-0.044,0.132-0.059,0.201-0.031c0.032,0.012,0.064,0.036,0.093,0.071c0.056,0.068,0.108,0.142,0.159,0.22
				c0.042,0.064,0.084,0.132,0.123,0.202c0.574,1.032,0.822,2.653,0.692,3.698c-0.216,1.728-0.478,3.408-0.903,5.1
				c-0.002,0.003-0.002,0.007-0.003,0.01c0.358-0.699,0.699-1.405,1.027-2.119c0.67-1.457,1.469-2.96,1.184-4.612
				c-0.027-0.16,0.081-0.275,0.204-0.309c0.122-0.034,0.258,0.014,0.285,0.174c0.012,0.071,0.022,0.14,0.03,0.211l0.002,0.002
				c0.189,1.513-0.385,2.853-1.008,4.221c-0.696,1.53-1.434,3.037-2.259,4.502c-0.385,1.43-0.809,2.853-1.331,4.237
				c1.354-1.265,2.423-2.996,3.32-4.548c1.143-1.979,2.357-4.218,1.996-6.577c-0.029-0.182,0.118-0.306,0.258-0.318
				c0.106-0.01,0.209,0.044,0.23,0.182c0.024,0.155,0.04,0.309,0.052,0.464C281.77,339.044,280.654,341.258,279.491,343.222z"/>
			<path style="fill:#C06C66;" d="M282.376,340.627c0,0.409,0,0.817-0.046,1.226c0,0,0.01,0.002,0.02,0
				c-0.572,1.454-1.569,2.832-2.317,4.053c-1.285,2.097-2.874,3.894-5.143,4.931c-0.294,0.135-0.552-0.301-0.255-0.437
				c2.084-0.952,3.622-2.565,4.811-4.503c1.12-1.827,3.043-4.217,2.862-6.488C282.409,339.806,282.376,340.215,282.376,340.627z"/>
			<path style="fill:#C06C66;" d="M273.476,332.141c-0.106-0.464-0.201-1.03-0.542-1.384c-0.005-0.007-0.01-0.012-0.017-0.018
				c-0.117-0.117-0.267-0.083-0.355,0.01c-0.088,0.088-0.118,0.233-0.003,0.348c0.309,0.311,0.395,1.03,0.488,1.442
				c0.203,0.882,0.143,1.825,0.071,2.717c-0.115,1.43-0.361,2.838-0.697,4.23c-0.377-2.844-0.681-5.685-1.128-8.522
				c-0.009-0.054-0.031-0.096-0.059-0.125c-0.098-0.102-0.289-0.064-0.38,0.057c-0.041,0.052-0.063,0.121-0.049,0.202
				c0.491,3.109,0.807,6.226,1.238,9.343c0.01,0.074,0.046,0.123,0.091,0.152c-0.115,0.407-0.236,0.814-0.366,1.216
				c-0.777-1.481-1.228-3.066-1.542-4.706c-0.169-0.882-0.277-1.773-0.405-2.661c-0.135-0.927-0.358-1.971-0.103-2.894
				c0.052-0.186-0.1-0.309-0.248-0.314c-0.056,0-0.113,0.015-0.157,0.05c-0.037,0.029-0.067,0.073-0.083,0.13
				c-0.225,0.809-0.105,1.667,0.005,2.487c0.122,0.921,0.25,1.842,0.4,2.759c0.316,1.925,0.829,3.806,1.759,5.53
				c0.049,0.091,0.127,0.127,0.206,0.125c-0.268,0.792-0.557,1.577-0.851,2.361c-0.702-1.812-1.062-3.718-1.423-5.623
				c-0.436-2.301-1.015-4.566-1.288-6.898c-0.017-0.142-0.127-0.223-0.24-0.238c-0.11-0.015-0.223,0.029-0.257,0.134
				c-0.012,0.03-0.015,0.064-0.01,0.105c0.255,2.178,0.77,4.294,1.194,6.442c0.373,1.891,0.689,3.796,1.315,5.618
				c-1.012-1.751-1.829-3.597-2.313-5.574c-0.508-2.069-0.579-4.247-0.588-6.364c-0.171,0.1-0.336,0.203-0.5,0.312
				c0.025,1.978,0.128,3.95,0.532,5.893c0.529,2.538,1.714,4.912,3.097,7.085c0.029,0.046,0.066,0.076,0.105,0.095
				c-0.039,0.096-0.076,0.194-0.117,0.292c-2.778-3.141-3.983-7.031-4.929-11.052c-0.074-0.317-0.564-0.182-0.488,0.135
				c0.983,4.174,2.256,8.188,5.189,11.422c-0.231,0.481-0.493,0.949-0.79,1.391c-0.868-0.664-1.474-1.571-2.079-2.479
				c-0.699-1.048-1.268-2.183-1.748-3.345c-0.946-2.293-1.066-4.867-1.174-7.332c-0.388,0.454-0.741,0.937-1.049,1.444
				c-0.063,0.559,0.049,1.191,0.105,1.67c0.132,1.155,0.343,2.3,0.615,3.43c0.422,1.748,1.047,3.453,1.878,5.047
				c-0.311-0.38-0.613-0.766-0.902-1.17c-1.143-1.599-2.069-3.291-2.849-5.094c-0.035-0.083-0.095-0.123-0.159-0.132
				c-0.167-0.022-0.37,0.172-0.277,0.387c0.073,0.167,0.145,0.333,0.219,0.497c0.694,1.53,1.505,2.967,2.459,4.358
				c0.53,0.773,1.106,1.512,1.722,2.216c0.598,0.68,1.359,1.332,1.857,2.096c-0.203,0.179-0.419,0.346-0.643,0.501
				c0.15,0.103,0.302,0.201,0.456,0.294c0.675-0.493,1.223-1.075,1.694-1.722c0.155,0,0.268-0.176,0.231-0.329
				c0.37-0.554,0.694-1.15,0.996-1.776c0.897-1.857,1.537-3.912,2.09-5.895c0.532-1.901,0.859-3.855,0.984-5.826
				C273.721,333.832,273.668,332.979,273.476,332.141z M268.231,349.088c-0.25-0.357-0.562-0.682-0.868-1.003
				c0.015-0.056,0.008-0.12-0.035-0.184c-1.17-1.751-2.016-3.664-2.626-5.677c-0.307-1.015-0.532-2.053-0.713-3.099
				c-0.09-0.529-0.16-1.062-0.221-1.596c-0.049-0.422-0.184-1.258,0.02-1.734c0.13,2.263,0.378,4.531,1.246,6.638
				c0.841,2.038,2.087,4.461,3.908,5.831C268.722,348.555,268.484,348.83,268.231,349.088z"/>
			<path style="fill:#C06C66;" d="M274.877,337.295c-0.361,2.123-0.941,4.206-1.601,6.253c-0.863,2.675-1.787,5.331-2.871,7.923
				c-0.16-0.047-0.321-0.098-0.481-0.155c1.125-2.68,2.075-5.431,2.96-8.2c0.62-1.944,1.189-3.938,1.505-5.956
				c0.327-2.101,0.084-4.034-0.105-6.13c-0.005-0.049,0.003-0.091,0.022-0.125c0.09-0.186,0.437-0.152,0.48,0.1
				c0.003,0.009,0.005,0.017,0.005,0.025C274.984,333.165,275.24,335.159,274.877,337.295z"/>
		</g>
	</g>
	<g>
		<g>
			<path style="fill:#E7A462;" d="M47.324,280.848c0.344,0.297,0.699,0.579,1.07,0.842c0.513,0.367,1.051,0.697,1.604,1h21.705
				c0.31-0.192,0.617-0.391,0.907-0.61c0.112-0.081,0.22-0.17,0.328-0.266c5.205-4.368,9.225-18.555,0.332-21.393
				c-2.089-0.664-4.325-0.236-6.468,0.201c-0.718,0.147-1.421,0.29-2.116,0.413c-0.317,0.058-0.626,0.112-0.938,0.158
				c-0.463,0.07-0.923,0.131-1.379,0.174c-0.124,0.012-0.243,0.023-0.367,0.031c-0.409,0.031-0.815,0.046-1.224,0.046
				c-0.182,0-0.359-0.004-0.541-0.012c-0.653-0.027-1.309-0.1-1.977-0.243c-0.305-0.058-0.614-0.135-0.927-0.228
				c-0.127-0.035-0.259-0.073-0.386-0.116c-1.807-0.595-3.603-1.355-5.487-1.437c-1.363-0.058-2.556,0.209-3.584,0.718
				c-5.615,2.792-6.291,12.96-2.804,18.173C45.718,279.265,46.478,280.111,47.324,280.848z"/>
			<path style="fill:#E59B5D;" d="M47.324,280.848c0.344,0.297,0.699,0.579,1.07,0.842c0.513,0.367,1.051,0.697,1.604,1h21.705
				c0.31-0.192,0.617-0.391,0.907-0.61c0.112-0.081,0.22-0.17,0.328-0.266c5.205-4.368,9.225-18.555,0.332-21.393
				c-2.089-0.664-4.325-0.236-6.468,0.201c-0.231,0.047-0.458,0.093-0.686,0.138c2.621,0.871,4.754,2.702,5.918,5.421
				c2.462,5.756,0.068,13.995-6.551,15.565c-1.896,0.449-4.021,0.394-5.809-0.413c-1.391-0.628-2.546-1.623-3.827-2.433
				c-1.459-0.923-2.867-1.21-4.576-1.158c-2.639,0.08-4.969-0.402-6.914-2.341c-0.383-0.382-0.712-0.791-0.992-1.22
				c0.355,1.529,0.926,2.949,1.708,4.119C45.718,279.265,46.478,280.111,47.324,280.848z"/>
			<path style="fill:#E4955B;" d="M50.286,263.527c0-0.109-0.089-0.198-0.198-0.198c-0.109,0-0.198,0.089-0.198,0.198
				c0,0.109,0.089,0.198,0.198,0.198C50.197,263.725,50.286,263.637,50.286,263.527z"/>
			<path style="fill:#E4955B;" d="M50.892,263.777c0-0.047-0.038-0.084-0.084-0.084c-0.047,0-0.084,0.038-0.084,0.084
				s0.038,0.084,0.084,0.084C50.855,263.861,50.892,263.824,50.892,263.777z"/>
			<path style="fill:#E4955B;" d="M49.868,264.487c-0.047,0-0.084,0.038-0.084,0.084c0,0.047,0.038,0.084,0.084,0.084
				c0.046,0,0.084-0.038,0.084-0.084C49.952,264.525,49.914,264.487,49.868,264.487z"/>
			<path style="fill:#E4955B;" d="M45.96,264.835c0.109,0,0.198-0.089,0.198-0.198c0-0.109-0.089-0.198-0.198-0.198
				c-0.109,0-0.198,0.089-0.198,0.198C45.762,264.746,45.85,264.835,45.96,264.835z"/>
			<path style="fill:#E4955B;" d="M59.089,263.512c0-0.046-0.038-0.084-0.084-0.084c-0.047,0-0.084,0.038-0.084,0.084
				c0,0.047,0.038,0.084,0.084,0.084C59.052,263.596,59.089,263.558,59.089,263.512z"/>
			<path style="fill:#E4955B;" d="M57.981,264.305c0,0.047,0.038,0.084,0.084,0.084c0.046,0,0.084-0.038,0.084-0.084
				c0-0.046-0.038-0.084-0.084-0.084C58.018,264.221,57.981,264.259,57.981,264.305z"/>
			<path style="fill:#E4955B;" d="M55.79,264.485c-0.17,0-0.308,0.138-0.308,0.308c0,0.17,0.138,0.308,0.308,0.308
				c0.17,0,0.308-0.138,0.308-0.308C56.099,264.623,55.96,264.485,55.79,264.485z"/>
			<path style="fill:#E4955B;" d="M60.084,263.293c0,0.109,0.089,0.198,0.198,0.198c0.109,0,0.198-0.089,0.198-0.198
				c0-0.109-0.089-0.198-0.198-0.198C60.173,263.095,60.084,263.184,60.084,263.293z"/>
			<path style="fill:#E4955B;" d="M44.97,263.069c0.046,0,0.084-0.038,0.084-0.084c0-0.046-0.038-0.084-0.084-0.084
				c-0.047,0-0.084,0.038-0.084,0.084C44.886,263.031,44.924,263.069,44.97,263.069z"/>
			<path style="fill:#E4955B;" d="M56.661,262.589c0.046,0,0.084-0.038,0.084-0.084s-0.038-0.084-0.084-0.084
				c-0.047,0-0.084,0.038-0.084,0.084S56.615,262.589,56.661,262.589z"/>
			<path style="fill:#E4955B;" d="M47.066,262.857c0.109,0,0.198-0.089,0.198-0.198c0-0.109-0.089-0.198-0.198-0.198
				c-0.109,0-0.198,0.089-0.198,0.198C46.868,262.768,46.957,262.857,47.066,262.857z"/>
			<path style="fill:#E4955B;" d="M47.787,262.825c-0.047,0-0.084,0.038-0.084,0.084s0.038,0.084,0.084,0.084
				c0.046,0,0.084-0.038,0.084-0.084S47.833,262.825,47.787,262.825z"/>
			<path style="fill:#E4955B;" d="M57.987,261.166c0.021,0,0.04-0.009,0.055-0.022c-0.044-0.01-0.089-0.02-0.133-0.031
				C57.922,261.144,57.952,261.166,57.987,261.166z"/>
			<path style="fill:#E4955B;" d="M54.398,260.305c-0.047,0-0.084,0.038-0.084,0.084s0.038,0.084,0.084,0.084
				c0.046,0,0.084-0.038,0.084-0.084S54.445,260.305,54.398,260.305z"/>
			<path style="fill:#E4955B;" d="M52.679,265.034c0,0.109,0.089,0.198,0.198,0.198c0.109,0,0.198-0.089,0.198-0.198
				c0-0.109-0.089-0.198-0.198-0.198C52.767,264.836,52.679,264.925,52.679,265.034z"/>
			<path style="fill:#E4955B;" d="M50.557,261.263c0.047,0,0.084-0.038,0.084-0.084s-0.038-0.084-0.084-0.084
				c-0.047,0-0.084,0.038-0.084,0.084S50.511,261.263,50.557,261.263z"/>
			<path style="fill:#E4955B;" d="M51.058,260.357c0.046,0,0.084-0.038,0.084-0.084c0-0.046-0.038-0.084-0.084-0.084
				c-0.047,0-0.084,0.038-0.084,0.084C50.974,260.319,51.011,260.357,51.058,260.357z"/>
			<path style="fill:#E4955B;" d="M53.031,262.292c-0.109,0-0.198,0.089-0.198,0.198c0,0.109,0.089,0.198,0.198,0.198
				c0.109,0,0.198-0.089,0.198-0.198C53.229,262.381,53.14,262.292,53.031,262.292z"/>
			<path style="fill:#E4955B;" d="M53.835,262.74c0-0.047-0.038-0.084-0.084-0.084c-0.047,0-0.084,0.038-0.084,0.084
				s0.038,0.084,0.084,0.084C53.798,262.824,53.835,262.786,53.835,262.74z"/>
			<path style="fill:#E4955B;" d="M47.992,265.104c-0.047,0-0.084,0.038-0.084,0.084c0,0.047,0.038,0.084,0.084,0.084
				c0.047,0,0.084-0.038,0.084-0.084C48.076,265.142,48.039,265.104,47.992,265.104z"/>
			<circle style="fill:#E4955B;" cx="73.329" cy="265.065" r="0.198"/>
			<path style="fill:#E4955B;" d="M74.134,265.315c0-0.047-0.038-0.084-0.084-0.084c-0.047,0-0.084,0.038-0.084,0.084
				c0,0.046,0.038,0.084,0.084,0.084C74.096,265.399,74.134,265.361,74.134,265.315z"/>
			<path style="fill:#E4955B;" d="M73.194,266.109c0-0.046-0.038-0.084-0.084-0.084c-0.046,0-0.084,0.038-0.084,0.084
				c0,0.047,0.038,0.084,0.084,0.084C73.156,266.193,73.194,266.155,73.194,266.109z"/>
			<path style="fill:#E4955B;" d="M69.399,266.174c0-0.109-0.089-0.198-0.198-0.198c-0.109,0-0.198,0.089-0.198,0.198
				c0,0.109,0.089,0.198,0.198,0.198C69.31,266.372,69.399,266.284,69.399,266.174z"/>
			<path style="fill:#E4955B;" d="M64.558,262.28c-0.105,0-0.191,0.085-0.191,0.191c0,0.105,0.085,0.191,0.191,0.191
				c0.105,0,0.191-0.085,0.191-0.191C64.748,262.365,64.663,262.28,64.558,262.28z"/>
			<path style="fill:#E4955B;" d="M66.284,261.909c0-0.105-0.085-0.191-0.191-0.191c-0.105,0-0.191,0.085-0.191,0.191
				c0,0.105,0.085,0.191,0.191,0.191C66.198,262.099,66.284,262.014,66.284,261.909z"/>
			<path style="fill:#E4955B;" d="M62.513,263.336c0.079,0,0.143-0.064,0.143-0.143c0-0.079-0.064-0.143-0.143-0.143
				s-0.143,0.064-0.143,0.143C62.37,263.272,62.434,263.336,62.513,263.336z"/>
			<path style="fill:#E4955B;" d="M66.324,264.881c0.047,0,0.084-0.038,0.084-0.084c0-0.046-0.038-0.084-0.084-0.084
				s-0.084,0.038-0.084,0.084C66.24,264.843,66.278,264.881,66.324,264.881z"/>
			<path style="fill:#E4955B;" d="M68.211,264.607c0.047,0,0.084-0.038,0.084-0.084c0-0.046-0.038-0.084-0.084-0.084
				c-0.047,0-0.084,0.038-0.084,0.084C68.127,264.569,68.165,264.607,68.211,264.607z"/>
			<path style="fill:#E4955B;" d="M67.118,262.2c0-0.046-0.038-0.084-0.084-0.084c-0.047,0-0.084,0.038-0.084,0.084
				c0,0.047,0.038,0.084,0.084,0.084C67.08,262.284,67.118,262.246,67.118,262.2z"/>
			<path style="fill:#E4955B;" d="M70.308,264.395c0.109,0,0.198-0.089,0.198-0.198c0-0.109-0.089-0.198-0.198-0.198
				c-0.109,0-0.198,0.089-0.198,0.198C70.11,264.306,70.198,264.395,70.308,264.395z"/>
			<path style="fill:#E4955B;" d="M71.028,264.362c-0.047,0-0.084,0.038-0.084,0.084s0.038,0.084,0.084,0.084
				c0.046,0,0.084-0.038,0.084-0.084S71.075,264.362,71.028,264.362z"/>
			<path style="fill:#E4955B;" d="M76.316,266.572c0-0.109-0.089-0.198-0.198-0.198c-0.109,0-0.198,0.089-0.198,0.198
				c0,0.109,0.089,0.198,0.198,0.198C76.227,266.77,76.316,266.681,76.316,266.572z"/>
			<path style="fill:#E4955B;" d="M64.99,265.381c0-0.047-0.038-0.084-0.084-0.084c-0.047,0-0.084,0.038-0.084,0.084
				c0,0.046,0.038,0.084,0.084,0.084C64.953,265.465,64.99,265.427,64.99,265.381z"/>
			<path style="fill:#E4955B;" d="M61.589,261.814c0.047,0,0.084-0.038,0.084-0.084c0-0.047-0.038-0.084-0.084-0.084
				c-0.047,0-0.084,0.038-0.084,0.084C61.504,261.777,61.542,261.814,61.589,261.814z"/>
			<path style="fill:#E4955B;" d="M69.856,261.2c-0.109,0-0.198,0.089-0.198,0.198c0,0.109,0.089,0.198,0.198,0.198
				c0.109,0,0.198-0.089,0.198-0.198C70.054,261.289,69.965,261.2,69.856,261.2z"/>
			<path style="fill:#E4955B;" d="M73.799,262.801c0.046,0,0.084-0.038,0.084-0.084c0-0.047-0.038-0.084-0.084-0.084
				c-0.047,0-0.084,0.038-0.084,0.084C73.714,262.763,73.752,262.801,73.799,262.801z"/>
			<path style="fill:#E4955B;" d="M74.299,261.895c0.047,0,0.084-0.038,0.084-0.084c0-0.046-0.038-0.084-0.084-0.084
				c-0.047,0-0.084,0.038-0.084,0.084C74.215,261.857,74.253,261.895,74.299,261.895z"/>
			<path style="fill:#E4955B;" d="M63.355,264.273c0-0.123-0.1-0.223-0.223-0.223c-0.123,0-0.223,0.1-0.223,0.223
				c0,0.123,0.1,0.223,0.223,0.223C63.255,264.496,63.355,264.396,63.355,264.273z"/>
			<path style="fill:#E4955B;" d="M76.272,263.83c-0.109,0-0.198,0.089-0.198,0.198c0,0.109,0.089,0.198,0.198,0.198
				c0.109,0,0.198-0.089,0.198-0.198C76.47,263.918,76.381,263.83,76.272,263.83z"/>
			<path style="fill:#E4955B;" d="M77.077,264.277c0-0.047-0.038-0.084-0.084-0.084c-0.047,0-0.084,0.038-0.084,0.084
				c0,0.047,0.038,0.084,0.084,0.084C77.039,264.362,77.077,264.324,77.077,264.277z"/>
			<path style="fill:#E4955B;" d="M71.234,266.642c-0.047,0-0.084,0.038-0.084,0.084c0,0.047,0.038,0.084,0.084,0.084
				c0.046,0,0.084-0.038,0.084-0.084C71.318,266.68,71.28,266.642,71.234,266.642z"/>
			<path style="fill:#E4955B;" d="M66.831,266.418c0-0.047-0.038-0.084-0.084-0.084c-0.046,0-0.084,0.038-0.084,0.084
				s0.038,0.084,0.084,0.084C66.793,266.502,66.831,266.464,66.831,266.418z"/>
			<path style="fill:#E4955B;" d="M63.095,266.109c0,0.047,0.038,0.084,0.084,0.084c0.046,0,0.084-0.038,0.084-0.084
				c0-0.046-0.038-0.084-0.084-0.084C63.132,266.025,63.095,266.062,63.095,266.109z"/>
			<path style="fill:#E4955B;" d="M61.542,265.446c0-0.046-0.038-0.084-0.084-0.084s-0.084,0.038-0.084,0.084
				c0,0.047,0.038,0.084,0.084,0.084S61.542,265.493,61.542,265.446z"/>
			<path style="fill:#E4955B;" d="M60.282,273.566c0.138,0,0.25-0.112,0.25-0.25c0-0.138-0.112-0.251-0.25-0.251
				c-0.138,0-0.25,0.112-0.25,0.251C60.032,273.454,60.144,273.566,60.282,273.566z"/>
			<path style="fill:#E4955B;" d="M58.207,274.605c-0.138,0-0.25,0.112-0.25,0.251c0,0.139,0.112,0.25,0.25,0.25
				c0.138,0,0.25-0.112,0.25-0.25C58.458,274.717,58.346,274.605,58.207,274.605z"/>
			<path style="fill:#E4955B;" d="M58.207,270.311c0.138,0,0.25-0.112,0.25-0.251c0-0.138-0.112-0.25-0.25-0.25
				c-0.138,0-0.251,0.112-0.251,0.25C57.957,270.199,58.069,270.311,58.207,270.311z"/>
			<path style="fill:#E4955B;" d="M53.902,266.761c0.138,0,0.251-0.112,0.251-0.25c0-0.138-0.112-0.251-0.251-0.251
				c-0.138,0-0.25,0.112-0.25,0.251C53.651,266.649,53.763,266.761,53.902,266.761z"/>
			<path style="fill:#E4955B;" d="M44.97,273.114c0.059,0,0.107-0.048,0.107-0.107c0-0.059-0.048-0.107-0.107-0.107
				c-0.059,0-0.107,0.048-0.107,0.107C44.863,273.066,44.911,273.114,44.97,273.114z"/>
			<path style="fill:#E4955B;" d="M56.661,272.634c0.059,0,0.107-0.048,0.107-0.107c0-0.059-0.048-0.107-0.107-0.107
				c-0.059,0-0.107,0.048-0.107,0.107C56.554,272.586,56.602,272.634,56.661,272.634z"/>
			<path style="fill:#E4955B;" d="M59.212,278.021c0.059,0,0.107-0.048,0.107-0.107c0-0.059-0.048-0.107-0.107-0.107
				c-0.059,0-0.107,0.048-0.107,0.107C59.106,277.974,59.153,278.021,59.212,278.021z"/>
			<path style="fill:#E4955B;" d="M58.886,267.745c0,0.059,0.048,0.107,0.107,0.107c0.059,0,0.107-0.048,0.107-0.107
				c0-0.059-0.048-0.107-0.107-0.107C58.934,267.639,58.886,267.686,58.886,267.745z"/>
			<path style="fill:#E4955B;" d="M59.165,274.037c0-0.059-0.048-0.107-0.107-0.107c-0.059,0-0.107,0.048-0.107,0.107
				c0,0.059,0.048,0.107,0.107,0.107C59.118,274.143,59.165,274.096,59.165,274.037z"/>
			<path style="fill:#E4955B;" d="M58.821,270.31c0,0.059,0.048,0.107,0.107,0.107c0.059,0,0.107-0.048,0.107-0.107
				c0-0.059-0.048-0.107-0.107-0.107C58.869,270.203,58.821,270.251,58.821,270.31z"/>
			<path style="fill:#E4955B;" d="M47.066,272.431c-0.138,0-0.25,0.112-0.25,0.251c0,0.139,0.112,0.25,0.25,0.25
				c0.138,0,0.251-0.112,0.251-0.25C47.317,272.543,47.205,272.431,47.066,272.431z"/>
			<path style="fill:#E4955B;" d="M47.787,273.038c0.059,0,0.107-0.048,0.107-0.107c0-0.059-0.048-0.107-0.107-0.107
				c-0.059,0-0.107,0.048-0.107,0.107C47.68,272.99,47.728,273.038,47.787,273.038z"/>
			<path style="fill:#E4955B;" d="M57.881,271.104c0,0.059,0.048,0.107,0.107,0.107c0.059,0,0.107-0.048,0.107-0.107
				c0-0.059-0.048-0.107-0.107-0.107C57.928,270.997,57.881,271.045,57.881,271.104z"/>
			<path style="fill:#E4955B;" d="M54.395,268.448c0,0.139,0.112,0.25,0.25,0.25c0.138,0,0.251-0.112,0.251-0.25
				c0-0.138-0.112-0.251-0.251-0.251C54.507,268.197,54.395,268.31,54.395,268.448z"/>
			<path style="fill:#E4955B;" d="M54.398,270.518c0.059,0,0.107-0.048,0.107-0.107c0-0.059-0.048-0.107-0.107-0.107
				c-0.059,0-0.107,0.048-0.107,0.107C54.292,270.47,54.339,270.518,54.398,270.518z"/>
			<path style="fill:#E4955B;" d="M56.665,268.301c0.059,0,0.107-0.048,0.107-0.107c0-0.059-0.048-0.107-0.107-0.107
				c-0.059,0-0.107,0.048-0.107,0.107C56.558,268.253,56.606,268.301,56.665,268.301z"/>
			<path style="fill:#E4955B;" d="M55.831,268.988c0-0.059-0.048-0.107-0.107-0.107s-0.107,0.048-0.107,0.107
				c0,0.059,0.048,0.107,0.107,0.107S55.831,269.047,55.831,268.988z"/>
			<path style="fill:#E4955B;" d="M54.817,266.73c0-0.059-0.048-0.107-0.107-0.107c-0.059,0-0.107,0.048-0.107,0.107
				c0,0.059,0.048,0.107,0.107,0.107C54.77,266.837,54.817,266.789,54.817,266.73z"/>
			<path style="fill:#E4955B;" d="M47.919,266.689c-0.059,0-0.107,0.048-0.107,0.107c0,0.059,0.048,0.107,0.107,0.107
				c0.059,0,0.107-0.048,0.107-0.107C48.026,266.737,47.978,266.689,47.919,266.689z"/>
			<path style="fill:#E4955B;" d="M45.22,267.51c0,0.059,0.048,0.107,0.107,0.107c0.059,0,0.107-0.048,0.107-0.107
				c0-0.059-0.048-0.107-0.107-0.107C45.268,267.403,45.22,267.451,45.22,267.51z"/>
			<path style="fill:#E4955B;" d="M59.713,276.902c-0.059,0-0.107,0.048-0.107,0.107c0,0.059,0.048,0.107,0.107,0.107
				c0.059,0,0.107-0.048,0.107-0.107C59.82,276.949,59.772,276.902,59.713,276.902z"/>
			<path style="fill:#E4955B;" d="M56.837,277.381c0-0.059-0.048-0.107-0.107-0.107c-0.059,0-0.107,0.048-0.107,0.107
				c0,0.059,0.048,0.107,0.107,0.107C56.789,277.488,56.837,277.44,56.837,277.381z"/>
			<path style="fill:#E4955B;" d="M49.552,267.892c-0.138,0-0.25,0.112-0.25,0.25c0,0.139,0.112,0.251,0.25,0.251
				c0.138,0,0.251-0.112,0.251-0.251C49.803,268.004,49.69,267.892,49.552,267.892z"/>
			<path style="fill:#E4955B;" d="M46.364,269.883c0,0.139,0.112,0.25,0.251,0.25c0.138,0,0.25-0.112,0.25-0.25
				c0-0.138-0.112-0.251-0.25-0.251C46.476,269.632,46.364,269.745,46.364,269.883z"/>
			<circle style="fill:#E4955B;" cx="50.557" cy="271.201" r="0.107"/>
			<path style="fill:#E4955B;" d="M50.297,267.323c0,0.059,0.048,0.107,0.107,0.107c0.059,0,0.107-0.048,0.107-0.107
				c0-0.059-0.048-0.107-0.107-0.107C50.345,267.217,50.297,267.264,50.297,267.323z"/>
			<path style="fill:#E4955B;" d="M51.165,270.295c0-0.059-0.048-0.107-0.107-0.107c-0.059,0-0.107,0.048-0.107,0.107
				c0,0.059,0.048,0.107,0.107,0.107C51.117,270.402,51.165,270.354,51.165,270.295z"/>
			<path style="fill:#E4955B;" d="M44.157,275.943c0,0.099,0.08,0.178,0.178,0.178c0.099,0,0.178-0.08,0.178-0.178
				c0-0.098-0.08-0.178-0.178-0.178C44.236,275.765,44.157,275.845,44.157,275.943z"/>
			<circle style="fill:#E4955B;" cx="44.799" cy="276.395" r="0.278"/>
			<path style="fill:#E4955B;" d="M59.819,268.238c-0.154,0-0.279,0.125-0.279,0.279c0,0.154,0.125,0.279,0.279,0.279
				c0.154,0,0.279-0.125,0.279-0.279C60.098,268.363,59.973,268.238,59.819,268.238z"/>
			<path style="fill:#E4955B;" d="M53.398,276.749c-0.138,0-0.25,0.112-0.25,0.251c0,0.139,0.112,0.25,0.25,0.25
				c0.138,0,0.251-0.112,0.251-0.25C53.649,276.861,53.537,276.749,53.398,276.749z"/>
			<path style="fill:#E4955B;" d="M51.852,279.573c0.059,0,0.107-0.048,0.107-0.107c0-0.059-0.048-0.107-0.107-0.107
				c-0.059,0-0.107,0.048-0.107,0.107C51.746,279.525,51.794,279.573,51.852,279.573z"/>
			<path style="fill:#E4955B;" d="M54.291,274.685c0-0.059-0.048-0.107-0.107-0.107c-0.059,0-0.107,0.048-0.107,0.107
				c0,0.059,0.048,0.107,0.107,0.107C54.243,274.791,54.291,274.743,54.291,274.685z"/>
			<path style="fill:#E4955B;" d="M54.226,277.249c0-0.059-0.048-0.107-0.107-0.107c-0.059,0-0.107,0.048-0.107,0.107
				c0,0.059,0.048,0.107,0.107,0.107C54.178,277.356,54.226,277.308,54.226,277.249z"/>
			<path style="fill:#E4955B;" d="M53.072,278.043c0,0.059,0.048,0.107,0.107,0.107c0.059,0,0.107-0.048,0.107-0.107
				c0-0.059-0.048-0.107-0.107-0.107C53.12,277.937,53.072,277.984,53.072,278.043z"/>
			<path style="fill:#E4955B;" d="M49.836,275.638c0.138,0,0.25-0.112,0.25-0.251c0-0.138-0.112-0.251-0.25-0.251
				c-0.138,0-0.251,0.112-0.251,0.251C49.586,275.526,49.698,275.638,49.836,275.638z"/>
			<path style="fill:#E4955B;" d="M51.856,275.24c0.059,0,0.107-0.048,0.107-0.107c0-0.059-0.048-0.107-0.107-0.107
				c-0.059,0-0.107,0.048-0.107,0.107C51.749,275.192,51.797,275.24,51.856,275.24z"/>
			<path style="fill:#E4955B;" d="M50.916,276.034c0.059,0,0.107-0.048,0.107-0.107c0-0.059-0.048-0.107-0.107-0.107
				c-0.059,0-0.107,0.048-0.107,0.107C50.809,275.986,50.857,276.034,50.916,276.034z"/>
			<path style="fill:#E4955B;" d="M49.795,273.669c0,0.059,0.048,0.107,0.107,0.107c0.059,0,0.107-0.048,0.107-0.107
				c0-0.059-0.048-0.107-0.107-0.107C49.843,273.563,49.795,273.61,49.795,273.669z"/>
			<path style="fill:#E4955B;" d="M55.475,275.455c0,0.108,0.087,0.195,0.195,0.195c0.108,0,0.195-0.087,0.195-0.195
				c0-0.108-0.087-0.195-0.195-0.195C55.562,275.26,55.475,275.347,55.475,275.455z"/>
			<path style="fill:#E4955B;" d="M53.031,272.261c-0.138,0-0.25,0.112-0.25,0.251c0,0.139,0.112,0.25,0.25,0.25
				c0.138,0,0.251-0.112,0.251-0.25C53.281,272.374,53.169,272.261,53.031,272.261z"/>
			<path style="fill:#E4955B;" d="M53.751,272.868c0.059,0,0.107-0.048,0.107-0.107c0-0.059-0.048-0.107-0.107-0.107
				c-0.059,0-0.107,0.048-0.107,0.107C53.645,272.821,53.692,272.868,53.751,272.868z"/>
			<circle style="fill:#E4955B;" cx="60.456" cy="279.06" r="0.195"/>
			<circle style="fill:#E4955B;" cx="46.685" cy="266.675" r="0.195"/>
			<path style="fill:#E4955B;" d="M53.902,279.143c-0.138,0-0.25,0.112-0.25,0.25c0,0.139,0.112,0.25,0.25,0.25
				c0.138,0,0.251-0.112,0.251-0.25C54.152,279.255,54.04,279.143,53.902,279.143z"/>
			<path style="fill:#E4955B;" d="M59.1,280.629c0-0.059-0.048-0.107-0.107-0.107c-0.059,0-0.107,0.048-0.107,0.107
				c0,0.059,0.048,0.107,0.107,0.107C59.052,280.735,59.1,280.688,59.1,280.629z"/>
			<path style="fill:#E4955B;" d="M54.395,281.332c0,0.139,0.112,0.251,0.25,0.251c0.138,0,0.251-0.112,0.251-0.251
				c0-0.138-0.112-0.25-0.251-0.25C54.507,281.081,54.395,281.193,54.395,281.332z"/>
			<path style="fill:#E4955B;" d="M56.558,281.078c0,0.059,0.048,0.107,0.107,0.107c0.059,0,0.107-0.048,0.107-0.107
				c0-0.059-0.048-0.107-0.107-0.107C56.606,280.971,56.558,281.019,56.558,281.078z"/>
			<path style="fill:#E4955B;" d="M61.16,275.826c0.138,0,0.251-0.112,0.251-0.251c0-0.138-0.112-0.251-0.251-0.251
				c-0.138,0-0.25,0.112-0.25,0.251C60.909,275.714,61.021,275.826,61.16,275.826z"/>
			<circle style="fill:#E4955B;" cx="55.725" cy="281.871" r="0.107"/>
			<path style="fill:#E4955B;" d="M54.817,279.614c0-0.059-0.048-0.107-0.107-0.107c-0.059,0-0.107,0.048-0.107,0.107
				c0,0.059,0.048,0.107,0.107,0.107C54.77,279.72,54.817,279.673,54.817,279.614z"/>
			<path style="fill:#E4955B;" d="M47.82,278.555c0,0.059,0.048,0.107,0.107,0.107c0.059,0,0.107-0.048,0.107-0.107
				c0-0.059-0.048-0.107-0.107-0.107C47.868,278.448,47.82,278.496,47.82,278.555z"/>
			<path style="fill:#E4955B;" d="M49.552,281.276c0.138,0,0.251-0.112,0.251-0.251c0-0.138-0.112-0.25-0.251-0.25
				c-0.138,0-0.25,0.112-0.25,0.25C49.302,281.164,49.414,281.276,49.552,281.276z"/>
			<path style="fill:#E4955B;" d="M50.404,280.314c0.059,0,0.107-0.048,0.107-0.107c0-0.059-0.048-0.107-0.107-0.107
				c-0.059,0-0.107,0.048-0.107,0.107C50.297,280.266,50.345,280.314,50.404,280.314z"/>
			<path style="fill:#E4955B;" d="M59.819,281.542c0.154,0,0.279-0.125,0.279-0.279c0-0.154-0.125-0.279-0.279-0.279
				c-0.154,0-0.279,0.125-0.279,0.279C59.54,281.417,59.665,281.542,59.819,281.542z"/>
			<path style="fill:#E4955B;" d="M46.466,278.484c0,0.153,0.124,0.276,0.276,0.276c0.153,0,0.276-0.123,0.276-0.276
				c0-0.152-0.124-0.276-0.276-0.276C46.59,278.208,46.466,278.332,46.466,278.484z"/>
			<path style="fill:#E4955B;" d="M64.619,272.773c0.188,0,0.341-0.152,0.341-0.341c0-0.188-0.153-0.341-0.341-0.341
				c-0.188,0-0.341,0.153-0.341,0.341C64.278,272.62,64.431,272.773,64.619,272.773z"/>
			<path style="fill:#E4955B;" d="M66.746,271.873c0.152,0,0.276-0.123,0.276-0.275c0-0.152-0.123-0.275-0.276-0.275
				c-0.152,0-0.275,0.124-0.275,0.275C66.471,271.75,66.594,271.873,66.746,271.873z"/>
			<path style="fill:#E4955B;" d="M61.836,270.894c0-0.1-0.081-0.181-0.181-0.181s-0.181,0.081-0.181,0.181
				c0,0.1,0.081,0.181,0.181,0.181S61.836,270.994,61.836,270.894z"/>
			<path style="fill:#E4955B;" d="M77.143,268.298c0.138,0,0.25-0.112,0.25-0.25c0-0.138-0.112-0.251-0.25-0.251
				c-0.138,0-0.251,0.112-0.251,0.251C76.893,268.186,77.005,268.298,77.143,268.298z"/>
			<circle style="fill:#E4955B;" cx="66.324" cy="274.819" r="0.107"/>
			<path style="fill:#E4955B;" d="M66.856,279.091c0.059,0,0.107-0.048,0.107-0.107c0-0.059-0.048-0.107-0.107-0.107
				c-0.059,0-0.107,0.048-0.107,0.107C66.75,279.043,66.798,279.091,66.856,279.091z"/>
			<path style="fill:#E4955B;" d="M68.211,274.652c0.059,0,0.107-0.048,0.107-0.107c0-0.059-0.048-0.107-0.107-0.107
				c-0.059,0-0.107,0.048-0.107,0.107C68.105,274.604,68.153,274.652,68.211,274.652z"/>
			<path style="fill:#E4955B;" d="M67.14,272.222c0-0.059-0.048-0.107-0.107-0.107c-0.059,0-0.107,0.048-0.107,0.107
				c0,0.059,0.048,0.107,0.107,0.107C67.093,272.329,67.14,272.281,67.14,272.222z"/>
			<path style="fill:#E4955B;" d="M70.558,274.219c0-0.138-0.112-0.251-0.25-0.251c-0.138,0-0.251,0.112-0.251,0.251
				c0,0.139,0.112,0.25,0.251,0.25C70.446,274.469,70.558,274.357,70.558,274.219z"/>
			<path style="fill:#E4955B;" d="M71.028,274.575c0.059,0,0.107-0.048,0.107-0.107c0-0.059-0.048-0.107-0.107-0.107
				c-0.059,0-0.107,0.048-0.107,0.107C70.921,274.528,70.969,274.575,71.028,274.575z"/>
			<path style="fill:#E4955B;" d="M77.886,269.735c-0.138,0-0.25,0.112-0.25,0.251c0,0.139,0.112,0.251,0.25,0.251
				c0.138,0,0.251-0.112,0.251-0.251C78.137,269.848,78.025,269.735,77.886,269.735z"/>
			<path style="fill:#E4955B;" d="M77.746,271.949c0-0.059-0.048-0.107-0.107-0.107c-0.059,0-0.107,0.048-0.107,0.107
				c0,0.059,0.048,0.107,0.107,0.107C77.699,272.055,77.746,272.008,77.746,271.949z"/>
			<path style="fill:#E4955B;" d="M64.456,268.602c0,0.139,0.112,0.25,0.251,0.25c0.138,0,0.25-0.112,0.25-0.25
				c0-0.138-0.112-0.251-0.25-0.251C64.568,268.352,64.456,268.464,64.456,268.602z"/>
			<path style="fill:#E4955B;" d="M66.529,269.457c0,0.059,0.048,0.107,0.107,0.107c0.059,0,0.107-0.048,0.107-0.107
				c0-0.059-0.048-0.107-0.107-0.107C66.577,269.35,66.529,269.398,66.529,269.457z"/>
			<path style="fill:#E4955B;" d="M65.696,270.357c0.059,0,0.107-0.048,0.107-0.107c0-0.059-0.048-0.107-0.107-0.107
				c-0.059,0-0.107,0.048-0.107,0.107C65.589,270.309,65.637,270.357,65.696,270.357z"/>
			<path style="fill:#E4955B;" d="M63.445,270.693c-0.059,0-0.107,0.048-0.107,0.107c0,0.059,0.048,0.107,0.107,0.107
				c0.059,0,0.107-0.048,0.107-0.107C63.552,270.741,63.504,270.693,63.445,270.693z"/>
			<path style="fill:#E4955B;" d="M78.059,268.268c0-0.059-0.048-0.107-0.107-0.107c-0.059,0-0.107,0.048-0.107,0.107
				c0,0.059,0.048,0.107,0.107,0.107C78.011,268.374,78.059,268.327,78.059,268.268z"/>
			<path style="fill:#E4955B;" d="M71.161,268.227c-0.059,0-0.107,0.048-0.107,0.107c0,0.059,0.048,0.107,0.107,0.107
				c0.059,0,0.107-0.048,0.107-0.107C71.267,268.275,71.219,268.227,71.161,268.227z"/>
			<path style="fill:#E4955B;" d="M68.462,269.048c0,0.059,0.048,0.107,0.107,0.107c0.059,0,0.107-0.048,0.107-0.107
				c0-0.059-0.048-0.107-0.107-0.107C68.509,268.941,68.462,268.989,68.462,269.048z"/>
			<path style="fill:#E4955B;" d="M72.793,269.93c0.138,0,0.251-0.112,0.251-0.251c0-0.138-0.112-0.25-0.251-0.25
				c-0.138,0-0.25,0.112-0.25,0.25C72.543,269.818,72.655,269.93,72.793,269.93z"/>
			<path style="fill:#E4955B;" d="M69.856,271.671c0.138,0,0.25-0.112,0.25-0.251c0-0.138-0.112-0.251-0.25-0.251
				c-0.138,0-0.251,0.112-0.251,0.251C69.606,271.559,69.718,271.671,69.856,271.671z"/>
			<path style="fill:#E4955B;" d="M73.799,272.846c0.059,0,0.107-0.048,0.107-0.107c0-0.059-0.048-0.107-0.107-0.107
				c-0.059,0-0.107,0.048-0.107,0.107C73.692,272.798,73.74,272.846,73.799,272.846z"/>
			<path style="fill:#E4955B;" d="M73.538,268.861c0,0.059,0.048,0.107,0.107,0.107c0.059,0,0.107-0.048,0.107-0.107
				c0-0.059-0.048-0.107-0.107-0.107C73.586,268.754,73.538,268.802,73.538,268.861z"/>
			<path style="fill:#E4955B;" d="M74.406,271.833c0-0.059-0.048-0.107-0.107-0.107c-0.059,0-0.107,0.048-0.107,0.107
				c0,0.059,0.048,0.107,0.107,0.107C74.358,271.939,74.406,271.892,74.406,271.833z"/>
			<path style="fill:#E4955B;" d="M62.187,267.745c0-0.059-0.048-0.107-0.107-0.107c-0.059,0-0.107,0.048-0.107,0.107
				c0,0.059,0.048,0.107,0.107,0.107C62.139,267.852,62.187,267.804,62.187,267.745z"/>
			<path style="fill:#E4955B;" d="M63.132,274.577c0.156,0,0.283-0.126,0.283-0.282c0-0.156-0.126-0.282-0.283-0.282
				c-0.156,0-0.282,0.127-0.282,0.282C62.849,274.451,62.976,274.577,63.132,274.577z"/>
			<circle style="fill:#E4955B;" cx="67.576" cy="277.481" r="0.178"/>
			<path style="fill:#E4955B;" d="M68.318,277.933c0-0.153-0.124-0.278-0.278-0.278c-0.154,0-0.278,0.125-0.278,0.278
				c0,0.154,0.124,0.278,0.278,0.278C68.194,278.211,68.318,278.087,68.318,277.933z"/>
			<path style="fill:#E4955B;" d="M72.827,276.925c0,0.139,0.112,0.251,0.25,0.251c0.138,0,0.251-0.112,0.251-0.251
				c0-0.138-0.112-0.251-0.251-0.251C72.939,276.675,72.827,276.787,72.827,276.925z"/>
			<path style="fill:#E4955B;" d="M74.991,276.671c0,0.059,0.048,0.107,0.107,0.107c0.059,0,0.107-0.048,0.107-0.107
				c0-0.059-0.048-0.107-0.107-0.107C75.039,276.564,74.991,276.612,74.991,276.671z"/>
			<path style="fill:#E4955B;" d="M74.157,277.572c0.059,0,0.107-0.048,0.107-0.107c0-0.059-0.048-0.107-0.107-0.107
				c-0.059,0-0.107,0.048-0.107,0.107C74.051,277.524,74.098,277.572,74.157,277.572z"/>
			<path style="fill:#E4955B;" d="M73.143,275.314c0.059,0,0.107-0.048,0.107-0.107c0-0.059-0.048-0.107-0.107-0.107
				c-0.059,0-0.107,0.048-0.107,0.107C73.037,275.266,73.085,275.314,73.143,275.314z"/>
			<path style="fill:#E4955B;" d="M76.272,274.3c0.138,0,0.25-0.112,0.25-0.25c0-0.138-0.112-0.251-0.25-0.251
				c-0.138,0-0.251,0.112-0.251,0.251C76.022,274.188,76.134,274.3,76.272,274.3z"/>
			<path style="fill:#E4955B;" d="M76.993,274.406c0.059,0,0.107-0.048,0.107-0.107c0-0.059-0.048-0.107-0.107-0.107
				c-0.059,0-0.107,0.048-0.107,0.107C76.886,274.359,76.934,274.406,76.993,274.406z"/>
			<path style="fill:#E4955B;" d="M63.299,278.944c0.108,0,0.195-0.087,0.195-0.195c0-0.108-0.087-0.195-0.195-0.195
				c-0.108,0-0.195,0.088-0.195,0.195C63.104,278.857,63.191,278.944,63.299,278.944z"/>
			<path style="fill:#E4955B;" d="M69.926,268.018c-0.108,0-0.195,0.088-0.195,0.195c0,0.108,0.087,0.195,0.195,0.195
				c0.108,0,0.195-0.087,0.195-0.195C70.121,268.106,70.034,268.018,69.926,268.018z"/>
			<path style="fill:#E4955B;" d="M65.213,280.845c0.138,0,0.251-0.112,0.251-0.251c0-0.138-0.112-0.25-0.251-0.25
				c-0.138,0-0.25,0.112-0.25,0.25C64.962,280.734,65.075,280.845,65.213,280.845z"/>
			<path style="fill:#E4955B;" d="M62.08,281.336c0.138,0,0.251-0.112,0.251-0.25c0-0.138-0.112-0.251-0.251-0.251
				c-0.138,0-0.25,0.112-0.25,0.251C61.83,281.224,61.942,281.336,62.08,281.336z"/>
			<path style="fill:#E4955B;" d="M64.137,276.644c0.138,0,0.251-0.112,0.251-0.25c0-0.138-0.112-0.251-0.251-0.251
				c-0.138,0-0.25,0.112-0.25,0.251C63.886,276.532,63.998,276.644,64.137,276.644z"/>
			<path style="fill:#E4955B;" d="M65.827,280.845c0,0.059,0.048,0.107,0.107,0.107c0.059,0,0.107-0.048,0.107-0.107
				c0-0.059-0.048-0.107-0.107-0.107C65.874,280.738,65.827,280.786,65.827,280.845z"/>
			<path style="fill:#E4955B;" d="M71.061,280.092c0,0.059,0.048,0.107,0.107,0.107c0.059,0,0.107-0.048,0.107-0.107
				c0-0.059-0.048-0.107-0.107-0.107C71.109,279.986,71.061,280.034,71.061,280.092z"/>
			<path style="fill:#E4955B;" d="M67.759,280.436c0,0.059,0.048,0.107,0.107,0.107c0.059,0,0.107-0.048,0.107-0.107
				c0-0.059-0.048-0.107-0.107-0.107C67.807,280.329,67.759,280.377,67.759,280.436z"/>
			<path style="fill:#E4955B;" d="M68.981,282.06c-0.059,0-0.107,0.048-0.107,0.107c0,0.059,0.048,0.107,0.107,0.107
				c0.059,0,0.107-0.048,0.107-0.107C69.088,282.108,69.04,282.06,68.981,282.06z"/>
			<path style="fill:#E4955B;" d="M63.965,282.036c0,0.059,0.048,0.107,0.107,0.107c0.059,0,0.107-0.048,0.107-0.107
				c0-0.059-0.048-0.107-0.107-0.107C64.012,281.929,63.965,281.977,63.965,282.036z"/>
			<path style="fill:#E4955B;" d="M69.984,280.298c0.153,0,0.276-0.123,0.276-0.276c0-0.152-0.124-0.276-0.276-0.276
				s-0.276,0.124-0.276,0.276C69.707,280.175,69.831,280.298,69.984,280.298z"/>
			<path style="fill:#E28D56;" d="M58.411,261.138c-0.05,0.015-0.1,0.035-0.151,0.05c-3.711,1.263-7.078,3.831-8.92,7.314
				c-2.298,4.348-1.672,8.681-0.946,13.187c-0.371-0.263-0.726-0.544-1.07-0.842c-1.695-7.855,1.533-18.949,10.009-19.887
				c0.351-0.039,0.711-0.058,1.077-0.062C58.48,260.899,58.472,261.115,58.411,261.138z"/>
			<path style="fill:#E28D56;" d="M70.505,263.548c2.514,1.46,3.004,4.48,3.255,7.159c0.251,2.634,0.054,5.302-0.602,7.866
				c-0.368,1.44-1.011,2.768-1.582,4.116h0.126c0.31-0.192,0.617-0.391,0.907-0.61c0.112-0.081,0.22-0.17,0.328-0.266
				c0.394-1.112,0.707-2.255,0.946-3.41c0.572-2.765,0.707-5.63,0.382-8.434c-0.259-2.255-0.633-5.117-2.309-6.804
				c-1.765-1.773-4.777-2.375-7.271-2.132c-0.305,0.027-0.599,0.07-0.88,0.124c-0.023,0.004-0.042,0.015-0.058,0.035
				c-0.12,0.127-0.089,0.568,0.058,0.61C66.041,262.463,68.424,262.339,70.505,263.548z"/>
			<path style="fill:#E28D56;" d="M55.665,282.69h1.046c-0.892-2.659-1.61-5.314-1.189-8.349c0.332-2.379,1.437-4.537,2.456-6.681
				c0.973-2.054,1.912-4.128,2.8-6.217c0.054-0.124,0.108-0.243,0.158-0.367c0.058-0.131-0.05-0.799-0.178-0.568
				c-0.17,0.305-0.344,0.614-0.521,0.923c-2.421,4.259-5.198,8.901-5.511,13.821c-0.143,2.228,0.174,4.472,0.726,6.627
				C55.518,282.139,55.594,282.418,55.665,282.69z"/>
			<path style="fill:#E28D56;" d="M62.002,261.397c2.027,4.201,3.947,8.113,4.062,12.898c0.069,2.889-0.451,5.638-1.01,8.395h1.097
				c0.564-3.063,0.758-6.258,0.597-9.194c-0.247-4.464-1.711-8.573-4.379-12.129c-0.1-0.139-0.205-0.278-0.313-0.417
				c-0.116-0.147-0.147,0.266-0.112,0.332C61.963,261.32,61.983,261.359,62.002,261.397z"/>
			<path style="fill:#87976D;" d="M63.753,256.167c-0.068-0.138-0.139-0.276-0.213-0.412c-0.881-1.614-2.578-3.479-4.59-3.987
				c-1.052-0.265-2.152-0.031-2.895,0.694c-1.137,1.11,0.081,2.392,0.809,3.454c0.082,0.12,0.201,0.255,0.356,0.24
				c0.17-0.017,0.242-0.197,0.268-0.347c0.145-0.845-0.017-1.601,1.066-1.904c0.197-0.055,0.41-0.081,0.611-0.033
				c0.254,0.061,0.456,0.232,0.625,0.412c1.379,1.468,0.551,3.193-0.864,4.366c-0.962,0.797-4.389,2.749-1.559,3.328
				c1.451,0.297,2.953,0.388,4.432,0.279c0.95-0.07,3.14-0.037,3.344-1.151c0.043-0.232-0.004-0.471-0.052-0.703
				C64.79,258.959,64.414,257.513,63.753,256.167z"/>
		</g>
		<g>
			<g>
				<ellipse style="fill:#63704A;" cx="104.645" cy="282.298" rx="13.698" ry="2.511"/>
				<g>
					<path style="fill:#F1BA82;" d="M104.645,267.096c-4.68,0-4.68,2.318-4.68,2.318v5.897h4.68h4.68v-5.897
						C109.325,269.414,109.325,267.096,104.645,267.096z"/>
					<g>
						<path style="fill:#F4CC5D;" d="M104.788,255.858c-3.202,7.623-2.401,10.64-1.351,11.831c0.794,0.9,1.908,0.9,2.702,0
							C107.189,266.498,107.99,263.48,104.788,255.858z"/>
						<path style="fill:#E49F41;" d="M104.788,260.768c-1.855,4.415-1.391,6.163-0.782,6.853c0.46,0.521,1.105,0.521,1.565,0
							C106.179,266.931,106.643,265.183,104.788,260.768z"/>
					</g>
					<path style="fill:#819068;" d="M112.435,279.624h-0.124v-0.833h0.031c0.615,0,1.114-0.586,1.114-1.308v-0.834
						c0-0.723-0.499-1.308-1.114-1.308h-0.623c0-0.55-0.446-0.996-0.996-0.996H98.55c-0.55,0-0.996,0.446-0.996,0.996h-0.623
						c-0.615,0-1.114,0.586-1.114,1.308v0.834c0,0.723,0.499,1.308,1.114,1.308h0.031v0.833c-1.04,0-1.44,1.379-0.547,1.912
						c0.72,0.43,1.79,0.762,3.38,0.762h4.841h5.21c1.503,0,2.503-0.343,3.168-0.783
						C113.865,280.952,113.455,279.624,112.435,279.624z"/>
				</g>
			</g>
			<g>
				<path style="fill:#737F5C;" d="M86.891,266.406c0-6.767-7.253-24.297-19.698-28.263c8.153,7.764,17.022,25.196,17.022,28.495
					L86.891,266.406z"/>
				<path style="fill:#87976D;" d="M84.215,266.639c0-11.964,3.262-33.017,7.438-39.82c-1.144,11.793-4.762,39.587-4.762,39.587
					L84.215,266.639z"/>
				<path style="fill:#728254;" d="M84.215,266.639l2.676-0.233c1.246-3.103,8.656-20.585,18.096-26.631
					C91.685,242.884,87.219,257.207,84.215,266.639z"/>
				<path style="fill:#728254;" d="M63.331,248.077c11.485,8.634,19.913,15.889,21.363,18.361l2.766-0.032
					C84.559,259.483,71.252,249.345,63.331,248.077z"/>
				<path style="fill:#87976D;" d="M84.215,266.639l3.245-0.233c0,0,6.852-6.794,14.065-9.923
					C96.334,254.796,86.617,259.529,84.215,266.639z"/>
				<polygon style="fill:#7F4744;" points="92.132,282.086 79.519,282.086 76.74,265.058 94.911,265.058 				"/>
				<rect x="76.74" y="264.825" style="fill:#600B00;" width="18.171" height="0.465"/>
			</g>
			<g>
				<g>
					<polygon style="fill:#AB605B;" points="123.732,281.786 45.82,281.786 45.82,390.408 123.732,312.496 					"/>
				</g>
				<g>
					<polygon style="fill:#AB605B;" points="45.82,390.408 45.82,397.234 123.732,397.234 123.732,312.496 					"/>
				</g>
				<g>
					<path style="fill:#7F4744;" d="M119.713,319.89H50.149v-32.437h69.565V319.89z M52.004,318.035h65.855v-28.727H52.004V318.035z
						"/>
				</g>
				<g>
					<path style="fill:#7F4744;" d="M119.558,355.708H49.994v-32.437h69.565V355.708z M51.849,353.853h65.855v-28.727H51.849
						V353.853z"/>
				</g>
				<g>
					<path style="fill:#7F4744;" d="M119.558,392.895H49.994v-32.437h69.565V392.895z M51.849,391.04h65.855v-28.727H51.849V391.04z
						"/>
				</g>
				<g>
					<circle style="fill:#7F4744;" cx="84.776" cy="295.182" r="1.855"/>
				</g>
				<g>
					<circle style="fill:#7F4744;" cx="84.931" cy="333.211" r="1.855"/>
				</g>
				<g>
					<circle style="fill:#7F4744;" cx="84.931" cy="369.539" r="1.855"/>
				</g>
			</g>
		</g>
	</g>
</g>
</svg>
