<?xml version="1.0" encoding="utf-8"?>
<!-- Generator: Adobe Illustrator 27.5.0, SVG Export Plug-In . SVG Version: 6.00 Build 0)  -->
<svg version="1.1" xmlns="http://www.w3.org/2000/svg" xmlns:xlink="http://www.w3.org/1999/xlink" x="0px" y="0px"
	 viewBox="0 0 650 500" style="enable-background:new 0 0 650 500;" xml:space="preserve">
<g id="BACKGROUND">
	<rect style="fill:#FFFFFF;" width="650" height="500"/>
</g>
<g id="OBJECTS">
	<g>
		<path style="fill:#C7ECFF;" d="M513.006,391.481c15.094-28.48,23.655-60.953,23.655-95.43
			c0-112.718-91.376-204.095-204.095-204.095s-204.095,91.376-204.095,204.095c0,34.477,8.561,66.95,23.655,95.43H513.006z"/>
		<path style="fill:#FFFFFF;" d="M493.837,225.031c0.424,0.605,0.669,1.287,0.603,2.041c-0.227,2.599-3.647,3.326-6.257,3.354
			c-38.516,0.41-76.447-0.561-114.929-2.041c-8.867-0.457-18.358-1.333-25.22-6.967c-0.705-4.914,5.569-7.545,10.491-8.192
			c14.965-1.967,32.493,2.069,45.906-5.55c6.352-3.608,12.517-8.179,19.768-9.063c7.251-0.884,15.878,3.957,15.654,11.259
			c-0.024,0.788-0.141,1.621,0.206,2.329c0.552,1.123,1.984,1.424,3.224,1.592c9.171,1.249,18.343,2.499,27.514,3.748
			c6.992,0.952,14.157,1.96,20.368,5.31C492.163,223.39,493.201,224.124,493.837,225.031z"/>
		<path style="fill:#FFFFFF;" d="M402.822,126.844c0.424,0.605,0.669,1.287,0.603,2.041c-0.227,2.599-3.647,3.326-6.256,3.354
			c-19.976,0.213-39.955,0.052-59.928-0.361c-10.273-0.213-20.546-0.489-30.816-0.822c-7.51-0.244-16.743,1.796-23.602-1.719
			c-1.27-4.991,4.923-8.4,9.944-9.548c10.469-2.394,21.237-3.479,31.973-3.224c2.593-7.961,11.054-13.576,19.397-12.871
			c8.343,0.704,15.743,7.657,16.965,15.94C370.008,120.708,397.303,118.967,402.822,126.844z"/>
		<g>
			<path style="fill:#7CD274;" d="M580.547,398.667c-12.002-3.186-24.754-4.703-37.452-4.473c-2.148,0.039-4.294,0.128-6.434,0.267
				c5.983-1.952,12.665-2.624,18.283-5.135c6.019-2.691,9.318-8.024,6.777-12.218H75.472c-1.16,1.633-1.861,3.62-1.935,6.065
				c-0.053,1.746,0.926,3.44,2.287,4.881c5.443,5.762,15.914,7.476,25.385,8.738c6.193,0.825,35.06,1.868,29.266,8.831
				c-3.446,4.141-17.523,1.53-18.746,8.281c-0.302,1.667,1.351,3.263,3.407,4.043c2.062,0.782,4.457,0.92,6.778,1.043
				c30.347,1.615,60.527-0.485,90.886,0.344c4.246,0.116,14.109,1.925,10.053,6.472c-1.707,1.914-17.064,1.493-15.812,5.467h193.08
				c20.317-0.138,40.633-0.276,60.95-0.414c4.547-0.031,9.557,0.177,14.754,0.414c17.243,0,34.331-0.729,51.43-0.769
				c0.091-1.855-2.064-3.341-4.293-4.073c-2.229-0.732-4.714-1.013-6.785-1.978c-2.072-0.965-3.642-3.009-2.56-4.67
				c2.743-4.214,29.602-1.549,35.414-1.557c9.568-0.014,19.074-0.207,28.236-1.606c3.24-0.495,6.338-1.473,9.045-2.856
				C596.863,408.368,589.877,401.143,580.547,398.667z"/>
			<g>
				<path style="fill:#4A4DE8;" d="M421.908,282.629c3.153-0.662,6.31-1.47,9.474-2.455c-12.518-2.245-24.15-9.126-32.144-19.017
					c-8.969-11.097-15.732-23.522-23.257-35.88c-13.429,20.913-31.659,40.294-47.266,60.066c12.106,0,24.212,0,36.318,0
					C384.485,285.343,403.14,286.571,421.908,282.629z"/>
				<path style="fill:#4A4DE8;" d="M410.184,246.722c1.406-0.116,2.812-0.246,4.216-0.392c-17.66-11.372-31.424-28.68-38.524-48.449
					c-9.094,19.242-23.535,35.923-41.275,47.68c0.186-0.124,6.613,2.365,7.556,2.483c3.208,0.401,5.819-0.513,8.912-0.814
					c6.485-0.631,13.438,0.093,19.993,0.193C384.101,247.622,397.177,247.792,410.184,246.722z"/>
				<path style="fill:#4A4DE8;" d="M390.959,211.742c-3.461-3.374-6.514-7.204-9.014-11.343c-2.71-4.488-4.371-9.591-5.506-14.685
					c-1.43-6.419-1.888-12.947-2.259-19.486c-0.142,0.162-0.27,0.343-0.364,0.558c-0.556,1.278-0.867,2.714-1.22,4.058
					c-0.367,1.4-0.696,2.809-0.999,4.224c-1.191,5.551-1.989,11.177-3.143,16.736c-0.603,2.906-1.339,5.786-2.268,8.595
					c-4.181,7.895-10.035,11.932-20.515,14.656c2.741-0.713,10.824,4.733,14.126,5.158c13.667,1.761,27.224,2.143,40.462-2.089
					C396.697,216.896,393.393,214.115,390.959,211.742z"/>
				<path style="fill:#4A4DE8;" d="M430.537,310.856c-23.141-15.375-39.665-39.44-54.525-63.208
					c-3.579,9.344-10.463,19.858-16.25,28.035c-7.359,10.398-16.1,19.821-25.953,27.897c-6.795,5.569-14.224,10.566-22.566,13.323
					c3.387-1.119,11.724,1.774,15.496,2.096c5.999,0.513,12.022,0.697,18.041,0.682c10.035-0.026,20.382-2.257,30.234-2.048
					c10.246,0.217,20.186,4.384,30.79,4.202c11.063-0.19,22.1-2.309,32.406-6.346C435.572,314.051,433.016,312.504,430.537,310.856z
					"/>
				<path style="fill:#4A4DE8;" d="M434.455,355.32l-59.189-75.306c-0.203-0.258-0.648-0.26-0.853-0.003L314.21,355.3
					c-1.571,1.965,0.103,4.609,2.917,4.609h114.396C434.325,359.909,436.001,357.286,434.455,355.32z"/>
			</g>
			<path style="fill:#001E8A;" d="M223.964,338.704c-5.286,2.643-19.204-15.563-21.552-18.924
				c-4.355-6.233-5.734-14.749-11.574-19.605c9.027-0.085,17.669-1.422,25.893-5.355c-11.362-5.206-21.62-12.806-29.909-22.16
				c7.771,0.935,15.778-0.177,23-3.194c-16.146-3.081-30.296-15.064-35.995-30.481c9.017-0.111,18.004-2.232,26.12-6.162
				c-11.875-7.661-22.417-17.382-31.015-28.598c7.817,0.262,15.683-1.038,22.999-3.801c-4.451-0.131-8.536-2.743-11.447-6.112
				c-2.911-3.369-4.829-7.462-6.711-11.498c-3.732-8.004-7.529-16.263-7.957-25.084c-5.217,18.759-17.946,35.314-34.735,45.175
				c7.405,3.252,16.518,2.223,23.011-2.599c-5.581,20.147-19.432,37.869-37.635,48.15c7.535,3.222,16.793,1.974,23.207-3.127
				c-5.548,12.144-14.291,22.812-25.109,30.637c6.051,2.351,13.01,2.266,19.002-0.234c-6.355,9.641-14.783,17.909-24.545,24.077
				c5.202,2.421,19.022,6.317,23.099,0.326c-5.446,4.865-14.824,1.297-21.294,1.13c5.622,3.064,12.842,3.722,19.103,2.577
				c-11.929,17.1-28.295,31.075-47.052,40.179c11.448,5.602,24.333,3.996,36.419,1.875c11.49-2.017,25.002,0.8,36.842,1.077
				C180.403,347.54,201.373,349.696,223.964,338.704z"/>
			<path style="fill:#4A4DE8;" d="M134.305,315.981c7.832-1.212,14.07-4.95,21.159-8.068c-4.295,1.889-14.629-6.662-17.728-8.886
				c-5.566-3.994-10.445-7.649-13.22-14.213c5.058,0.893,10.641,1.695,15.018-0.992c-10.311-5.381-18.45-14.791-22.289-25.77
				c5.166,1.721,10.973,1.438,15.946-0.78c-13.419-6.635-25.001-26.314-23.581-41.608c-1.494,16.104-8.387,34.771-24.716,40.709
				c5.126,1.569,10.645,1.833,15.896,0.76c-5.537,13.648-15.909,25.278-28.837,32.335c7.986,0.872,16.206-0.503,23.474-3.928
				c-8.348,13.538-21.075,24.328-35.797,30.348c9.044,3.128,16.931,1.398,25.827-0.434c-1.762,6.607-5.8,13.082-9.851,18.551
				c-2.373,3.203-5.121,6.304-8.743,7.969c-2.64,1.214-5.577,1.586-8.46,1.944c0.4-0.05,4.343,3.824,5.141,4.277
				c2.377,1.347,4.739,1.656,7.304,2.354c5.39,1.467,10.404,2.463,16.084,1.873c8.395-0.872,16.635-2.49,24.87-3.696
				c8.711-1.276,17.961,0.138,26.734,0.005c10.03-0.152,20.458-1.663,28.734-7.331C153.563,337.59,141.474,328.268,134.305,315.981z
				"/>
			<g>
				<path style="fill:#66AD60;" d="M128.683,284.225c-2.242,0.345-5.006-0.469-7.25-0.757c-0.883,3.51-0.758,7.678-0.413,11.218
					c0.009,0.093,0.02,0.191,0.076,0.267c0.064,0.087,0.175,0.125,0.278,0.157c1.705,0.542,3.411,1.083,5.117,1.625
					c-1.347,0.758-2.962,0.821-4.507,0.867c-0.577,0.017-1.154,0.034-1.73,0.051c-0.286,0.008,1.09,8.161,1.261,8.869
					c0.764,3.171,1.85,6.264,3.24,9.214c3.219-0.833,6.628-0.925,9.887-0.266c-1.327,2.224-3.799,3.721-6.385,3.866
					c0.019-0.001,6.218,9.092,7.001,9.864c6.352,6.265,12.997,8.991,17.987,16.895c3.429,5.432,6.62,11.236,9.347,17.193
					l6.871,2.156c2.329-7.056,3.294-14.54,3.767-21.953c0.301-4.72,1.016-9.44,0.695-14.18c-0.337-4.989-1.955-9.992-3.761-14.623
					c-2.48,0.858-4.959,1.716-7.439,2.573c2.073-1.851,4.434-3.38,6.972-4.513c-2.507-4.343-5.014-8.686-7.521-13.029
					c-0.784-1.091-1.137-2.462-1.911-3.599c-0.063-0.093-0.135-0.193-0.242-0.227c-0.094-0.03-0.196-0.003-0.291,0.025
					c-1.467,0.425-2.908,0.939-4.382,1.337c-1.163,0.314-3.271,1.045-4.465,0.642c-0.973-0.329-0.137-0.737,0.472-1.221
					c0.607-0.481,1.225-0.948,1.856-1.396c0.326-0.232,3.594-2.559,3.757-2.384c-2.671-2.883-4.56-6.072-6.913-9.138
					c-2.715-3.539-4.803-5.132-6.66-9.145c-1.394,0.898-5.83,3.604-7.255,4.452c0.857-1.365,3.404-6.182,4.394-7.454
					c-2-1.64-3.958-3.318-5.924-4.999c-1.91-1.633-3.931-3.135-6.045-4.494c-0.006-0.004-3.459,8.283-3.733,9.068
					c-0.553,1.584-1.058,3.185-1.512,4.801c-0.19,0.676-1.377,3.439-1.088,3.961c0.124,0.225,0.374,0.346,0.605,0.458
					c1.341,0.648,2.594,1.456,3.81,2.32C127.334,283.214,128.009,283.72,128.683,284.225z M156.536,309.421
					c0.465-0.932,1.621-1.923,2.644-2.206c1.885-0.521,1.477,2.146,0.563,2.928c-0.426,0.364-1.683,0.65-2.531,0.508
					C156.565,310.542,156.156,310.184,156.536,309.421z M157.917,301.96c0.439-0.061,0.919,0.021,1.248,0.318
					c0.416,0.374,0.504,1.019,0.337,1.554c-0.167,0.534-0.547,0.976-0.954,1.36c-0.929,0.877-2.056,1.545-3.271,1.939
					c-0.352,0.114-0.727,0.206-1.09,0.13c-0.362-0.076-0.704-0.366-0.725-0.735c-0.023-0.381,0.048-0.765,0.189-1.141
					C154.289,303.687,156.383,302.174,157.917,301.96z M128.759,306.199c0.645-0.366,1.348-0.489,2.08-0.348
					c0.589,0.114,1.151,0.363,1.665,0.668c0.21,0.124,0.379,0.277,0.466,0.513c0.017,0.046,0.028,0.097,0.037,0.149
					c0.103,0.134,0.171,0.293,0.179,0.46c0.024,0.518-0.322,0.928-0.832,0.999c-1.289,0.179-2.678-0.105-3.668-0.987
					C128.278,307.289,128.227,306.501,128.759,306.199z M128.133,276.615c-0.961-0.84-2.836-3.97-0.268-2.731
					c0.688,0.332,1.415,0.896,2.06,1.507c0.429,0.406,0.822,0.833,1.143,1.227c0.225,0.275,0.456,0.666,0.25,0.955
					c-0.146,0.205-0.439,0.232-0.69,0.21C129.698,277.703,128.836,277.23,128.133,276.615z"/>
				<path style="fill:none;stroke:#1D2144;stroke-width:0.5;stroke-miterlimit:10;" d="M132.735,277.871
					c0.972,8.083,2.133,16.316,5.75,23.61c2.095,4.225,4.958,8.013,7.717,11.838c6.108,8.469,11.966,17.747,12.767,28.158"/>
			</g>
			<g>
				<path style="fill:#66AD60;" d="M416.454,259.048c-11,4.833-21.853,10.179-32.528,16.023c0.936,2.855,1.119,6.079,0.513,9.066
					c-0.046-0.804-2.267-6.351-2.537-6.045c-7.582,8.591-15.107,17.258-22.575,26.001c-1.112,1.302-2.243,2.637-2.965,4.307
					c-1.366,3.156-1.116,6.696-0.53,10.031c0.651,3.701,0.715,7.157,0.741,11.006c0.004,0.548,0.016,1.132,0.225,1.591
					c0.013,0.027,0.026,0.054,0.04,0.081c0.59,1.12,2.332,1.241,2.092,2.583c-0.651,0.414-1.429,0.434-2.091,0.054
					c0.156,9.536-1.185,19.496-2.443,28.846c-0.543,4.039-1.907,9.27-1.854,13.966h4.326c1.556-5.974,2.457-13.661,3.507-18.261
					c2.254-9.878,4.508-19.756,6.762-29.634c0.557-2.44,1.128-4.922,2.188-7.025c1.116-2.214,2.706-3.879,4.27-5.505
					c1.735-1.805,3.421-3.696,5.136-5.534c0.984-1.055,1.968-2.137,3.001-3.101c0.748-0.698,1.582-0.661,2.313-1.272
					c-0.296-0.266-3.318-3.178-3.068-3.61c0.143-0.271,0.446-0.2,0.678-0.1c1.153,0.497,2.306,0.993,3.46,1.49
					c0.163,0.07,0.332,0.142,0.503,0.124c0.215-0.022,0.408-0.182,0.591-0.338c1.964-1.667,4.063-2.31,6.181-3.361
					c2.084-1.034,3.82-3.08,5.962-4.085c1.361-0.638,2.775-1.061,4.116-1.774c1.143-0.607,3.757-1.714,4.495-3.099
					c1.109-2.083-1.043-2.996-2.053-4.436c1.72-0.577,3.466,1.372,5.207,0.923c1.27-0.327,2.174-1.829,2.965-3.231
					c-0.176,0.313-3.047-3.394-2.63-4.549c0.622-1.724,2.749,1.099,3.674,0.387c0.178-0.137,0.314-0.356,0.444-0.572
					c1.655-2.741,3.092-5.692,4.362-8.793c1.085-2.651,2.606-4.957,3.604-7.722c0.837-2.318,2.052-5.229,1.847-7.819
					C421.732,256.762,419.089,257.891,416.454,259.048z"/>
				<path style="fill:none;stroke:#1D2144;stroke-width:0.5;stroke-miterlimit:10;" d="M408.974,275.928
					c-15.456,11.888-31.629,19.719-43.045,40.602c-0.951,2.61-1.903,6.526-2.854,9.137c-3.805,15.662-5.708,31.325-7.996,47.019"/>
				<path style="fill:#7CD274;" d="M460.076,260.576c-6.828,2.836-12.203,9.564-18.428,14.179c0.08,2.111-0.254,4.249-0.958,6.13
					c-0.685-1.085-1.165-2.41-1.382-3.813c-2.569,2.437-5.25,4.649-8.024,6.618c0.473,3.986,0.849,8.52-1.007,11.654
					c-0.545-3.378-0.902-6.813-1.065-10.265c-2.04,1.67-4.355,2.299-6.52,3.558c-2.751,1.599-5.494,3.217-8.265,4.749
					c-5.542,3.063-11.144,5.919-16.799,8.562c-5.806,2.714-11.819,5.315-16.576,10.628c-8.169,9.124-10.968,23.877-15.356,36.394
					c-2.336,6.664-4.268,13.483-6.095,20.485c-0.465,1.782-0.855,4.322-1.253,7.103h7.609c8.751-11.959,18.05-23.19,27.342-34.373
					c2.222-2.675,4.909-6.256,7.764-7.608c-1.003-2.887-2.007-5.774-3.01-8.661c1.663,0.581,2.787,2.59,3.734,4.398
					c0.41,0.783,1.055,2.452,1.65,2.788c0.649,0.367,2.255-0.226,2.964-0.324c3.967-0.548,7.91-1.61,11.718-3.236
					c0.642-0.274,1.273-0.592,1.909-0.895c0.401-0.192,0.804-0.378,1.212-0.543c0.913-0.37,2.008-1.306,2.975-1.056
					c-0.558-0.36-1.012-0.701-1.335-1.467c-0.255-0.606-0.452-1.286-0.844-1.734c0.68,0.005,1.367,0.209,1.954,0.679
					c0.509,0.408,0.938,1.009,1.49,1.292c0.601,0.308,1.282,0.196,1.879-0.123c1.746-0.934,3.489-2.467,5.188-3.606
					c1.884-1.263,3.737-2.622,5.482-4.223c9.508-8.726,17.856-22.483,24.023-35.604c-1.188,0.394-2.12-1.912-1.533-3.384
					c0.586-1.472,2.012-1.938,3.216-1.648c0.485,0.117,1.016,0.319,1.444-0.015c0.298-0.232,0.469-0.674,0.626-1.091
					c2.814-7.484,5.92-14.761,9.302-21.789C470.097,256.413,465.087,258.495,460.076,260.576z"/>
				<path style="fill:none;stroke:#1D2144;stroke-width:0.5;stroke-miterlimit:10;" d="M464.253,271.731
					c-1.288,0.422-1.288,0.422-2.239,0.422c-14.27,14.357-27.589,28.715-43.761,37.851c-8.562,3.916-17.124,5.221-25.686,9.136
					c-9.513,18.273-19.978,33.935-27.978,53.51"/>
			</g>
			<path style="fill:#66AD60;" d="M82.598,377.108c0.204,0.842,0.616,1.651,1.192,2.291c1.479,1.641,3.688,2.422,5.827,3.033
				c2.35,0.671,4.725,1.186,7.114,1.601h439.371c3.331-0.44,6.651-0.924,9.958-1.472c2.414-0.4,4.942-0.882,6.826-2.423
				c0.753-0.617,1.353-1.46,1.706-2.372c0.083-0.216,0.148-0.436,0.203-0.658H82.598z"/>
			<g>
				<g>
					<line style="fill:none;stroke:#222221;stroke-miterlimit:10;" x1="206.441" y1="68.077" x2="206.441" y2="102.062"/>
					<line style="fill:none;stroke:#222221;stroke-miterlimit:10;" x1="196.883" y1="74.94" x2="225.558" y2="74.94"/>
					<polygon style="fill:#4A4DE8;" points="236.614,80.332 218.777,80.332 218.777,69.384 236.614,69.384 230.673,74.858 					"/>
					<circle style="fill:#FF5C74;" cx="195.249" cy="75.103" r="5.585"/>
				</g>
				<polygon style="fill:#FFD573;" points="165.965,378.431 239.109,378.431 239.109,134.813 201.707,102.532 165.965,134.813 				
					"/>
				<rect x="172.951" y="159.564" style="fill:#FF5C74;" width="183.211" height="218.868"/>
				<rect x="264.823" y="171.716" style="fill:#FF5C74;" width="65.631" height="52.962"/>
				<polygon style="fill:#FFD573;" points="366.085,165.027 221.783,165.027 221.783,124.061 353.98,124.061 				"/>
				<polygon style="fill:#001E8A;" points="356.343,283.33 282.129,272.043 278.322,232.748 356.343,232.33 				"/>
				<polygon style="fill:#FFD573;" points="368.622,261.145 245.205,260.338 245.205,219.371 356.517,219.371 				"/>
				<polygon style="fill:#001E8A;" points="248.52,261.174 234.023,261.174 234.023,124.094 273.538,124.094 255.783,165.027 
					255.729,219.167 265.421,219.162 				"/>
				<polygon style="fill:#FFD573;" points="242.631,135.191 246.401,134.232 206.131,92.569 159.605,135.617 166.586,136.212 				
					"/>
				<polygon style="fill:#001E8A;" points="246.254,135.191 251.864,135.765 208.045,94.735 165.211,136.276 				"/>
				<polygon style="fill:#FF5C74;" points="172.653,378.431 245.797,378.431 245.797,134.813 208.395,102.532 172.653,134.813 				
					"/>
				<polygon style="fill:#E87883;" points="179.992,378.64 238.458,378.64 238.458,140.397 208.562,111.729 179.992,140.397 				"/>
				<path style="fill:#001E8A;stroke:#FFD573;stroke-width:2;stroke-miterlimit:10;" d="M209.225,128.241
					c-7.446,0-13.481,6.036-13.481,13.481h26.963C222.707,134.277,216.671,128.241,209.225,128.241z"/>
				<rect x="208" y="122.597" style="fill:#E87883;" width="2.451" height="25.082"/>
				<polygon style="fill:#001E8A;" points="232.67,228.568 190.623,228.568 190.623,158.757 227.828,158.757 				"/>
				<rect x="193.95" y="162.22" style="fill:#A0D5FF;" width="30.551" height="62.885"/>
				<rect x="191.25" y="209.097" style="fill:#001E8A;" width="35.951" height="2.75"/>
				<rect x="281.376" y="170.253" style="fill:#FF5C74;" width="38.737" height="101.79"/>
				<polygon style="fill:#001E8A;" points="328.35,267.201 328.35,170.253 319.877,170.253 319.877,272.043 				"/>
				<polygon style="fill:#FFFFFF;" points="282.129,272.043 282.129,170.253 273.656,170.253 273.656,267.201 				"/>
				<path style="fill:#001E8A;" d="M230.098,360.665h-41.803v-81.098c0-11.544,9.358-20.901,20.901-20.901h0
					c11.544,0,20.901,9.358,20.901,20.901V360.665z"/>
				<g>
					<polygon style="fill:#001E8A;" points="339.589,174.503 298.655,135.765 299.491,174.503 					"/>
					<polygon style="fill:#FFFFFF;" points="299.491,174.503 298.655,135.765 260.141,174.503 					"/>
					<polygon style="fill:#E87883;" points="317.278,175.188 298.655,135.765 281.361,175.188 					"/>
				</g>
				<g>
					<polygon style="fill:#001E8A;" points="312.99,220.207 291.577,220.207 291.577,187.183 309.762,187.183 					"/>
					<rect x="293.084" y="188.697" style="fill:#A0D5FF;" width="15.065" height="29.995"/>
					<rect x="292.105" y="196.072" style="fill:#001E8A;" width="16.721" height="1.034"/>
				</g>
				<g>
					<polygon style="fill:#001E8A;" points="312.99,267.305 291.577,267.305 291.577,234.281 309.762,234.281 					"/>
					<rect x="293.084" y="235.795" style="fill:#A0D5FF;" width="15.065" height="29.995"/>
					<rect x="292.105" y="243.17" style="fill:#001E8A;" width="16.721" height="1.034"/>
				</g>
				<rect x="260.13" y="286.326" style="fill:#001E8A;" width="2.256" height="51.905"/>
				<g>
					<polygon style="fill:#001E8A;" points="252.904,338.928 347.622,338.928 342.644,285.629 252.904,285.629 					"/>
					<rect x="255.301" y="287.439" style="fill:#A0D5FF;" width="84.469" height="49.679"/>
					<rect x="289.299" y="286.326" style="fill:#001E8A;" width="2.256" height="51.905"/>
					<rect x="323.311" y="286.326" style="fill:#001E8A;" width="2.256" height="51.905"/>
					<rect x="252.904" y="324.819" style="fill:#001E8A;" width="89.069" height="2.613"/>
				</g>
				<path style="fill:#A0D5FF;" d="M224.321,278.451c-1.793-7.447-7.876-12.938-15.125-12.938c-7.249,0-13.332,5.491-15.125,12.938
					H224.321z"/>
				<rect x="207.826" y="261.006" style="fill:#001E8A;" width="2.74" height="17.445"/>
				<rect x="233.785" y="352.305" style="fill:#E87883;" width="122.378" height="26.127"/>
				<g>
					<rect x="185.882" y="350.116" style="fill:#FFD573;" width="44.395" height="5.705"/>
					<rect x="181.528" y="355.821" style="fill:#001E8A;" width="50.596" height="5.705"/>
					<rect x="177.784" y="361.526" style="fill:#FFD573;" width="56.862" height="5.705"/>
					<rect x="172.599" y="367.23" style="fill:#001E8A;" width="65.215" height="5.705"/>
					<rect x="169.483" y="372.935" style="fill:#FFD573;" width="71.233" height="5.705"/>
				</g>
				<g>
					<path style="fill:#001E8A;stroke:#FFD573;stroke-width:2;stroke-miterlimit:10;" d="M282.899,372.306h-25.273l0,0
						c0-6.556,5.315-11.872,11.872-11.872h1.53C277.584,360.434,282.899,365.749,282.899,372.306L282.899,372.306z"/>
					<path style="fill:#001E8A;stroke:#FFD573;stroke-width:2;stroke-miterlimit:10;" d="M335.426,372.306h-25.273l0,0
						c0-6.556,5.315-11.872,11.872-11.872h1.53C330.111,360.434,335.426,365.749,335.426,372.306L335.426,372.306z"/>
				</g>
				<path style="fill:#FFD573;" d="M225.904,309.199c0,1.287-1.044,2.331-2.331,2.331c-1.287,0-2.331-1.044-2.331-2.331
					c0-1.287,1.044-2.331,2.331-2.331C224.86,306.868,225.904,307.912,225.904,309.199z"/>
				
					<rect x="199.174" y="291.158" transform="matrix(0.9842 0.1769 -0.1769 0.9842 55.493 -32.4911)" style="fill:#FF5C74;" width="21.56" height="7.593"/>
			</g>
			<g>
				<path style="fill:#7CD274;" d="M146.428,318.384c-3.755-3.939-8.002-7.382-12.373-10.608c-2.397-1.77-4.801-3.532-7.279-5.187
					c-1.416-0.945-2.868-1.912-4.363-2.728c-1.454-0.793-1.692-0.545-2.764,0.67c-0.883,1.002-1.778,1.995-2.667,2.992
					c0.171-1.081,0.379-2.157,0.623-3.224c0.175-0.765,0.863-2.152,0.682-2.92c-0.202-0.855-1.237-1.361-1.926-1.857
					c-0.801-0.577-3.768-3.207-4.627-3.103c-0.521,0.063-1.615,1.593-2.013,1.975c-0.773,0.742-1.562,1.466-2.368,2.172
					c0.547-0.568,1.006-9.778,1.463-9.582c-2.974-1.276-5.782-2.939-8.33-4.934c-2.549,6.409-4.265,13.149-5.092,19.996
					c1.686,0.386,3.246,0.893,4.868,1.4c1.026,0.32,4.372,1.387,5.352,0.96c-0.872,0.379-1.561,1.073-2.355,1.596
					c-1.402,0.926-3.068,1.275-4.715,1.451c-1.117,0.12-2.593,0.604-3.66,0.501c-0.567,2.212-0.032,5.258,0.189,7.54
					c0.162,1.671,1.376,4.974,0.668,6.459c1.257-0.279,2.457-0.211,3.728-0.072c0.66,0.072,3.053,0.695,3.579,0.213
					c-0.813,0.747-1.679,1.436-2.589,2.061c-0.818,0.562-2.168,0.99-2.847,1.671c-0.719,0.721-0.504,0.857-0.128,1.984
					c0.619,1.854,1.256,4.326,2.423,5.921c3.242-1.061,6.366-2.702,9.576-3.9c-2.671,2.738-5.501,5.322-8.471,7.732
					c0.323-0.262,7.368,7.588,8.148,8.282c3.765,3.352,7.92,6.279,12.294,8.78c1.76-2.359,4.561-4.721,7.569-4.305
					c0.724,0.1,1.148,0.828,1.062,1.508c-0.277,2.193-2.218,3.952-3.966,5.243c14.686,6.997,30.254,7.74,31.624-10.381
					C158.569,335.798,153.809,326.128,146.428,318.384z M102.981,295.423c-0.146-0.043-0.285-0.127-0.413-0.212
					c-0.592-0.396-1.138-0.861-1.624-1.383c-0.422-0.453-0.802-1.171-0.401-1.643c0.298-0.351,0.854-0.315,1.286-0.155
					c0.726,0.269,3.359,3.046,1.443,3.412C103.174,295.461,103.076,295.451,102.981,295.423z M108.426,315.307
					c-0.057,0.283-0.299,0.577-0.809,0.867c-0.465,0.264-1.014,0.333-1.549,0.348c-1.235,0.034-3.034-0.116-4.04-0.916
					c-0.885-0.704-0.954-1.666,0.169-2.158c1.103-0.484,2.794-0.239,3.919,0.015C107.004,313.664,108.603,314.43,108.426,315.307z
					 M121.073,341.669c-0.573,1.374-1.972,2.104-3.341,2.468c-0.72,0.191-1.453,0.328-2.187,0.452
					c-0.316,0.053-0.632,0.105-0.946,0.163c-0.128,0.024-0.275,0.072-0.408,0.083c-0.003,0-0.005,0.001-0.008,0.001
					c-0.049,0.013-0.098,0.025-0.147,0.039c-0.035,0.009-0.069,0.013-0.103,0.02c-0.455,0.258-1.054,0.2-1.481-0.119
					c-0.577-0.431-0.599-1.294-0.185-1.835c1.832-2.396,5.541-4.778,8.445-2.824C121.196,340.443,121.279,341.175,121.073,341.669z"
					/>
				<path style="fill:none;stroke:#1D2144;stroke-width:0.5;stroke-miterlimit:10;" d="M107.957,301.862
					c7.407,6.353,10.932,16.021,16.633,23.94c4.732,6.573,10.954,11.913,16.243,18.046c6.308,7.313,11.253,15.717,15.386,24.446"/>
			</g>
			<g>
				<g>
					<polygon style="fill:#FFD573;" points="364.579,378.942 364.579,347.96 360.598,339.858 356.545,347.96 356.545,378.942 					
						"/>
					<polygon style="fill:#FFD573;" points="373.667,378.942 373.667,347.96 369.686,339.858 365.633,347.96 365.633,378.942 					
						"/>
					<polygon style="fill:#FFD573;" points="382.756,378.942 382.756,347.96 378.775,339.858 374.722,347.96 374.722,378.942 					
						"/>
					<polygon style="fill:#FFD573;" points="391.844,378.942 391.844,347.96 387.863,339.858 383.81,347.96 383.81,378.942 					"/>
					<polygon style="fill:#FFD573;" points="400.933,378.942 400.933,347.96 396.952,339.858 392.899,347.96 392.899,378.942 					
						"/>
					<polygon style="fill:#FFD573;" points="410.022,378.942 410.022,347.96 406.04,339.858 401.987,347.96 401.987,378.942 					
						"/>
					<polygon style="fill:#FFD573;" points="419.11,378.942 419.11,347.96 415.129,339.858 411.076,347.96 411.076,378.942 					"/>
					<polygon style="fill:#FFD573;" points="428.199,378.942 428.199,347.96 424.218,339.858 420.165,347.96 420.165,378.942 					
						"/>
				</g>
				<rect x="364.687" y="347.96" style="fill:#001E8A;" width="1.069" height="30.983"/>
				<rect x="373.755" y="347.96" style="fill:#001E8A;" width="1.069" height="30.983"/>
				<rect x="382.824" y="347.96" style="fill:#001E8A;" width="1.069" height="30.983"/>
				<rect x="391.893" y="347.96" style="fill:#001E8A;" width="1.069" height="30.983"/>
				<rect x="400.961" y="347.96" style="fill:#001E8A;" width="1.069" height="30.983"/>
				<rect x="410.03" y="347.96" style="fill:#001E8A;" width="1.069" height="30.983"/>
				<rect x="419.098" y="347.96" style="fill:#001E8A;" width="1.069" height="30.983"/>
			</g>
			<g>
				<g>
					<polygon style="fill:#FFD573;" points="102.415,378.942 102.415,347.96 98.434,339.858 94.381,347.96 94.381,378.942 					"/>
					<polygon style="fill:#FFD573;" points="111.504,378.942 111.504,347.96 107.523,339.858 103.47,347.96 103.47,378.942 					"/>
					<polygon style="fill:#FFD573;" points="120.592,378.942 120.592,347.96 116.611,339.858 112.558,347.96 112.558,378.942 					
						"/>
					<polygon style="fill:#FFD573;" points="129.681,378.942 129.681,347.96 125.7,339.858 121.647,347.96 121.647,378.942 					"/>
					<polygon style="fill:#FFD573;" points="138.77,378.942 138.77,347.96 134.788,339.858 130.735,347.96 130.735,378.942 					"/>
					<polygon style="fill:#FFD573;" points="147.858,378.942 147.858,347.96 143.877,339.858 139.824,347.96 139.824,378.942 					
						"/>
					<polygon style="fill:#FFD573;" points="156.947,378.942 156.947,347.96 152.966,339.858 148.913,347.96 148.913,378.942 					
						"/>
					<polygon style="fill:#FFD573;" points="166.035,378.942 166.035,347.96 162.054,339.858 158.001,347.96 158.001,378.942 					
						"/>
				</g>
				<rect x="102.523" y="347.96" style="fill:#001E8A;" width="1.069" height="30.983"/>
				<rect x="111.592" y="347.96" style="fill:#001E8A;" width="1.069" height="30.983"/>
				<rect x="120.661" y="347.96" style="fill:#001E8A;" width="1.069" height="30.983"/>
				<g>
					<path style="fill:#4A4DE8;" d="M125.506,378.942h4.175v-2.527C128.294,377.265,126.903,378.108,125.506,378.942z"/>
					<path style="fill:#4A4DE8;" d="M135.137,373.028c-1.463,0.918-2.93,1.831-4.401,2.738v3.176h8.034v-8.211
						C137.56,371.498,136.35,372.266,135.137,373.028z"/>
					<path style="fill:#4A4DE8;" d="M139.824,370.064v8.878h8.034V364.94C145.181,366.649,142.505,368.36,139.824,370.064z"/>
					<path style="fill:#4A4DE8;" d="M148.913,364.267v14.675h8.034v-19.755C154.261,360.868,151.584,362.563,148.913,364.267z"/>
					<path style="fill:#4A4DE8;" d="M166.035,350.334v-1.12c-2.476,1.911-4.976,3.79-7.502,5.635
						C161.02,353.319,163.517,351.809,166.035,350.334z"/>
					<path style="fill:#4A4DE8;" d="M158.001,358.529v20.413h8.034v-25.33C163.34,355.224,160.665,356.867,158.001,358.529z"/>
				</g>
				<rect x="129.729" y="347.96" style="fill:#001E8A;" width="1.069" height="30.983"/>
				<rect x="138.798" y="347.96" style="fill:#001E8A;" width="1.069" height="30.983"/>
				<rect x="147.866" y="347.96" style="fill:#001E8A;" width="1.069" height="30.983"/>
				<rect x="156.935" y="347.96" style="fill:#001E8A;" width="1.069" height="30.983"/>
			</g>
			<g>
				<polyline style="fill:none;stroke:#1D2144;stroke-width:2;stroke-miterlimit:10;" points="486.732,380.224 486.732,364.247 
					540.154,364.247 540.154,381.065 				"/>
				<polygon style="fill:#FF5C74;" points="541.693,368.204 452.272,368.204 436.993,347.395 452.272,324.91 541.693,324.91 				"/>
				<text transform="matrix(1 0 0 1 457.4316 357.7373)" style="fill:#FFFFFF; font-family:'D-DIN-Bold'; font-size:33.232px;">Sale</text>
			</g>
			
				<line style="fill:none;stroke:#66AD60;stroke-width:2;stroke-miterlimit:10;" x1="156.307" y1="402.727" x2="412.535" y2="402.727"/>
			
				<line style="fill:none;stroke:#66AD60;stroke-width:2;stroke-miterlimit:10;" x1="269.087" y1="411.63" x2="440.235" y2="411.63"/>
			
				<line style="fill:none;stroke:#66AD60;stroke-width:2;stroke-miterlimit:10;" x1="453.096" y1="411.63" x2="491.679" y2="411.63"/>
			
				<line style="fill:none;stroke:#66AD60;stroke-width:2;stroke-miterlimit:10;" x1="232.483" y1="425.48" x2="321.52" y2="425.48"/>
			
				<ellipse transform="matrix(0.2313 -0.9729 0.9729 0.2313 180.7712 554.0881)" style="fill:#FFD573;" cx="441.014" cy="162.652" rx="15.504" ry="15.504"/>
		</g>
	</g>
</g>
</svg>
