<svg xmlns="http://www.w3.org/2000/svg" xmlns:xlink="http://www.w3.org/1999/xlink" width="500" zoomAndPan="magnify" viewBox="0 0 375 374.999991" height="500" preserveAspectRatio="xMidYMid meet" version="1.0"><defs><g/><clipPath id="6735136705"><path d="M 60 37.40625 L 159 37.40625 L 159 177 L 60 177 Z M 60 37.40625 " clip-rule="nonzero"/></clipPath><clipPath id="08423ccf57"><path d="M 223 37.40625 L 322 37.40625 L 322 174 L 223 174 Z M 223 37.40625 " clip-rule="nonzero"/></clipPath><clipPath id="b54913d061"><path d="M 51.085938 102 L 339.835938 102 L 339.835938 275.90625 L 51.085938 275.90625 Z M 51.085938 102 " clip-rule="nonzero"/></clipPath></defs><g clip-path="url(#6735136705)"><path fill="#ffffff" d="M 131.335938 148.621094 L 131.335938 104.449219 C 131.335938 97.730469 131.335938 92.054688 131.382812 87.488281 C 131.382812 82.976562 131.433594 79.140625 131.484375 76.09375 C 131.484375 73.046875 131.585938 70.425781 131.648438 68.222656 L 131.960938 62.027344 C 132.175781 56.5625 133.164062 52.363281 134.84375 49.480469 C 136.527344 46.644531 139.46875 44.804688 143.621094 44.066406 C 145.511719 43.753906 147.191406 43.488281 148.660156 43.328125 C 150.125 43.164062 151.492188 43.113281 152.757812 43.113281 C 154.648438 43.113281 156.066406 42.902344 157.007812 42.539062 C 157.957031 42.113281 158.425781 41.332031 158.425781 40.28125 C 158.425781 39.179688 157.898438 38.4375 156.796875 38.023438 C 155.691406 37.597656 154.011719 37.449219 151.804688 37.449219 C 148.710938 37.449219 145.238281 37.5 141.464844 37.609375 C 137.730469 37.660156 133.957031 37.820312 130.171875 37.921875 C 126.386719 38.023438 122.925781 38.136719 119.765625 38.238281 C 116.621094 38.339844 114.050781 38.398438 112.097656 38.398438 C 109.152344 38.398438 105.265625 38.289062 100.328125 38.136719 C 95.390625 37.972656 90.035156 37.820312 84.15625 37.722656 C 78.277344 37.558594 72.5 37.457031 66.71875 37.457031 C 64.515625 37.40625 62.886719 37.621094 61.78125 38.035156 C 60.679688 38.449219 60.101562 39.1875 60.101562 40.292969 C 60.101562 41.34375 60.578125 42.132812 61.46875 42.546875 C 62.410156 42.914062 63.726562 43.125 65.457031 43.125 C 67.761719 43.125 70.03125 43.175781 72.335938 43.335938 C 74.59375 43.488281 76.433594 43.761719 77.742188 44.074219 C 81.152344 44.765625 83.832031 45.867188 85.726562 47.335938 C 87.617188 48.75 88.984375 50.695312 89.824219 53.113281 C 90.613281 55.46875 91.140625 58.464844 91.289062 62.039062 L 91.605469 68.230469 C 91.65625 70.4375 91.765625 73.058594 91.816406 76.105469 C 91.816406 79.152344 91.867188 82.984375 91.867188 87.5 C 91.917969 92.0625 91.917969 97.738281 91.917969 104.460938 L 91.917969 176.148438 C 105.507812 167.625 118.652344 158.425781 131.335938 148.621094 " fill-opacity="1" fill-rule="evenodd"/></g><g clip-path="url(#08423ccf57)"><path fill="#ffffff" d="M 255.441406 87.480469 C 255.492188 92.042969 255.492188 97.71875 255.492188 104.4375 L 255.492188 146.121094 C 268.171875 155.828125 281.347656 164.914062 294.875 173.394531 L 294.875 104.4375 C 294.875 97.71875 294.875 92.042969 294.925781 87.480469 C 294.925781 82.964844 294.976562 79.128906 295.027344 76.085938 L 295.179688 68.210938 L 295.492188 62.019531 C 295.707031 56.554688 296.699219 52.355469 298.386719 49.46875 C 300.066406 46.636719 303.011719 44.792969 307.160156 44.054688 C 309.054688 43.742188 310.734375 43.480469 312.203125 43.316406 C 313.667969 43.15625 315.035156 43.105469 316.300781 43.105469 C 318.191406 43.105469 319.609375 42.890625 320.550781 42.527344 C 321.492188 42.101562 321.964844 41.324219 321.964844 40.269531 C 321.964844 39.167969 321.441406 38.429688 320.335938 38.015625 C 319.234375 37.589844 317.554688 37.4375 315.347656 37.4375 C 312.253906 37.4375 308.78125 37.488281 305.058594 37.597656 C 301.273438 37.648438 297.496094 37.8125 293.714844 37.914062 L 283.308594 38.226562 C 280.164062 38.328125 277.582031 38.390625 275.640625 38.390625 C 273.484375 38.390625 270.699219 38.339844 267.339844 38.226562 C 264.03125 38.125 260.246094 38.015625 256.160156 37.914062 C 252.0625 37.8125 247.761719 37.648438 243.347656 37.597656 C 238.9375 37.5 234.574219 37.4375 230.273438 37.4375 C 228.066406 37.386719 226.4375 37.597656 225.335938 38.015625 C 224.230469 38.429688 223.65625 39.167969 223.65625 40.269531 C 223.65625 41.324219 224.128906 42.113281 225.019531 42.527344 C 225.960938 42.890625 227.277344 43.105469 229.007812 43.105469 C 231.316406 43.105469 233.582031 43.15625 235.890625 43.316406 C 238.144531 43.46875 239.988281 43.742188 241.292969 44.054688 C 244.703125 44.742188 247.386719 45.847656 249.277344 47.3125 C 251.222656 48.730469 252.535156 50.675781 253.375 53.09375 C 254.164062 55.449219 254.691406 58.445312 254.84375 62.019531 C 254.996094 63.960938 255.105469 66.066406 255.15625 68.210938 C 255.257812 70.417969 255.308594 73.039062 255.371094 76.085938 C 255.390625 79.128906 255.441406 82.957031 255.441406 87.480469 " fill-opacity="1" fill-rule="evenodd"/></g><g clip-path="url(#b54913d061)"><path fill="#ffffff" d="M 255.441406 211.625 C 255.390625 220.136719 255.277344 227.746094 255.015625 234.527344 C 254.804688 241.308594 254.4375 246.921875 253.914062 251.386719 C 253.539062 254.433594 253.023438 257.214844 252.382812 259.683594 C 251.757812 262.101562 250.855469 264.148438 249.652344 265.664062 C 248.5 267.242188 246.871094 268.296875 244.765625 268.710938 C 243.347656 269.023438 241.71875 269.339844 239.824219 269.601562 C 237.933594 269.8125 235.777344 269.964844 233.421875 269.964844 C 231.578125 269.964844 230.273438 270.179688 229.484375 270.644531 C 228.753906 271.058594 228.382812 271.695312 228.382812 272.484375 C 228.382812 273.589844 228.957031 274.378906 230.0625 274.902344 C 231.164062 275.378906 232.792969 275.640625 235 275.640625 C 238.144531 275.640625 241.566406 275.59375 245.339844 275.480469 L 256.585938 275.167969 C 260.367188 275.066406 263.777344 274.953125 266.925781 274.851562 C 270.023438 274.753906 272.542969 274.703125 274.382812 274.703125 C 277.378906 274.703125 281.425781 274.800781 286.519531 274.964844 C 291.558594 275.125 297.285156 275.226562 303.691406 275.390625 C 310.046875 275.550781 316.664062 275.652344 323.546875 275.652344 C 325.488281 275.652344 327.015625 275.390625 328.109375 274.914062 C 329.261719 274.386719 329.839844 273.597656 329.839844 272.496094 C 329.839844 271.707031 329.414062 271.078125 328.636719 270.652344 C 327.796875 270.179688 326.53125 269.976562 324.800781 269.976562 C 323.222656 269.976562 321.441406 269.925781 319.496094 269.8125 L 313.832031 269.347656 C 311.9375 269.136719 310.257812 268.921875 308.742188 268.71875 C 305.644531 268.304688 303.226562 267.253906 301.546875 265.726562 C 299.917969 264.148438 298.710938 262.152344 297.972656 259.734375 C 297.234375 257.367188 296.707031 254.644531 296.445312 251.699219 C 295.917969 247.136719 295.554688 241.457031 295.34375 234.628906 C 295.128906 227.796875 294.976562 220.136719 294.925781 211.625 C 294.898438 206.847656 294.886719 201.902344 294.875 196.769531 C 301.667969 200.816406 308.488281 204.695312 315.308594 208.398438 L 340.039062 208.398438 C 286.640625 181.652344 235.699219 146.6875 194.976562 102.75 C 153.707031 145.707031 104.839844 182.453125 51.117188 208.398438 L 76.234375 208.398438 C 81.503906 205.574219 86.738281 202.628906 91.929688 199.582031 C 91.917969 203.710938 91.90625 207.71875 91.886719 211.625 C 91.835938 220.136719 91.675781 227.746094 91.472656 234.527344 C 91.261719 241.308594 90.894531 246.921875 90.371094 251.386719 C 90.003906 254.433594 89.480469 257.214844 88.851562 259.683594 C 88.214844 262.101562 87.324219 264.148438 86.121094 265.664062 C 84.964844 267.242188 83.335938 268.296875 81.230469 268.710938 C 79.816406 269.023438 78.1875 269.339844 76.292969 269.601562 C 74.402344 269.8125 72.246094 269.964844 69.886719 269.964844 C 68.046875 269.964844 66.742188 270.179688 65.953125 270.644531 C 65.210938 271.058594 64.847656 271.695312 64.847656 272.484375 C 64.847656 273.589844 65.375 274.378906 66.476562 274.902344 C 67.53125 275.378906 69.097656 275.640625 71.152344 275.640625 C 74.359375 275.640625 77.871094 275.59375 81.65625 275.480469 L 93 275.167969 C 96.785156 275.066406 100.246094 274.953125 103.402344 274.851562 C 106.5 274.753906 109.019531 274.703125 110.863281 274.703125 C 113.859375 274.703125 117.90625 274.800781 122.996094 274.964844 C 128.035156 275.125 133.761719 275.226562 140.117188 275.390625 C 146.523438 275.550781 153.140625 275.652344 160.023438 275.652344 C 161.964844 275.652344 163.484375 275.390625 164.585938 274.914062 C 165.742188 274.386719 166.316406 273.597656 166.316406 272.496094 C 166.316406 271.707031 165.890625 271.078125 165.113281 270.652344 C 164.273438 270.179688 163.007812 269.976562 161.277344 269.976562 C 159.648438 269.976562 157.917969 269.925781 155.976562 269.8125 L 150.308594 269.347656 C 148.414062 269.136719 146.734375 268.921875 145.21875 268.722656 C 142.121094 268.304688 139.703125 267.253906 138.023438 265.726562 C 136.34375 264.148438 135.191406 262.152344 134.449219 259.734375 C 133.710938 257.367188 133.1875 254.644531 132.933594 251.699219 C 132.40625 247.136719 132.042969 241.457031 131.828125 234.628906 C 131.617188 227.796875 131.464844 220.136719 131.414062 211.625 C 131.363281 203.066406 131.363281 193.976562 131.363281 184.261719 L 131.363281 173.960938 C 154.183594 157.585938 175.636719 139.421875 194.925781 120.195312 C 212.675781 138.207031 233.410156 155.402344 255.523438 171.128906 L 255.523438 184.261719 C 255.492188 193.988281 255.492188 203.074219 255.441406 211.625 " fill-opacity="1" fill-rule="evenodd"/></g><path fill="#ffffff" d="M 172.703125 167.222656 L 191.929688 167.222656 L 191.929688 186.449219 L 172.703125 186.449219 Z M 172.703125 167.222656 " fill-opacity="1" fill-rule="evenodd"/><path fill="#ffffff" d="M 199.257812 167.222656 L 218.484375 167.222656 L 218.484375 186.449219 L 199.257812 186.449219 Z M 199.257812 167.222656 " fill-opacity="1" fill-rule="evenodd"/><path fill="#ffffff" d="M 172.703125 193.773438 L 191.929688 193.773438 L 191.929688 213.003906 L 172.703125 213.003906 Z M 172.703125 193.773438 " fill-opacity="1" fill-rule="evenodd"/><path fill="#ffffff" d="M 199.257812 193.773438 L 218.484375 193.773438 L 218.484375 213.003906 L 199.257812 213.003906 Z M 199.257812 193.773438 " fill-opacity="1" fill-rule="evenodd"/><g fill="#ffffff" fill-opacity="1"><g transform="translate(87.160045, 329.024925)"><g><path d="M 18.921875 -21.46875 L 18.921875 0 L 16.109375 0 L 16.109375 -9.734375 L 5.171875 -9.734375 L 5.171875 0 L 2.375 0 L 2.375 -21.46875 L 5.171875 -21.46875 L 5.171875 -12.046875 L 16.109375 -12.046875 L 16.109375 -21.46875 Z M 18.921875 -21.46875 "/></g></g></g><g fill="#ffffff" fill-opacity="1"><g transform="translate(113.350557, 329.024925)"><g><path d="M 12.109375 0.21875 C 10.117188 0.21875 8.300781 -0.25 6.65625 -1.1875 C 5.007812 -2.125 3.707031 -3.425781 2.75 -5.09375 C 1.800781 -6.769531 1.328125 -8.65625 1.328125 -10.75 C 1.328125 -12.84375 1.800781 -14.726562 2.75 -16.40625 C 3.707031 -18.082031 5.007812 -19.382812 6.65625 -20.3125 C 8.300781 -21.25 10.117188 -21.71875 12.109375 -21.71875 C 14.117188 -21.71875 15.945312 -21.25 17.59375 -20.3125 C 19.238281 -19.382812 20.53125 -18.085938 21.46875 -16.421875 C 22.414062 -14.753906 22.890625 -12.863281 22.890625 -10.75 C 22.890625 -8.632812 22.414062 -6.742188 21.46875 -5.078125 C 20.53125 -3.421875 19.238281 -2.125 17.59375 -1.1875 C 15.945312 -0.25 14.117188 0.21875 12.109375 0.21875 Z M 12.109375 -2.21875 C 13.609375 -2.21875 14.957031 -2.566406 16.15625 -3.265625 C 17.363281 -3.960938 18.3125 -4.957031 19 -6.25 C 19.6875 -7.550781 20.03125 -9.050781 20.03125 -10.75 C 20.03125 -12.476562 19.6875 -13.984375 19 -15.265625 C 18.3125 -16.546875 17.367188 -17.535156 16.171875 -18.234375 C 14.984375 -18.929688 13.628906 -19.28125 12.109375 -19.28125 C 10.585938 -19.28125 9.226562 -18.929688 8.03125 -18.234375 C 6.84375 -17.535156 5.90625 -16.546875 5.21875 -15.265625 C 4.53125 -13.984375 4.1875 -12.476562 4.1875 -10.75 C 4.1875 -9.050781 4.53125 -7.550781 5.21875 -6.25 C 5.90625 -4.957031 6.847656 -3.960938 8.046875 -3.265625 C 9.253906 -2.566406 10.609375 -2.21875 12.109375 -2.21875 Z M 12.109375 -2.21875 "/></g></g></g><g fill="#ffffff" fill-opacity="1"><g transform="translate(142.437303, 329.024925)"><g><path d="M 24.15625 -21.328125 L 24.15625 0 L 21.359375 0 L 21.359375 -15.90625 L 14.265625 0 L 12.296875 0 L 5.171875 -15.9375 L 5.171875 0 L 2.375 0 L 2.375 -21.328125 L 5.390625 -21.328125 L 13.28125 -3.703125 L 21.171875 -21.328125 Z M 24.15625 -21.328125 "/></g></g></g><g fill="#ffffff" fill-opacity="1"><g transform="translate(173.834867, 329.024925)"><g><path d="M 5.171875 -19.203125 L 5.171875 -12.015625 L 13 -12.015625 L 13 -9.703125 L 5.171875 -9.703125 L 5.171875 -2.3125 L 13.921875 -2.3125 L 13.921875 0 L 2.375 0 L 2.375 -21.5 L 13.921875 -21.5 L 13.921875 -19.203125 Z M 5.171875 -19.203125 "/></g></g></g><g fill="#ffffff" fill-opacity="1"><g transform="translate(194.510208, 329.024925)"><g><path d="M 1.578125 -2.25 C 4.179688 -4.34375 6.222656 -6.0625 7.703125 -7.40625 C 9.179688 -8.75 10.425781 -10.15625 11.4375 -11.625 C 12.457031 -13.09375 12.96875 -14.535156 12.96875 -15.953125 C 12.96875 -17.296875 12.644531 -18.351562 12 -19.125 C 11.351562 -19.894531 10.3125 -20.28125 8.875 -20.28125 C 7.476562 -20.28125 6.394531 -19.84375 5.625 -18.96875 C 4.851562 -18.09375 4.4375 -16.925781 4.375 -15.46875 L 1.65625 -15.46875 C 1.738281 -17.769531 2.4375 -19.546875 3.75 -20.796875 C 5.070312 -22.046875 6.769531 -22.671875 8.84375 -22.671875 C 10.957031 -22.671875 12.632812 -22.085938 13.875 -20.921875 C 15.125 -19.753906 15.75 -18.140625 15.75 -16.078125 C 15.75 -14.378906 15.238281 -12.722656 14.21875 -11.109375 C 13.195312 -9.492188 12.039062 -8.070312 10.75 -6.84375 C 9.457031 -5.625 7.804688 -4.207031 5.796875 -2.59375 L 16.390625 -2.59375 L 16.390625 -0.25 L 1.578125 -0.25 Z M 1.578125 -2.25 "/></g></g></g><g fill="#ffffff" fill-opacity="1"><g transform="translate(217.095821, 329.024925)"><g><path d="M 19.265625 0 L 16.453125 0 L 5.171875 -17.09375 L 5.171875 0 L 2.375 0 L 2.375 -21.5 L 5.171875 -21.5 L 16.453125 -4.4375 L 16.453125 -21.5 L 19.265625 -21.5 Z M 19.265625 0 "/></g></g></g><g fill="#ffffff" fill-opacity="1"><g transform="translate(243.625243, 329.024925)"><g><path d="M 5.171875 -19.203125 L 5.171875 -12.015625 L 13 -12.015625 L 13 -9.703125 L 5.171875 -9.703125 L 5.171875 -2.3125 L 13.921875 -2.3125 L 13.921875 0 L 2.375 0 L 2.375 -21.5 L 13.921875 -21.5 L 13.921875 -19.203125 Z M 5.171875 -19.203125 "/></g></g></g><g fill="#ffffff" fill-opacity="1"><g transform="translate(264.300584, 329.024925)"><g><path d="M 9.1875 0.21875 C 7.769531 0.21875 6.5 -0.03125 5.375 -0.53125 C 4.257812 -1.039062 3.378906 -1.738281 2.734375 -2.625 C 2.097656 -3.519531 1.769531 -4.554688 1.75 -5.734375 L 4.75 -5.734375 C 4.851562 -4.722656 5.269531 -3.875 6 -3.1875 C 6.726562 -2.5 7.789062 -2.15625 9.1875 -2.15625 C 10.519531 -2.15625 11.570312 -2.488281 12.34375 -3.15625 C 13.113281 -3.820312 13.5 -4.679688 13.5 -5.734375 C 13.5 -6.554688 13.269531 -7.222656 12.8125 -7.734375 C 12.363281 -8.242188 11.800781 -8.632812 11.125 -8.90625 C 10.445312 -9.175781 9.53125 -9.460938 8.375 -9.765625 C 6.957031 -10.140625 5.820312 -10.507812 4.96875 -10.875 C 4.125 -11.25 3.394531 -11.828125 2.78125 -12.609375 C 2.175781 -13.398438 1.875 -14.46875 1.875 -15.8125 C 1.875 -16.976562 2.171875 -18.015625 2.765625 -18.921875 C 3.367188 -19.828125 4.207031 -20.523438 5.28125 -21.015625 C 6.363281 -21.503906 7.601562 -21.75 9 -21.75 C 11.007812 -21.75 12.65625 -21.242188 13.9375 -20.234375 C 15.226562 -19.234375 15.953125 -17.898438 16.109375 -16.234375 L 13.03125 -16.234375 C 12.925781 -17.054688 12.492188 -17.78125 11.734375 -18.40625 C 10.972656 -19.03125 9.96875 -19.34375 8.71875 -19.34375 C 7.550781 -19.34375 6.597656 -19.039062 5.859375 -18.4375 C 5.117188 -17.832031 4.75 -16.988281 4.75 -15.90625 C 4.75 -15.125 4.96875 -14.484375 5.40625 -13.984375 C 5.84375 -13.492188 6.382812 -13.117188 7.03125 -12.859375 C 7.6875 -12.609375 8.597656 -12.316406 9.765625 -11.984375 C 11.179688 -11.597656 12.320312 -11.210938 13.1875 -10.828125 C 14.050781 -10.453125 14.789062 -9.867188 15.40625 -9.078125 C 16.019531 -8.285156 16.328125 -7.210938 16.328125 -5.859375 C 16.328125 -4.804688 16.050781 -3.816406 15.5 -2.890625 C 14.945312 -1.972656 14.125 -1.222656 13.03125 -0.640625 C 11.945312 -0.0664062 10.664062 0.21875 9.1875 0.21875 Z M 9.1875 0.21875 "/></g></g></g><g fill="#ffffff" fill-opacity="1"><g transform="translate(287.255936, 329.024925)"><g><path d="M 15.59375 -21.46875 L 15.59375 -19.203125 L 9.734375 -19.203125 L 9.734375 0 L 6.9375 0 L 6.9375 -19.203125 L 1.046875 -19.203125 L 1.046875 -21.46875 Z M 15.59375 -21.46875 "/></g></g></g></svg>