<svg width="52" height="52" viewBox="0 0 52 52" fill="none" xmlns="http://www.w3.org/2000/svg"><path fill-rule="evenodd" clip-rule="evenodd" d="M8.35768 25.8121V23.8922C8.35768 23.6437 8.15009 23.4692 7.90095 23.4397L0.453781 22.5345C0.204648 22.5049 0 22.7386 0 22.9871V26.7174C0 26.9659 0.204648 27.1996 0.453781 27.17L7.90095 26.2647C8.15009 26.2352 8.35768 26.0606 8.35768 25.8121Z" fill="#2D5871"/><path fill-rule="evenodd" clip-rule="evenodd" d="M10.33 5.01919L14.9241 10.9355C15.0783 11.1337 15.3333 11.2224 15.5468 11.0923L17.2018 10.1102C17.4154 9.98306 17.4599 9.71676 17.359 9.48896L14.319 2.64375C14.2182 2.41594 13.9127 2.35978 13.6963 2.48693L10.4872 4.39793C10.2707 4.52509 10.1757 4.82389 10.33 5.01919Z" fill="#2D5871"/><path fill-rule="evenodd" clip-rule="evenodd" d="M37.678 2.64375L34.641 9.48896C34.5401 9.71676 34.5816 9.98296 34.7982 10.1102L36.4502 11.0923C36.6638 11.2225 36.9188 11.1338 37.073 10.9355L41.67 5.01919C41.8212 4.82399 41.7264 4.52519 41.5128 4.39793L38.3008 2.48693C38.0873 2.35978 37.7788 2.41594 37.678 2.64375Z" fill="#2D5871"/><path fill-rule="evenodd" clip-rule="evenodd" d="M51.5433 22.5345L44.0961 23.4397C43.847 23.4692 43.6423 23.6438 43.6423 23.8922V25.8121C43.6423 26.0606 43.847 26.2351 44.0961 26.2646L51.5433 27.1699C51.7924 27.1994 52 26.9657 52 26.7173V22.987C52 22.7386 51.7924 22.5049 51.5433 22.5345Z" fill="#2D5871"/><path fill-rule="evenodd" clip-rule="evenodd" d="M14.319 49.3562L17.359 42.511C17.4599 42.2832 17.4154 42.017 17.2018 41.8897L15.5468 40.9046C15.3332 40.7775 15.0782 40.8662 14.9241 41.0644L10.33 46.9807C10.1757 47.1759 10.2707 47.4718 10.4872 47.602L13.6963 49.513C13.9127 49.6401 14.2182 49.584 14.319 49.3562Z" fill="#2D5871"/><path fill-rule="evenodd" clip-rule="evenodd" d="M34.641 42.511L37.678 49.3562C37.7788 49.584 38.0873 49.6402 38.3008 49.513L41.5128 47.602C41.7264 47.4719 41.8212 47.1761 41.67 46.9808L37.073 41.0644C36.9188 40.8663 36.6637 40.7775 36.4502 40.9047L34.7982 41.8897C34.5816 42.017 34.5401 42.2832 34.641 42.511Z" fill="#2D5871"/><path fill-rule="evenodd" clip-rule="evenodd" d="M42.3846 35.6812C39.3086 35.2564 35.6005 36.4471 32.4052 38.5439C32.3999 38.547 32.3947 38.5501 32.3895 38.5533C29.7947 40.2597 27.54 42.5637 26.2405 45.0842C26.1391 45.2829 25.8587 45.2829 25.7561 45.0842C22.8579 39.4563 15.195 34.9123 9.61517 35.6813C9.38808 35.7127 9.22487 35.4637 9.34837 35.2701C12.7456 29.9456 12.8461 21.1108 9.40382 16.6914C9.40281 16.6903 9.40068 16.6882 9.39966 16.6861C9.25839 16.5051 9.39235 16.2425 9.62249 16.2529C9.64656 16.254 9.67164 16.255 9.69571 16.255C15.9692 16.4905 23.5944 12.2185 25.7488 7.09177C25.8419 6.86996 26.1569 6.87626 26.251 7.09807C27.2 9.35174 29.2067 11.4412 31.6916 13.0535C31.7105 13.066 31.7303 13.0776 31.7492 13.0901C34.9225 15.1355 38.865 16.4036 42.3752 16.2529C42.6053 16.2425 42.7393 16.5072 42.598 16.6892C39.1536 21.1077 39.2541 29.9434 42.6503 35.269C42.7749 35.4636 42.6127 35.7126 42.3846 35.6812Z" fill="#F5821F"/><path fill-rule="evenodd" clip-rule="evenodd" d="M37.3469 32.6145C35.9773 32.9473 34.6161 33.4473 33.302 34.0824C33.2925 34.0866 33.2831 34.0907 33.2748 34.095C30.6351 35.3736 28.1847 37.192 26.2292 39.2772C26.1036 39.4101 25.8933 39.4101 25.7688 39.2772C22.8351 36.1468 18.7797 33.6169 14.65 32.6145C14.4742 32.5717 14.3706 32.3927 14.4209 32.2201C15.6084 28.1751 15.7559 23.514 14.5851 19.5224C14.5338 19.3487 14.6374 19.1698 14.8132 19.1269C16.1786 18.7942 17.5095 18.3348 18.7682 17.7803C21.2154 16.6995 23.7129 15.105 25.7123 13.0909C25.7301 13.0731 25.751 13.0511 25.7741 13.0281C25.8976 12.9016 26.1005 12.9036 26.224 13.0291C28.17 15.0087 30.6005 16.5875 32.9996 17.6767C33.0771 17.7123 33.1555 17.7458 33.2319 17.7803C34.4884 18.3348 35.8183 18.7941 37.1847 19.1269C37.3605 19.1698 37.463 19.3487 37.4118 19.5224C36.2441 23.514 36.3886 28.1751 37.576 32.2201C37.6263 32.3927 37.5227 32.5717 37.3469 32.6145Z" fill="#DFF6FD"/><path d="M30.4947 30.8507C29.2271 30.8507 28.0346 30.3415 27.2227 29.4537C26.9303 29.1339 26.9524 28.6375 27.2722 28.3449C27.5922 28.0525 28.0884 28.0748 28.381 28.3945C28.8886 28.9497 29.6789 29.2811 30.4948 29.2811C31.3364 29.2811 31.9321 28.7605 32.0218 28.2572C32.1102 27.7609 31.6991 27.3062 30.894 27.0098C29.7034 26.5712 28.6435 26.1023 28.599 26.0826C28.5607 26.0657 28.5238 26.0457 28.4886 26.0227C27.7334 25.5309 27.3448 24.6683 27.474 23.7715C27.6124 22.8109 28.3188 22.0284 29.3175 21.7292C31.3333 21.1239 32.9986 22.4924 33.0687 22.5509C33.401 22.8292 33.4447 23.3242 33.1665 23.6563C32.8891 23.9876 32.3965 24.032 32.0642 23.7566C32.036 23.7342 30.9545 22.8766 29.7685 23.2325C29.1731 23.4109 29.0519 23.8254 29.0273 23.9953C28.9883 24.2665 29.0903 24.5175 29.3015 24.6769C29.5503 24.7854 30.4597 25.1773 31.4362 25.537C33.2797 26.2157 33.7454 27.5294 33.5667 28.5324C33.3312 29.8541 32.0104 30.8507 30.4947 30.8507Z" fill="#024C67"/><path d="M22.0136 30.5649C21.6123 30.5649 21.2568 30.334 21.1052 29.974L18.1298 22.6555C17.9665 22.254 18.1597 21.7963 18.5612 21.6332C18.9627 21.4696 19.4204 21.663 19.5836 22.0645L22.0011 28.0107L24.3031 22.0904C24.4602 21.6864 24.9153 21.4862 25.3189 21.6434C25.7229 21.8004 25.923 22.2552 25.7658 22.6592L22.9304 29.951C22.7854 30.3201 22.4307 30.5599 22.026 30.5648C22.022 30.5648 22.0179 30.5649 22.0136 30.5649Z" fill="#024C67"/><path fill-rule="evenodd" clip-rule="evenodd" d="M42.3847 35.6812C39.3087 35.2564 35.6006 36.4471 32.4053 38.5439C32.4 38.547 32.3948 38.5502 32.3896 38.5533C32.7338 37.1513 33.0153 35.6656 33.2287 34.116C34.6705 33.4151 36.1688 32.873 37.6723 32.5393C36.3645 28.3144 36.2044 23.3687 37.5091 19.2034C36.0286 18.8665 34.5879 18.3779 33.2319 17.7804C33.0928 17.7187 32.9505 17.6569 32.8113 17.591C32.4932 15.9704 32.0988 14.4375 31.6364 13.0178C31.6551 13.0304 31.6729 13.0418 31.6918 13.0533C31.7107 13.0658 31.7305 13.0774 31.7494 13.0899C34.9227 15.1353 38.8652 16.4034 42.3754 16.2527C42.6055 16.2423 42.7395 16.507 42.5982 16.689C39.1538 21.1075 39.2543 29.9433 42.6505 35.2688C42.775 35.4636 42.6128 35.7126 42.3847 35.6812Z" fill="#F47118"/><path fill-rule="evenodd" clip-rule="evenodd" d="M37.3468 32.6145C35.9773 32.9473 34.616 33.4473 33.3019 34.0824C33.2925 34.0866 33.283 34.0907 33.2747 34.095C33.2589 34.1013 33.2433 34.1086 33.2287 34.1159C33.5373 31.8968 33.7005 29.5458 33.7005 27.1111C33.7005 23.7357 33.3836 20.5196 32.8112 17.591C32.8739 17.6203 32.9367 17.6496 32.9995 17.6768C33.0769 17.7124 33.1554 17.7459 33.2317 17.7804C34.4883 18.3349 35.8181 18.7942 37.1845 19.127C37.3603 19.1699 37.4628 19.3488 37.4116 19.5225C36.244 23.5141 36.3884 28.1752 37.5759 32.2202C37.6262 32.3927 37.5226 32.5717 37.3468 32.6145Z" fill="#C8EFFE"/></svg>