<svg width="58" height="58" viewBox="0 0 58 58" fill="none" xmlns="http://www.w3.org/2000/svg"><path d="M49.9098 5.18593V52.8056C49.9098 54.7333 48.3489 56.2942 46.4213 56.2942H11.5786C10.5466 56.2942 9.61685 55.8421 8.98568 55.1256C8.40891 54.4907 8.08959 53.6635 8.09009 52.8056V5.18593C8.09009 3.26681 9.65097 1.70593 11.5786 1.70593H46.4213C47.4533 1.70593 48.383 2.15799 49.0142 2.87446C49.5686 3.48005 49.9098 4.29034 49.9098 5.18593Z" fill="#E6EEF8"/><path d="M49.9097 5.18342V52.8031C49.9097 54.7308 48.3488 56.2917 46.4212 56.2917H11.5785C10.5465 56.2917 9.61677 55.8396 8.9856 55.1231L49.0141 2.87195C49.5685 3.47754 49.9097 4.28783 49.9097 5.18342Z" fill="#E6EEF8"/><path d="M45.5086 7.80452V17.6133C45.5086 18.5089 44.775 19.2425 43.8794 19.2425H14.1203C13.2247 19.2425 12.4912 18.5089 12.4912 17.6133V7.81304C12.4912 6.87481 13.2589 6.09863 14.1971 6.09863H43.8027C44.2551 6.09863 44.689 6.27836 45.0089 6.59827C45.3288 6.91819 45.5086 7.35209 45.5086 7.80452Z" fill="white"/><path d="M45.5086 7.80185V17.6107C45.5086 18.5148 44.7751 19.2398 43.8795 19.2398H40.1095C41.0136 19.2398 41.7386 18.5148 41.7386 17.6107V7.80185C41.7386 6.86361 40.9795 6.10449 40.0413 6.10449H43.8027C44.7495 6.10449 45.5086 6.86361 45.5086 7.80185Z" fill="white"/><path d="M21.3618 25.7162V30.3221C21.3618 31.1324 20.705 31.7891 19.8947 31.7891H15.2888C14.4785 31.7891 13.8218 31.1324 13.8218 30.3221V25.7162C13.8218 24.9059 14.4785 24.2491 15.2888 24.2491H19.8947C20.705 24.2491 21.3618 24.9059 21.3618 25.7162ZM21.3618 45.7433V50.3577C21.3618 51.1594 20.705 51.8162 19.8947 51.8162H15.2888C14.4785 51.8162 13.8218 51.1594 13.8218 50.3577V45.7433C13.8218 44.9415 14.4785 44.2847 15.2888 44.2847H19.8947C20.705 44.2847 21.3618 44.9415 21.3618 45.7433ZM32.7656 35.7297V40.3356C32.7656 41.1459 32.1174 41.8027 31.3071 41.8027H26.7012C25.8909 41.8027 25.2341 41.1459 25.2341 40.3356V35.7297C25.2341 34.9194 25.8909 34.2627 26.7012 34.2627H31.3071C32.1174 34.2627 32.7656 34.9194 32.7656 35.7297ZM32.7656 45.7433V50.3577C32.7656 51.1594 32.1174 51.8162 31.3071 51.8162H26.7012C25.8909 51.8162 25.2341 51.1594 25.2341 50.3577V45.7433C25.2341 44.9415 25.8909 44.2847 26.7012 44.2847H31.3071C32.1174 44.2847 32.7656 44.9415 32.7656 45.7433ZM21.3618 35.7297V40.3356C21.3618 41.1459 20.705 41.8027 19.8947 41.8027H15.2888C14.4785 41.8027 13.8218 41.1459 13.8218 40.3356V35.7297C13.8218 34.9194 14.4785 34.2627 15.2888 34.2627H19.8947C20.705 34.2627 21.3618 34.9194 21.3618 35.7297ZM32.7656 25.7162V30.3221C32.7656 31.1324 32.1174 31.7891 31.3071 31.7891H26.7012C25.8909 31.7891 25.2341 31.1324 25.2341 30.3221V25.7162C25.2341 24.9059 25.8909 24.2491 26.7012 24.2491H31.3071C32.1174 24.2491 32.7656 24.9059 32.7656 25.7162ZM44.1779 25.7162V30.3221C44.1779 31.1324 43.5212 31.7891 42.7109 31.7891H38.105C37.2947 31.7891 36.638 31.1324 36.638 30.3221V25.7162C36.638 24.9059 37.2947 24.2491 38.105 24.2491H42.7109C43.5212 24.2491 44.1779 24.9059 44.1779 25.7162Z" fill="#E6883B"/><path d="M44.1779 35.7272V50.3551C44.1779 51.1654 43.5212 51.8222 42.7109 51.8222H38.105C37.2947 51.8222 36.6379 51.1654 36.6379 50.3551V35.7272C36.6379 34.9254 37.2947 34.2687 38.105 34.2687H42.7109C43.5212 34.2687 44.1779 34.9254 44.1779 35.7272Z" fill="#CB672B"/><path d="M43.1801 43.0455C43.1801 43.2758 43.0863 43.489 42.9328 43.6425C42.7792 43.7875 42.5745 43.8814 42.3442 43.8814H41.2439V44.9817C41.2439 45.4422 40.8686 45.8175 40.408 45.8175C40.2983 45.8183 40.1896 45.7968 40.0884 45.7543C39.9872 45.7117 39.8958 45.6491 39.8195 45.5702C39.7412 45.4935 39.679 45.4019 39.6365 45.3008C39.5941 45.1998 39.5722 45.0913 39.5722 44.9817V43.8814H38.4719C38.0113 43.8814 37.636 43.5061 37.636 43.0455C37.636 42.8152 37.7298 42.6019 37.8833 42.4569C38.0369 42.3034 38.2416 42.2096 38.4719 42.2096H39.5722V41.1093C39.5723 40.9433 39.6217 40.7811 39.7142 40.6433C39.8067 40.5055 39.938 40.3982 40.0915 40.3351C40.2451 40.2721 40.4139 40.2561 40.5765 40.2891C40.7392 40.3222 40.8884 40.4028 41.0051 40.5208C41.1501 40.6743 41.2439 40.879 41.2439 41.1093V42.2096H42.3442C42.8048 42.2096 43.1801 42.5849 43.1801 43.0455Z" fill="#F2C844"/></svg>