<svg width="45" height="45" viewBox="0 0 45 45" fill="none" xmlns="http://www.w3.org/2000/svg"><g clip-path="url(#clip0_1028_13609)"><path d="M37.9687 1.87488H31.4061C30.6299 1.87488 29.9999 2.50488 29.9999 3.28113V9.61887C29.9999 9.99377 30.1499 10.3556 30.418 10.6183L36.9807 17.1057C37.2488 17.3718 37.6069 17.5125 37.9687 17.5125C38.1524 17.5125 38.3361 17.4768 38.5105 17.4037C39.0337 17.1864 39.375 16.6745 39.375 16.1063V3.28113C39.375 2.50488 38.745 1.87488 37.9687 1.87488Z" fill="#DA600E"/><path d="M45 22.0314C45 23.325 43.9501 24.3749 42.6561 24.3749H39.375L22.5 7.9689L5.625 24.3749H2.34386C1.04988 24.3749 0 23.325 0 22.0314C0 21.4124 0.243759 20.7937 0.693855 20.3625L21.525 0.393828C22.0688 -0.131113 22.9312 -0.131113 23.475 0.393828L44.2876 20.3436C44.7562 20.7937 45 21.4124 45 22.0314Z" fill="#F5821F"/><path d="M22.5 7.96887L5.625 24.3749V41.2499C5.625 43.3126 7.31243 45 9.37511 45H35.6249C37.6876 45 39.375 43.3126 39.375 41.2499V24.3749L22.5 7.96887Z" fill="#E4EEF9"/><path d="M16.875 29.9999H28.125V45H16.875V29.9999Z" fill="#F5821F"/></g><defs><clipPath id="clip0_1028_13609"><rect width="45" height="45" fill="white"/></clipPath></defs></svg>