<svg width="52" height="52" viewBox="0 0 52 52" fill="none" xmlns="http://www.w3.org/2000/svg"><g clip-path="url(#clip0_962_6384)"><path d="M21.4086 47.9083V50.4633C21.4086 51.3085 22.095 52 22.9339 52H29.066C29.905 52 30.5913 51.3085 30.5913 50.4633V47.9083H21.4086Z" fill="#576574"/><path d="M24.6177 50.4633V47.9083H21.4086V50.4633C21.4086 51.3085 22.0949 52 22.9339 52H26.1431C25.3042 52 24.6177 51.3085 24.6177 50.4633Z" fill="#3E4B5A"/><path d="M26.244 0.00173922C16.4405 -0.131206 8.46716 7.65132 8.37362 17.4552C8.3263 22.4147 10.3278 26.9065 13.5829 30.1371C15.3638 31.9045 16.6813 34.0841 17.4882 36.4599L18.9528 40.7721C19.0332 40.7589 19.1153 40.7501 19.1994 40.7501H32.8008C32.8849 40.7501 32.9669 40.7588 33.0474 40.7721L34.5121 36.4594C35.3224 34.0734 36.6549 31.8927 38.4402 30.1143C41.6441 26.9228 43.6273 22.507 43.6273 17.6273C43.6272 7.97348 35.8667 0.132247 26.244 0.00173922Z" fill="#F5821F"/><path d="M20.6272 36.46C19.8203 34.0842 18.5028 31.9046 16.7219 30.1371C13.4668 26.9064 11.4653 22.4147 11.5127 17.4552C11.6004 8.26586 18.6109 0.852404 27.5625 0.0685443C27.1273 0.0303568 26.6877 0.00760679 26.2441 0.0016146C16.4405 -0.131229 8.46716 7.6513 8.37362 17.4551C8.3263 22.4146 10.3278 26.9064 13.5828 30.137C15.3637 31.9045 16.6812 34.0841 17.4881 36.4599L18.9527 40.772C19.0331 40.7587 19.1151 40.7501 19.1992 40.7501H22.0842L20.6272 36.46Z" fill="#FC9F4F"/><path d="M32.8008 40.7501C32.8849 40.7501 32.9668 40.7588 33.0474 40.7721L33.0548 40.7501H32.8008Z" fill="#FC9F4F"/><path d="M46.2451 11.493C45.9345 11.1908 45.9278 10.6939 46.2301 10.3834L48.7646 7.7796C49.067 7.46902 49.5638 7.46222 49.8744 7.76467C50.185 8.06692 50.1917 8.56376 49.8893 8.87434L47.3548 11.4781C47.0524 11.7887 46.5556 11.7954 46.2451 11.493Z" fill="#F5821F"/><path d="M48.7646 27.7212L46.2301 25.1174C45.9278 24.8069 45.9345 24.31 46.2451 24.0078C46.5557 23.7055 47.0525 23.7119 47.3548 24.0227L49.8892 26.6264C50.1916 26.9369 50.1849 27.4338 49.8743 27.736C49.5635 28.0386 49.0666 28.0316 48.7646 27.7212Z" fill="#F5821F"/><path d="M50.204 18.5351H47.6695C47.2362 18.5351 46.8848 18.1838 46.8848 17.7503C46.8848 17.3168 47.2361 16.9655 47.6695 16.9655H50.204C50.6374 16.9655 50.9888 17.3168 50.9888 17.7503C50.9888 18.1838 50.6375 18.5351 50.204 18.5351Z" fill="#F5821F"/><path d="M4.64665 11.4783L2.11114 8.87454C1.80869 8.56396 1.81529 8.06722 2.12587 7.76487C2.43635 7.46241 2.93319 7.46891 3.23554 7.77959L5.77105 10.3834C6.0735 10.6939 6.0669 11.1907 5.75632 11.493C5.44574 11.7955 4.9488 11.7888 4.64665 11.4783Z" fill="#F5821F"/><path d="M2.12571 27.7361C1.81513 27.4337 1.80863 26.9369 2.11098 26.6264L4.64649 24.0227C4.94894 23.7122 5.44568 23.7057 5.75616 24.008C6.06674 24.3104 6.07324 24.8072 5.77089 25.1177L3.23538 27.7213C2.93323 28.0318 2.43629 28.0385 2.12571 27.7361Z" fill="#F5821F"/><path d="M4.33149 18.5351H1.79588C1.36251 18.5351 1.01111 18.1838 1.01111 17.7503C1.01111 17.3169 1.36241 16.9656 1.79588 16.9656H4.33149C4.76486 16.9656 5.11626 17.3169 5.11626 17.7503C5.11616 18.1838 4.76486 18.5351 4.33149 18.5351Z" fill="#F5821F"/><path d="M28.5177 38.8024C28.0843 38.8024 27.7329 38.4464 27.7329 38.0071C27.7329 31.6219 29.0997 27.5116 29.1579 27.3397C29.2986 26.9242 29.7453 26.7029 30.1549 26.8456C30.5647 26.9881 30.7829 27.4402 30.6426 27.8555C30.6253 27.9069 29.3025 31.916 29.3025 38.0071C29.3025 38.4465 28.9512 38.8024 28.5177 38.8024Z" fill="#F47118"/><path d="M23.4822 38.8024C23.0488 38.8024 22.6974 38.4463 22.6974 38.0071C22.6974 31.9071 21.3706 27.8952 21.3571 27.8553C21.2172 27.4399 21.4358 26.9878 21.8457 26.8457C22.2554 26.7036 22.7014 26.9246 22.8418 27.3397C22.9 27.5116 24.2668 31.6219 24.2668 38.0071C24.2669 38.4465 23.9155 38.8024 23.4822 38.8024Z" fill="#F47118"/><path d="M29.2089 38.0177H22.7911C22.0307 38.0177 21.4086 38.6399 21.4086 39.4003V40.7502H30.5913V39.4003C30.5914 38.6399 29.9693 38.0177 29.2089 38.0177Z" fill="#FC9F4F"/><path d="M25.8956 38.0177H22.7911C22.0307 38.0177 21.4086 38.6399 21.4086 39.4003V40.7502H24.513V39.4003C24.5131 38.6399 25.1352 38.0177 25.8956 38.0177Z" fill="#F47118"/><path d="M32.8006 40.6663H19.1992C18.3602 40.6663 17.6738 41.3579 17.6738 42.2031V42.9074C17.6738 43.7526 18.3603 44.4441 19.1992 44.4441H32.8006C33.6397 44.4441 34.326 43.7526 34.326 42.9074V42.2031C34.326 41.3579 33.6397 40.6663 32.8006 40.6663Z" fill="#CCD2DB"/><path d="M32.8006 44.4223H19.1992C18.3602 44.4223 17.6738 45.1179 17.6738 45.968V46.6764C17.6738 47.5266 18.3603 48.2221 19.1992 48.2221H32.8006C33.6397 48.2221 34.326 47.5265 34.326 46.6764V45.968C34.326 45.1179 33.6397 44.4223 32.8006 44.4223Z" fill="#E4EAF8"/><path d="M32.8006 42.3515H19.1992C18.608 42.3515 18.0939 42.0074 17.841 41.509C17.735 41.718 17.6738 41.9535 17.6738 42.2032V42.9075C17.6738 43.7527 18.3603 44.4442 19.1992 44.4442H32.8006C33.6397 44.4442 34.326 43.7527 34.326 42.9075V42.2032C34.326 41.9535 34.2649 41.718 34.1588 41.509C33.906 42.0074 33.3918 42.3515 32.8006 42.3515Z" fill="#BCC2CC"/><path d="M32.8006 46.1295H19.1992C18.6057 46.1295 18.0899 45.7806 17.8381 45.2759C17.734 45.4847 17.6738 45.7194 17.6738 45.9681V46.6765C17.6738 47.5267 18.3603 48.2222 19.1992 48.2222H32.8006C33.6397 48.2222 34.326 47.5266 34.326 46.6765V45.9681C34.326 45.7194 34.2659 45.4847 34.1618 45.2759C33.91 45.7805 33.3942 46.1295 32.8006 46.1295Z" fill="#CCD2DB"/><path d="M31.2454 23.9969H20.7546C19.9156 23.9969 19.2292 24.6834 19.2292 25.5223V26.2215C19.2292 27.0605 19.9157 27.7468 20.7546 27.7468H31.2454C32.0844 27.7468 32.7708 27.0604 32.7708 26.2215V25.5223C32.7708 24.6834 32.0843 23.9969 31.2454 23.9969Z" fill="#FC9F4F"/><path d="M31.2454 25.6603H20.7546C20.1653 25.6603 19.6525 25.3209 19.3987 24.8287C19.2911 25.0373 19.2292 25.2728 19.2292 25.5224V26.2216C19.2292 27.0606 19.9156 27.747 20.7546 27.747H31.2454C32.0844 27.747 32.7708 27.0605 32.7708 26.2216V25.5224C32.7708 25.2728 32.7088 25.0373 32.6014 24.8287C32.3476 25.3209 31.8347 25.6603 31.2454 25.6603Z" fill="#F47118"/></g><defs><clipPath id="clip0_962_6384"><rect width="52" height="52" fill="white"/></clipPath></defs></svg>