<svg width="52" height="52" viewBox="0 0 52 52" fill="none" xmlns="http://www.w3.org/2000/svg"><g clip-path="url(#clip0_962_6417)"><path fill-rule="evenodd" clip-rule="evenodd" d="M25.8931 47.3308C25.0156 47.874 23.8533 47.6039 23.3103 46.7259L20.8685 42.7913L17.4552 41.8898L17.1177 45.0757L19.5771 49.0426C21.3939 51.9701 25.2855 52.8804 28.2087 51.0657L36.6291 45.8391C39.5522 44.0245 40.462 40.1281 38.6483 37.2035L36.2916 33.401L33.4212 33.1249L32.5378 35.6853L34.9151 39.5201C35.461 40.398 35.188 41.5608 34.3105 42.1041L25.8931 47.3308Z" fill="#EBEAF3"/><path fill-rule="evenodd" clip-rule="evenodd" d="M35.4491 43.9364L27.0288 49.1659C24.1056 50.9805 20.2138 50.0674 18.4001 47.1428L19.5771 49.0425C21.3938 51.9699 25.2855 52.8803 28.2086 51.0656L36.629 45.839C39.5522 44.0244 40.462 40.128 38.6483 37.2034L37.4743 35.3124C39.2821 38.2371 38.3694 42.1247 35.4491 43.9364Z" fill="#D8D2DB"/><path fill-rule="evenodd" clip-rule="evenodd" d="M9.14639 49.9264L7.14185 44.738L1.79144 42.5681L1.6065 42.8676C0.144909 45.2754 -0.383419 48.1177 1.6065 50.1085C3.59935 52.1023 6.44331 51.5738 8.84699 50.1085L9.14639 49.9264Z" fill="#EBEAF3"/><path fill-rule="evenodd" clip-rule="evenodd" d="M44.5622 28.3682L36.1948 16.3266L23.3398 7.13599L1.7915 42.5681L9.14646 49.9264L13.7895 47.0988L17.2439 44.9964L28.068 38.4074L31.584 36.2698L44.5622 28.3682Z" fill="#FAC600"/><path fill-rule="evenodd" clip-rule="evenodd" d="M48.2279 24.6979L27.0084 3.46565C25.9987 2.45855 24.3494 2.45855 23.3397 3.46565C22.333 4.47569 22.333 6.12587 23.3397 7.13601L44.5622 28.3683C45.5689 29.3755 47.2212 29.3755 48.2279 28.3683C49.2375 27.3581 49.2375 25.7079 48.2279 24.6979Z" fill="#F5821F"/><path fill-rule="evenodd" clip-rule="evenodd" d="M44.5622 28.3682L23.3398 7.13599L21.1357 10.7623L35.5784 25.2088C38.1465 27.781 34.8858 29.1494 31.8247 31.0109L6.39941 47.178L9.14648 49.9264L13.7895 47.0988L17.244 44.9965C26.3511 39.4527 35.4552 33.909 44.5622 28.3682Z" fill="#FC9F4F"/><path fill-rule="evenodd" clip-rule="evenodd" d="M9.14643 49.9264L6.39937 47.178L6.09712 47.36C4.31267 48.4465 2.28467 49.0191 0.544189 48.4259C0.74965 49.0279 1.09598 49.5976 1.60663 50.1084C3.59949 52.1022 6.44345 51.5737 8.84713 50.1084L9.14643 49.9264Z" fill="#D8D2DB"/><path fill-rule="evenodd" clip-rule="evenodd" d="M48.228 24.6979L44.982 21.4503C45.9857 22.4575 45.9857 24.1077 44.979 25.1148C44.3892 25.705 43.582 25.9487 42.813 25.8518C42.2642 25.7813 41.733 25.5377 41.3132 25.1177L44.5622 28.3682C45.5689 29.3754 47.2212 29.3754 48.2279 28.3682C49.2375 27.3581 49.2375 25.7079 48.228 24.6979Z" fill="#F47118"/><path d="M41.5274 10.9451C41.3296 10.9451 41.1318 10.8697 40.9808 10.7188C40.6788 10.417 40.6786 9.92751 40.9805 9.62557L44.931 5.67337C45.2327 5.37122 45.7222 5.37122 46.0244 5.67306C46.3264 5.9748 46.3266 6.46433 46.0247 6.76628L42.0742 10.7185C41.9233 10.8696 41.7254 10.9451 41.5274 10.9451Z" fill="#ACACC0"/><path d="M37.6501 7.06337C37.227 7.06337 36.8817 6.72262 36.8771 6.2986L36.8184 0.78132C36.8138 0.354352 37.1564 0.00467187 37.5834 0H37.5918C38.0149 0 38.3602 0.340742 38.3648 0.764766L38.4235 6.28205C38.4281 6.70902 38.0855 7.05869 37.6585 7.06337C37.6557 7.06337 37.6528 7.06337 37.6501 7.06337Z" fill="#ACACC0"/><path d="M50.9225 14.8827C50.9196 14.8827 50.9168 14.8827 50.914 14.8827L45.3993 14.824C44.9723 14.8193 44.6299 14.4696 44.6343 14.0427C44.6389 13.6186 44.9842 13.2779 45.4073 13.2779H45.4157L50.9305 13.3366C51.3575 13.3413 51.6999 13.6909 51.6955 14.1179C51.6909 14.5419 51.3456 14.8827 50.9225 14.8827Z" fill="#ACACC0"/></g><defs><clipPath id="clip0_962_6417"><rect width="52" height="52" fill="white"/></clipPath></defs></svg>